<?xml version="1.0" encoding="utf-8"?>
<!-- Generator: Adobe Illustrator 16.0.0, SVG Export Plug-In . SVG Version: 6.00 Build 0)  -->
<!DOCTYPE svg PUBLIC "-//W3C//DTD SVG 1.1//EN" "http://www.w3.org/Graphics/SVG/1.1/DTD/svg11.dtd">
<svg version="1.1" id="Layer_1" xmlns="http://www.w3.org/2000/svg" xmlns:xlink="http://www.w3.org/1999/xlink" x="0px" y="0px"
	 width="68.257px" height="49.091px" viewBox="0 0 68.257 49.091" enable-background="new 0 0 68.257 49.091" xml:space="preserve">
<g>
	<path fill="#FFFFFF" d="M4.971-76.099c-0.07,0.91-0.49,0.77-2.311,0.77c-0.91,0-1.33-0.07-1.47-0.77
		c-0.98-5.46-1.75-9.731-2.8-15.332c-0.07-0.28-0.07-0.77-0.49-0.77c-0.35,0-0.35,0.49-0.42,0.7c-0.98,5.321-1.75,9.101-2.94,15.332
		c-0.14,0.91-0.7,0.84-1.68,0.84c-0.91,0-2.38,0.14-2.45-0.77c-0.98-12.321-2.45-29.753-3.92-47.395c-0.07-0.56,0.56-0.84,1.96-0.84
		c2.101,0,2.66,0.07,2.73,0.77c0.84,13.021,1.4,21.772,2.17,33.533c0,0.21,0.07,0.7,0.42,0.7c0.42,0,0.49-0.49,0.49-0.77
		c0.771-6.791,1.33-12.042,1.96-18.062c0.07-0.63,0.42-0.84,1.68-0.84c1.4,0,1.75,0.14,1.82,0.84c0.7,6.581,1.12,11.411,1.89,18.342
		c0,0.21,0.07,0.7,0.42,0.7c0.42,0,0.49-0.49,0.49-0.77c0.77-12.391,1.47-23.803,2.1-33.744c0.07-0.7,0.28-0.7,1.89-0.7
		c1.89,0,2.45-0.14,2.38,0.77C7.981-112.573,6.021-88.91,4.971-76.099z"/>
	<path fill="#FFFFFF" d="M24.081-75.329c-2.03,0-2.38,0.14-2.52-0.84c-0.56-3.921-0.98-7.421-1.541-11.271
		c-0.07-0.7-1.05-0.63-2.17-0.63c-1.33,0-2.03-0.07-2.1,0.63c-0.42,3.92-0.77,7.351-1.12,11.411c-0.07,0.77-0.7,0.7-2.94,0.7
		c-1.05,0-1.96,0-1.89-0.63c2.17-18.202,4.061-31.644,6.021-47.395c0.14-0.98,0.49-1.05,2.03-1.05c1.75,0,2.31,0.07,2.38,1.26
		c2.38,17.922,3.64,28.843,6.021,47.115C26.321-75.259,25.971-75.329,24.081-75.329z M18.34-107.882c0-0.28-0.07-0.77-0.49-0.77
		c-0.35,0-0.42,0.49-0.42,0.7c-0.42,5.881-0.7,10.781-1.05,15.402c-0.07,0.49,0.56,0.63,1.54,0.63c0.84,0,1.61,0,1.541-0.56
		C18.97-98.501,18.76-102.352,18.34-107.882z"/>
	<path fill="#FFFFFF" d="M40.88-120.343c-0.84,0-1.82-0.07-3.01,0c-0.561,0-1.12,0-1.471,0.14c-0.629,0.49-0.49,1.68-0.49,2.59
		c0,15.471,0,26.252,0,41.584c0,0.63-1.049,0.7-2.52,0.7c-1.26,0-2.17,0-2.17-0.7c0-15.332,0-26.183,0-41.584
		c0-0.91,0.14-2.101-0.49-2.59c-0.35-0.14-0.91-0.14-1.47-0.14c-0.98,0-1.96,0-2.59,0c-1.05,0-1.26-0.35-1.26-1.89
		c0-1.541,0.14-2.1,0.98-2.1c4.411,0,10.011,0,14.422,0c0.84,0,0.909,0.7,0.909,2.1C41.72-120.624,41.65-120.343,40.88-120.343z"/>
	<path fill="#FFFFFF" d="M51.94-75.329c-5.461,0-8.121-4.411-8.121-8.121c0-10.571,0-21.982,0-32.623c0-3.78,2.66-8.261,8.121-8.261
		c5.811,0,8.121,5.25,8.121,8.261c0,0.91,0,2.1,0,3.15c0,0.7-1.051,0.77-2.311,0.77c-1.4,0-2.381,0.07-2.381-0.77
		c0-0.98,0-2.311,0-3.291c0-1.54-1.33-3.78-3.43-3.78c-2.17,0-3.57,2.1-3.57,3.71c0,9.941,0,22.332,0,32.413
		c0,1.96,0.98,3.851,3.57,3.851c2.38,0,3.43-1.75,3.43-3.641c0-1.33,0-2.8,0-4.13c0-0.56,0.91-0.56,2.171-0.56
		c1.681,0,2.521-0.14,2.521,0.56c0,1.4,0,2.94,0,4.271C60.062-79.109,57.681-75.329,51.94-75.329z"/>
	<path fill="#FFFFFF" d="M78.26-75.398c-2.101,0-2.31-0.07-2.31-1.4c0-6.651,0-12.461,0-19.112c0-0.84,0.069-2.24-0.421-2.38
		c-0.771-0.42-6.021-0.14-6.3,0.07c-0.631,0.42-0.49,1.61-0.49,2.521c0,6.791,0,12.391,0,19.182c0,1.12-0.42,1.12-2.381,1.12
		c-1.82,0-2.1,0-2.1-0.98c0-17.572,0-29.823,0-46.625c0-0.91,0.279-1.26,2.1-1.26c1.961,0,2.45,0.28,2.45,1.33
		c0,5.741,0,10.851,0,16.522c0,1.19-0.21,2.59,0.841,3.15c0.56,0.21,5.109,0.42,5.811,0c0.629-0.42,0.49-1.89,0.49-2.94
		c0-5.881,0-11.972,0-17.012c0-1.26,0.56-1.05,2.24-1.05c1.959,0,2.31,0,2.31,1.12c0,16.592,0,29.053,0,46.345
		C80.5-75.539,80.569-75.398,78.26-75.398z"/>
</g>
<g>
	<path fill="#FFFFFF" d="M-3.948-13.162c-3.957,0-10.154,0-11.125,0c-0.821,0-1.642-0.07-1.941-0.49
		c-0.374-0.56-0.299-1.61-0.299-2.52c0-16.802,0-28.353,0-45.085c0-1.05,0.747-0.91,2.24-0.91c1.941,0,2.613,0,2.613,1.05
		c0,15.332,0,26.113,0,41.234c0,0.91-0.149,2.03,0.523,2.521c0.298,0.14,1.12,0.21,1.717,0.21c1.27,0,5.002,0,6.271,0
		c0.971,0,1.045,0.56,1.045,1.89C-2.902-13.512-2.977-13.162-3.948-13.162z"/>
	<path fill="#FFFFFF" d="M3.071-13.232c-2.016,0-2.24,0-2.24-0.98c0-17.572,0-30.033,0-46.834c0-0.91,0.448-1.05,2.24-1.05
		c2.016,0,2.539,0.07,2.539,1.12c0,16.732,0,29.123,0,46.625C5.61-13.302,5.46-13.232,3.071-13.232z"/>
	<path fill="#FFFFFF" d="M18.975-13.162c-4.853,0-8.661-2.59-8.661-8.121c0-0.28,0-3.64,0-3.92c0-0.771,0.522-0.91,2.464-0.91
		c1.792,0,2.539,0.07,2.539,0.77c0,0.42,0,3.43,0,3.85c0,1.75,0.97,3.641,3.658,3.641c3.21,0,3.808-2.24,3.808-3.851
		c0-1.68,0-3.08,0-4.271c0-3.71-2.912-7.631-5.898-11.551c-3.136-4.131-6.645-8.611-6.645-12.742c0-1.12,0-2.1,0-3.57
		c0-3.64,2.314-8.331,8.511-8.331c5.674,0,8.512,4.69,8.512,8.261c0,0.42,0,2.8,0,3.22c0,0.56-0.896,0.56-2.613,0.56
		c-1.418,0-2.389,0-2.389-0.63c0-0.42,0-2.94,0-3.291c0-2.31-1.867-3.78-3.509-3.78c-2.09,0-3.658,1.96-3.658,3.71
		c0,1.68,0,2.73,0,3.85c0,2.661,2.912,6.231,5.749,9.941c3.285,4.271,6.794,9.171,6.794,14.422c0,1.33,0,2.87,0,4.62
		C27.636-16.522,23.828-13.162,18.975-13.162z"/>
	<path fill="#FFFFFF" d="M45.333-58.177c-0.896,0-1.941-0.07-3.211,0c-0.598,0-1.194,0-1.568,0.14
		c-0.672,0.49-0.521,1.68-0.521,2.59c0,15.471,0,26.252,0,41.584c0,0.63-1.121,0.7-2.688,0.7c-1.344,0-2.314,0-2.314-0.7
		c0-15.332,0-26.183,0-41.584c0-0.91,0.149-2.101-0.522-2.59c-0.374-0.14-0.971-0.14-1.568-0.14c-1.045,0-2.091,0-2.763,0
		c-1.12,0-1.344-0.35-1.344-1.89c0-1.541,0.149-2.1,1.045-2.1c4.704,0,10.676,0,15.38,0c0.896,0,0.971,0.7,0.971,2.1
		C46.229-58.457,46.153-58.177,45.333-58.177z"/>
	<path fill="#FFFFFF" d="M64.073-13.162c-3.21,0-7.988,0-11.199,0c-1.194,0-2.463,0.14-2.986-0.28
		c-0.598-0.49-0.447-1.54-0.447-2.38c0-16.802,0-27.443,0-44.245c0-0.91,0.074-0.98,0.522-1.541c0.448-0.56,0.97-0.56,1.717-0.56
		c4.106,0,8.288,0,12.394,0c0.896,0,0.896,0.84,0.896,2.1c0,1.33,0,1.89-0.971,1.89c-2.016,0-6.047,0-7.467,0
		c-0.597,0-1.492,0.07-1.717,0.35c-0.373,0.49-0.373,0.42-0.373,1.33c0,4.69,0,8.611,0,13.301c0,0.63-0.149,1.4,0.447,1.82
		c0.523,0.35,1.046,0.28,1.643,0.28c1.27,0,2.838,0,3.51,0c0.896,0,1.045,0.56,1.045,2.03c0,1.4-0.074,1.96-1.045,1.96
		c-0.598,0-2.016,0-3.359,0c-0.747,0-1.568,0.07-1.867,0.21c-0.672,0.42-0.522,1.12-0.522,2.03c0,5.601,0,9.451,0,15.051
		c0,0.91,0,2.24,0.374,2.451c0.373,0.21,1.418,0.28,2.239,0.28c2.016,0,5.077,0,7.093,0c0.896,0,0.971,0.42,0.971,1.96
		C64.97-13.582,64.896-13.162,64.073-13.162z"/>
	<path fill="#FFFFFF" d="M84.531-13.162c-1.12,0-2.091-0.35-2.688-2.73c-2.239-8.891-3.434-13.931-5.822-22.612
		c-0.523-1.82-1.121-5.11-1.568-5.11c-0.448,0-0.523,0.84-0.523,1.26c0,9.661,0,17.711,0,27.933c0,1.12-0.373,1.26-2.389,1.26
		c-2.165,0-2.464-0.14-2.464-1.26c0-17.501,0-30.453,0-47.045c0-0.7,0.522-0.7,1.866-0.7c2.091,0,2.613,0.42,3.36,3.08
		c2.314,8.681,3.808,14.421,6.122,23.103c0.149,0.63,0.447,1.68,0.821,1.68s0.448-0.84,0.448-1.26c0-8.821,0-16.102,0-25.343
		c0-1.12,0.373-1.26,2.538-1.26c1.718,0,2.165,0.07,2.165,1.05c0,16.802,0,28.213,0,45.085
		C86.397-13.512,86.323-13.162,84.531-13.162z"/>
</g>
<g>
	<path fill="#FFFFFF" d="M8.191,49.005c-4.55,0-8.121-2.59-8.121-8.121c0-0.28,0-3.64,0-3.92c0-0.771,0.49-0.91,2.31-0.91
		c1.68,0,2.38,0.07,2.38,0.77c0,0.42,0,3.43,0,3.85c0,1.75,0.91,3.641,3.43,3.641c3.01,0,3.57-2.24,3.57-3.851
		c0-1.68,0-3.08,0-4.271c0-3.71-2.73-7.631-5.53-11.551C3.291,20.512,0,16.031,0,11.901c0-1.12,0-2.1,0-3.57C0,4.69,2.17,0,7.981,0
		c5.321,0,7.981,4.69,7.981,8.261c0,0.42,0,2.8,0,3.22c0,0.56-0.84,0.56-2.45,0.56c-1.33,0-2.24,0-2.24-0.63c0-0.42,0-2.94,0-3.291
		c0-2.31-1.75-3.78-3.291-3.78c-1.96,0-3.43,1.96-3.43,3.71c0,1.68,0,2.73,0,3.85c0,2.661,2.73,6.231,5.391,9.941
		c3.08,4.271,6.371,9.171,6.371,14.422c0,1.33,0,2.87,0,4.62C16.312,45.645,12.741,49.005,8.191,49.005z"/>
	<path fill="#FFFFFF" d="M22.47,48.935c-1.89,0-2.1,0-2.1-0.98c0-17.572,0-30.033,0-46.834c0-0.91,0.42-1.05,2.1-1.05
		c1.89,0,2.38,0.07,2.38,1.12c0,16.732,0,29.123,0,46.625C24.851,48.865,24.71,48.935,22.47,48.935z"/>
	<path fill="#FFFFFF" d="M44.941,49.005c-1.05,0-1.96-0.35-2.521-2.73c-2.1-8.891-3.221-13.931-5.461-22.612
		c-0.49-1.82-1.05-5.11-1.47-5.11S35,19.392,35,19.812c0,9.661,0,17.711,0,27.933c0,1.12-0.35,1.26-2.24,1.26
		c-2.03,0-2.31-0.14-2.31-1.26c0-17.501,0-30.453,0-47.045C30.45,0,30.94,0,32.2,0c1.96,0,2.451,0.42,3.15,3.08
		c2.17,8.681,3.571,14.421,5.741,23.103c0.141,0.63,0.42,1.68,0.77,1.68c0.351,0,0.42-0.84,0.42-1.26c0-8.821,0-16.102,0-25.343
		c0-1.12,0.351-1.26,2.381-1.26c1.61,0,2.03,0.07,2.03,1.05c0,16.802,0,28.213,0,45.085C46.691,48.655,46.622,49.005,44.941,49.005z
		"/>
	<path fill="#FFFFFF" d="M67.831,48.935c-0.35,0.35-0.91,0-1.54,0c-0.56,0-0.28-1.541-1.261-2.17c-0.77-0.49-1.539,2.24-4.97,2.24
		c-5.95,0-8.121-4.9-8.121-8.121c0-10.571,0-21.982,0-32.623C51.939,5.53,53.76,0,60.061,0c6.161,0,8.12,5.74,8.12,8.261
		c0,0.91,0,2.24,0,3.15c0,0.63-0.56,0.84-2.449,0.84c-1.75,0-2.171-0.07-2.171-0.7c0-0.98-0.069-2.45-0.069-3.43
		c0-1.54-1.33-3.78-3.431-3.78c-2.171,0-3.57,2.24-3.57,3.71c0,9.941,0,22.472,0,32.553c0,1.75,0.771,3.851,3.57,3.851
		c2.729,0,3.431-2.17,3.431-3.641c0-3.92,0-7.561,0-12.041c0-0.35,0.069-0.77-0.28-1.05c-0.49-0.35-1.96-0.14-2.661-0.14
		c-0.56,0-0.629-0.56-0.629-2.03c0-1.54,0.069-2.17,0.56-2.17c1.89,0,6.86-0.21,7.631-0.07c0.28,0.07,0.069,0.56,0.069,0.84
		c0,9.031,0,14.491,0,23.313C68.181,47.955,68.251,48.515,67.831,48.935z"/>
</g>
<g>
	<path fill="#FFFFFF" d="M-120.43,78.246c-0.42,0.39-1.96,12.88-1.75,13.465s2.73,0.099,5.181,0.099c0.63,0,0.49,5.269,0.14,5.269
		c-2.17,0.196-5.601,0-5.95,0.488c-0.21,0.293-1.05,8.88-2.03,12.002c-0.35,0.976-3.71,0.878-3.851-0.292
		c-0.07-1.562,1.47-10.734,1.4-11.319c-0.07-0.391-6.231-0.488-6.581,0c-0.21,0.292-0.7,7.514-1.61,10.636
		c-0.28,0.976-3.991,1.269-4.061,0c-0.07-2.83,1.33-10.148,1.12-10.636c-0.28-0.683-1.75-0.293-4.061-0.781
		c-0.49-0.098-0.35-5.269,0.07-5.366c2.1-0.293,4.41-0.099,4.831-0.391c0.42-0.293,2.1-12.587,1.89-12.978
		c-0.35-0.585-3.221,0-5.461-0.683c-0.84-0.292-0.7-4.781,0.14-5.171c2.03-0.879,5.11,0.195,5.741-0.391
		c0.35-0.39,1.12-5.659,1.47-9.075c0.21-0.975,4.13-0.975,4.061,0.293c-0.07,2.635-1.05,8.489-0.7,8.781
		c0.42,0.292,6.021,0.292,6.301,0c0.28-0.292,0.91-5.659,1.26-9.075c0.07-0.975,3.991-0.975,3.92,0.293
		c-0.21,2.927-0.98,8.684-0.77,8.879c0.35,0.391,2.311,0.391,4.061,0.293c0.7,0,0.84,5.074,0.21,5.367
		C-117.56,78.441-120.01,77.855-120.43,78.246z M-131.141,78.441c-0.21,0.293-1.96,12.978-1.75,13.271
		c0.21,0.293,5.74,0.391,6.021,0c0.28-0.389,2.1-12.783,1.96-13.271C-125.05,78.051-130.791,77.954-131.141,78.441z"/>
	<path fill="#FFFFFF" d="M-96.282,108.161c-2.38,2.66-5.74,3.01-7.351,3.01s-2.73,0-4.34,0c-0.7,0-1.33,0.07-1.68-0.49
		c-0.35-0.49-0.35-1.26-0.35-1.75c0-17.222,0-27.793,0-44.595c0-0.7,0-1.4,0.42-1.82c0.56-0.49,1.12-0.35,1.68-0.35
		c1.54,0,2.66,0,4.201,0c2.24,0,5.25,0.56,7.351,2.45c2.1,1.96,2.59,4.76,2.59,7.281c0,11.061,0,18.412,0,29.403
		C-93.761,102.98-93.761,105.221-96.282,108.161z M-98.312,71.897c0-1.541-0.21-2.8-1.47-4.061c-0.77-0.77-1.33-1.05-3.221-1.05
		c-1.26,0-1.96,0-2.24,0.49c-0.21,0.42-0.21,0.77-0.21,1.19c0,13.792,0,22.542,0,35.914c0,0.77-0.07,1.54,0.42,2.03
		c0.28,0.28,1.33,0.21,1.61,0.21c0.77,0,2.45-0.21,3.71-1.541c1.4-1.54,1.4-2.66,1.4-3.71
		C-98.312,90.519-98.312,82.818-98.312,71.897z"/>
	<path fill="#FFFFFF" d="M-74.792,111.171c-1.61,0-2.1,0.07-2.1-0.98c0-6.231,0-12.181,0-17.782c0-2.871-1.89-4.621-3.43-4.621
		c-3.291,0-3.71-0.07-3.71,1.05c0,6.511,0,13.652,0,21.212c0,1.12-0.28,1.12-2.38,1.12c-1.61,0-2.1,0-2.1-0.98
		c0-17.222,0-29.193,0-45.855c0-0.7,0.07-1.47,0.49-1.89c0.56-0.49,1.05-0.28,1.61-0.28c1.47,0,2.521,0,3.991,0
		c2.24,0,5.25,0.56,7.351,2.45c2.1,1.96,2.59,4.83,2.59,7.281c0,2.38,0,3.92,0,6.3c0,1.68,0.07,2.871-0.77,4.411
		c-1.05,1.96-3.291,2.52-3.291,2.8s2.311,0.7,3.36,2.8c0.84,1.68,0.77,2.73,0.77,4.411c0,6.09,0,11.341,0,17.432
		C-72.412,111.171-72.902,111.171-74.792,111.171z M-77.033,71.897c0-1.61-0.21-2.8-1.47-4.061c-0.771-0.77-1.19-1.05-3.71-1.05
		c-0.63,0-1.26,0-1.541,0.49c-0.21,0.42-0.21,0.77-0.21,1.19c0,5.041,0,8.191,0,13.091c0,0.771-0.14,1.541,0.42,1.96
		c0.42,0.35,0.91,0.28,1.26,0.28c0.77,0,2.59-0.21,3.851-1.54c1.4-1.54,1.4-2.73,1.4-3.71
		C-77.033,76.028-77.033,74.417-77.033,71.897z"/>
	<path fill="#FFFFFF" d="M-64.924,111.102c-1.89,0-2.1,0-2.1-0.98c0-17.572,0-30.033,0-46.834c0-0.91,0.42-1.05,2.1-1.05
		c1.89,0,2.38,0.07,2.38,1.12c0,16.732,0,29.123,0,46.625C-62.543,111.031-62.684,111.102-64.924,111.102z"/>
	<path fill="#FFFFFF" d="M-42.453,111.171c-1.05,0-1.96-0.35-2.521-2.73c-2.1-8.891-3.22-13.931-5.46-22.612
		c-0.49-1.82-1.05-5.11-1.47-5.11s-0.49,0.84-0.49,1.26c0,9.661,0,17.711,0,27.933c0,1.12-0.35,1.26-2.24,1.26
		c-2.03,0-2.31-0.14-2.31-1.26c0-17.501,0-30.453,0-47.045c0-0.7,0.49-0.7,1.75-0.7c1.96,0,2.451,0.42,3.15,3.08
		c2.17,8.681,3.57,14.421,5.741,23.103c0.14,0.63,0.42,1.68,0.77,1.68s0.42-0.84,0.42-1.26c0-8.821,0-16.102,0-25.343
		c0-1.12,0.35-1.26,2.38-1.26c1.61,0,2.03,0.07,2.03,1.05c0,16.802,0,28.213,0,45.085
		C-40.703,110.821-40.772,111.171-42.453,111.171z"/>
	<path fill="#FFFFFF" d="M-21.243,111.171c-1.4,0-2.17,0.14-2.45-0.98c-1.89-7.561-3.08-12.181-4.9-19.742
		c-0.14-0.63-0.63-0.77-1.47,1.12c-0.42,0.98-0.56,1.89-0.56,2.94c0,5.32,0,10.081,0,15.401c0,1.12-0.28,1.26-2.31,1.26
		c-1.82,0-2.17-0.14-2.17-1.12c0-17.572,0-30.033,0-46.835c0-0.91,0.56-0.98,2.1-0.98c1.61,0,2.38,0,2.38,1.05
		c0,5.74,0,11.341,0,16.941c0,0.49-0.07,1.54,0.35,1.4c0.21-0.07,0.35-0.84,0.49-1.33c1.96-6.721,2.87-10.361,4.83-17.152
		c0.21-0.77,0.7-0.7,2.521-0.7s2.45,0.28,2.31,0.7c-2.1,7.491-3.08,10.781-5.11,17.852c-0.21,0.84-0.28,1.61-0.28,2.311
		c0,0.63,0.14,1.61,0.28,2.52c2.45,9.731,3.71,14.142,6.301,24.503C-18.863,110.751-19.073,111.171-21.243,111.171z"/>
	<path fill="#FFFFFF" d="M-2.974,111.171c-2.03,0-2.38,0.14-2.52-0.84c-0.56-3.921-0.98-7.421-1.541-11.271
		c-0.07-0.7-1.05-0.63-2.17-0.63c-1.33,0-2.03-0.07-2.1,0.63c-0.42,3.92-0.77,7.351-1.12,11.411c-0.07,0.77-0.7,0.7-2.94,0.7
		c-1.05,0-1.96,0-1.89-0.63c2.17-18.202,4.061-31.644,6.021-47.395c0.14-0.98,0.49-1.05,2.03-1.05c1.75,0,2.31,0.07,2.38,1.26
		c2.38,17.922,3.64,28.843,6.021,47.115C-0.734,111.241-1.084,111.171-2.974,111.171z M-8.714,78.618c0-0.28-0.07-0.77-0.49-0.77
		c-0.35,0-0.42,0.49-0.42,0.7c-0.42,5.881-0.7,10.781-1.05,15.402c-0.07,0.49,0.56,0.63,1.54,0.63c0.84,0,1.61,0,1.541-0.56
		C-8.084,87.999-8.294,84.148-8.714,78.618z"/>
	<path fill="#FFFFFF" d="M15.225,111.171c-3.71,0-9.521,0-10.431,0c-0.77,0-1.54-0.07-1.82-0.49c-0.35-0.56-0.28-1.61-0.28-2.52
		c0-16.802,0-28.353,0-45.085c0-1.05,0.7-0.91,2.1-0.91c1.82,0,2.45,0,2.45,1.05c0,15.332,0,26.113,0,41.234
		c0,0.91-0.14,2.03,0.49,2.521c0.28,0.14,1.05,0.21,1.61,0.21c1.19,0,4.69,0,5.88,0c0.91,0,0.98,0.56,0.98,1.89
		C16.205,110.821,16.135,111.171,15.225,111.171z"/>
	<path fill="#FFFFFF" d="M32.235,111.171c-3.71,0-9.521,0-10.431,0c-0.77,0-1.54-0.07-1.82-0.49c-0.35-0.56-0.28-1.61-0.28-2.52
		c0-16.802,0-28.353,0-45.085c0-1.05,0.7-0.91,2.1-0.91c1.82,0,2.45,0,2.45,1.05c0,15.332,0,26.113,0,41.234
		c0,0.91-0.14,2.03,0.49,2.521c0.28,0.14,1.05,0.21,1.61,0.21c1.19,0,4.69,0,5.88,0c0.91,0,0.98,0.56,0.98,1.89
		C33.215,110.821,33.145,111.171,32.235,111.171z"/>
	<path fill="#FFFFFF" d="M46.096,66.157c-0.841,0-1.82-0.07-3.011,0c-0.56,0-1.119,0-1.47,0.14c-0.63,0.49-0.49,1.68-0.49,2.59
		c0,15.471,0,26.252,0,41.584c0,0.63-1.05,0.7-2.521,0.7c-1.26,0-2.17,0-2.17-0.7c0-15.332,0-26.183,0-41.584
		c0-0.91,0.141-2.101-0.49-2.59c-0.35-0.14-0.91-0.14-1.47-0.14c-0.98,0-1.96,0-2.59,0c-1.05,0-1.26-0.35-1.26-1.89
		c0-1.541,0.14-2.1,0.98-2.1c4.411,0,10.011,0,14.422,0c0.84,0,0.91,0.7,0.91,2.1C46.937,65.876,46.866,66.157,46.096,66.157z"/>
	<path fill="#FFFFFF" d="M63.946,111.102c-2.101,0-2.311-0.07-2.311-1.4c0-6.651,0-12.461,0-19.112c0-0.84,0.07-2.24-0.42-2.38
		c-0.771-0.42-6.021-0.14-6.301,0.07c-0.631,0.42-0.49,1.61-0.49,2.521c0,6.791,0,12.391,0,19.182c0,1.12-0.42,1.12-2.381,1.12
		c-1.82,0-2.1,0-2.1-0.98c0-17.572,0-29.823,0-46.625c0-0.91,0.279-1.26,2.1-1.26c1.961,0,2.451,0.28,2.451,1.33
		c0,5.741,0,10.851,0,16.522c0,1.19-0.211,2.59,0.84,3.15c0.561,0.21,5.11,0.42,5.811,0c0.63-0.42,0.49-1.89,0.49-2.94
		c0-5.881,0-11.972,0-17.012c0-1.26,0.561-1.05,2.24-1.05c1.96,0,2.311,0,2.311,1.12c0,16.592,0,29.053,0,46.345
		C66.187,110.961,66.256,111.102,63.946,111.102z"/>
	<path fill="#FFFFFF" d="M85.505,111.171c-3.01,0-7.49,0-10.501,0c-1.12,0-2.31,0.14-2.8-0.28c-0.561-0.49-0.42-1.54-0.42-2.38
		c0-16.802,0-27.443,0-44.245c0-0.91,0.069-0.98,0.49-1.541c0.42-0.56,0.91-0.56,1.609-0.56c3.851,0,7.771,0,11.621,0
		c0.84,0,0.84,0.84,0.84,2.1c0,1.33,0,1.89-0.91,1.89c-1.89,0-5.67,0-7,0c-0.561,0-1.4,0.07-1.61,0.35
		c-0.351,0.49-0.351,0.42-0.351,1.33c0,4.69,0,8.611,0,13.301c0,0.63-0.14,1.4,0.42,1.82c0.49,0.35,0.98,0.28,1.541,0.28
		c1.189,0,2.66,0,3.29,0c0.841,0,0.979,0.56,0.979,2.03c0,1.4-0.069,1.96-0.979,1.96c-0.56,0-1.89,0-3.15,0
		c-0.7,0-1.47,0.07-1.75,0.21c-0.63,0.42-0.49,1.12-0.49,2.03c0,5.601,0,9.451,0,15.051c0,0.91,0,2.24,0.351,2.451
		c0.35,0.21,1.33,0.28,2.1,0.28c1.891,0,4.761,0,6.65,0c0.841,0,0.91,0.42,0.91,1.96C86.345,110.751,86.275,111.171,85.505,111.171z
		"/>
	<path fill="#FFFFFF" d="M106.645,111.171c-1.82,0-2.24-0.14-2.24-1.26c0-8.891,0-15.542,0-24.433c0-2.73,0-7.141-0.489-7.141
		c-0.49,0-0.701,0.77-0.841,1.19c-0.979,3.781-1.54,5.671-2.591,9.311c-0.14,0.49-0.209,1.05-0.979,1.05
		c-0.63,0-0.841-0.56-1.05-0.98c-0.84-3.291-1.4-5.46-2.381-9.241c-0.14-0.49-0.42-1.12-0.98-1.12c-0.42,0-0.35,4.271-0.35,6.931
		c0,8.891,0,15.542,0,24.433c0,1.12-0.42,1.26-2.24,1.26c-1.96,0-2.311-0.14-2.311-1.26c0-17.501,0-30.103,0-46.695
		c0-1.12,0.631-0.98,1.961-0.98c1.54,0,1.82,0.35,2.939,3.85c1.4,4.411,2.451,7.631,3.641,11.341c0.141,0.35,0.42,0.77,0.84,0.77
		c0.351,0,0.701-0.42,0.841-0.77c1.47-4.41,2.17-6.721,3.64-11.341c1.051-3.36,1.191-3.92,2.73-3.92c1.541,0,2.17,0,2.17,1.05
		c0,16.592,0,29.193,0,46.695C108.954,111.031,108.745,111.171,106.645,111.171z"/>
	<path fill="#FFFFFF" d="M116.652,111.102c-1.89,0-2.101,0-2.101-0.98c0-17.572,0-30.033,0-46.834c0-0.91,0.42-1.05,2.101-1.05
		c1.89,0,2.38,0.07,2.38,1.12c0,16.732,0,29.123,0,46.625C119.032,111.031,118.893,111.102,116.652,111.102z"/>
	<path fill="#FFFFFF" d="M139.124,111.171c-1.051,0-1.961-0.35-2.521-2.73c-2.1-8.891-3.22-13.931-5.46-22.612
		c-0.49-1.82-1.05-5.11-1.47-5.11s-0.49,0.84-0.49,1.26c0,9.661,0,17.711,0,27.933c0,1.12-0.35,1.26-2.24,1.26
		c-2.031,0-2.311-0.14-2.311-1.26c0-17.501,0-30.453,0-47.045c0-0.7,0.49-0.7,1.75-0.7c1.961,0,2.451,0.42,3.15,3.08
		c2.17,8.681,3.57,14.421,5.74,23.103c0.141,0.63,0.42,1.68,0.771,1.68s0.42-0.84,0.42-1.26c0-8.821,0-16.102,0-25.343
		c0-1.12,0.351-1.26,2.38-1.26c1.611,0,2.031,0.07,2.031,1.05c0,16.802,0,28.213,0,45.085
		C140.874,110.821,140.804,111.171,139.124,111.171z"/>
	<path fill="#FFFFFF" d="M148.571,111.102c-1.89,0-2.1,0-2.1-0.98c0-17.572,0-30.033,0-46.834c0-0.91,0.42-1.05,2.1-1.05
		c1.891,0,2.381,0.07,2.381,1.12c0,16.732,0,29.123,0,46.625C150.952,111.031,150.812,111.102,148.571,111.102z"/>
	<path fill="#FFFFFF" d="M170.272,108.161c-2.379,2.66-5.67,3.01-7.35,3.01c-1.261,0-2.17,0.07-3.431,0
		c-0.841-0.07-2.101,0.07-2.38-0.35c-0.42-0.63-0.561-0.49-0.561-2.38c0-16.521,0-27.443,0-44.104c0-0.7,0-1.33,0.42-1.75
		c0.561-0.49,1.12-0.42,1.68-0.42c1.471,0,2.521,0,3.991,0c2.17,0,5.251,0.56,7.351,2.45c2.1,1.96,2.59,4.76,2.59,7.281
		c0,2.38,0,3.92,0,6.3c0,1.68,0.07,2.871-0.77,4.411c-1.051,1.96-3.221,2.52-3.221,2.8s2.381,0.7,3.43,2.8
		c0.842,1.68,0.771,2.73,0.771,4.411c0,3.29,0,5.391,0,8.681C172.794,103.05,172.794,105.221,170.272,108.161z M168.032,71.897
		c0-1.61-0.209-2.8-1.469-4.061c-0.771-0.77-1.261-1.05-3.221-1.05c-0.98,0-1.75,0-2.031,0.49c-0.209,0.42-0.209,0.77-0.209,1.19
		c0,5.041,0,8.191,0,13.091c0,0.771-0.07,1.4,0.42,1.891c0.42,0.42,0.699,0.35,1.26,0.35c0.98,0,2.59-0.21,3.851-1.54
		c1.399-1.54,1.399-2.59,1.399-3.71C168.032,76.028,168.032,74.417,168.032,71.897z M168.313,92.41c0-3.221-1.891-4.621-3.99-4.621
		c-3.012,0-3.221,0.21-3.221,1.89c0,4.34,0,9.171,0,14.702c0,0.77,0.07,2.1,0.699,2.17c0.561,0.07,0.631,0.07,1.261,0.07
		c0.771,0,2.521-0.21,3.78-1.541c1.4-1.54,1.471-2.52,1.471-3.71C168.313,98.01,168.313,95.63,168.313,92.41z"/>
	<path fill="#FFFFFF" d="M189.872,111.171c-2.031,0-2.381,0.14-2.521-0.84c-0.559-3.921-0.979-7.421-1.539-11.271
		c-0.07-0.7-1.051-0.63-2.17-0.63c-1.33,0-2.031-0.07-2.102,0.63c-0.42,3.92-0.77,7.351-1.119,11.411
		c-0.07,0.77-0.701,0.7-2.941,0.7c-1.049,0-1.959,0-1.889-0.63c2.17-18.202,4.061-31.644,6.02-47.395
		c0.141-0.98,0.49-1.05,2.031-1.05c1.75,0,2.311,0.07,2.379,1.26c2.381,17.922,3.641,28.843,6.021,47.115
		C192.112,111.241,191.763,111.171,189.872,111.171z M184.132,78.618c0-0.28-0.07-0.77-0.49-0.77c-0.35,0-0.42,0.49-0.42,0.7
		c-0.42,5.881-0.701,10.781-1.051,15.402c-0.07,0.49,0.561,0.63,1.541,0.63c0.84,0,1.609,0,1.539-0.56
		C184.761,87.999,184.552,84.148,184.132,78.618z"/>
	<path fill="#FFFFFF" d="M209.261,111.171c-1.609,0-2.1,0.07-2.1-0.98c0-6.231,0-12.181,0-17.782c0-2.871-1.891-4.621-3.43-4.621
		c-3.291,0-3.711-0.07-3.711,1.05c0,6.511,0,13.652,0,21.212c0,1.12-0.279,1.12-2.381,1.12c-1.609,0-2.1,0-2.1-0.98
		c0-17.222,0-29.193,0-45.855c0-0.7,0.07-1.47,0.49-1.89c0.561-0.49,1.051-0.28,1.609-0.28c1.471,0,2.521,0,3.99,0
		c2.24,0,5.252,0.56,7.352,2.45c2.1,1.96,2.59,4.83,2.59,7.281c0,2.38,0,3.92,0,6.3c0,1.68,0.07,2.871-0.77,4.411
		c-1.051,1.96-3.291,2.52-3.291,2.8s2.311,0.7,3.361,2.8c0.84,1.68,0.77,2.73,0.77,4.411c0,6.09,0,11.341,0,17.432
		C211.642,111.171,211.151,111.171,209.261,111.171z M207.021,71.897c0-1.61-0.209-2.8-1.469-4.061
		c-0.771-0.77-1.191-1.05-3.711-1.05c-0.631,0-1.26,0-1.541,0.49c-0.209,0.42-0.209,0.77-0.209,1.19c0,5.041,0,8.191,0,13.091
		c0,0.771-0.141,1.541,0.42,1.96c0.42,0.35,0.91,0.28,1.26,0.28c0.77,0,2.59-0.21,3.852-1.54c1.398-1.54,1.398-2.73,1.398-3.71
		C207.021,76.028,207.021,74.417,207.021,71.897z"/>
</g>
<g>
	<path fill="#FFFFFF" d="M18.131,173.338c-3.71,0-9.521,0-10.431,0c-0.77,0-1.54-0.069-1.82-0.49c-0.35-0.56-0.28-1.61-0.28-2.521
		c0-16.801,0-28.353,0-45.084c0-1.05,0.7-0.91,2.1-0.91c1.82,0,2.45,0,2.45,1.05c0,15.332,0,26.112,0,41.234
		c0,0.91-0.14,2.03,0.49,2.521c0.28,0.14,1.05,0.21,1.61,0.21c1.19,0,4.69,0,5.88,0c0.91,0,0.98,0.56,0.98,1.89
		C19.111,172.988,19.042,173.338,18.131,173.338z"/>
	<path fill="#FFFFFF" d="M24.71,173.269c-1.89,0-2.1,0-2.1-0.98c0-17.572,0-30.033,0-46.835c0-0.91,0.42-1.05,2.1-1.05
		c1.89,0,2.38,0.07,2.38,1.12c0,16.732,0,29.123,0,46.625C27.09,173.199,26.95,173.269,24.71,173.269z"/>
	<path fill="#FFFFFF" d="M41.37,172.289c-0.14,0.98-0.91,1.05-2.311,1.05c-1.82,0-2.66,0-2.8-1.19
		c-1.89-15.752-3.64-29.753-5.67-46.975c-0.07-0.84,0.28-0.84,2.24-0.84c2.03,0,2.45,0.21,2.52,1.12
		c1.12,12.251,1.96,21.772,3.011,33.394c0,0.21,0.07,0.699,0.42,0.699c0.42,0,0.49-0.489,0.49-0.77
		c1.189-12.041,2.24-22.262,3.359-33.253c0.141-1.19,0.701-1.12,1.961-1.12c1.96,0,2.66,0.14,2.59,0.91
		C45.081,142.535,43.471,155.277,41.37,172.289z"/>
	<path fill="#FFFFFF" d="M64.399,173.338c-3.01,0-7.49,0-10.5,0c-1.121,0-2.311,0.14-2.801-0.28c-0.561-0.49-0.42-1.54-0.42-2.38
		c0-16.802,0-27.442,0-44.245c0-0.91,0.07-0.98,0.49-1.541c0.42-0.56,0.91-0.56,1.609-0.56c3.852,0,7.771,0,11.621,0
		c0.841,0,0.841,0.84,0.841,2.1c0,1.33,0,1.89-0.91,1.89c-1.89,0-5.671,0-7.001,0c-0.56,0-1.4,0.07-1.609,0.35
		c-0.351,0.49-0.351,0.42-0.351,1.33c0,4.69,0,8.611,0,13.301c0,0.63-0.14,1.4,0.42,1.82c0.49,0.351,0.98,0.28,1.54,0.28
		c1.19,0,2.66,0,3.291,0c0.84,0,0.98,0.56,0.98,2.029c0,1.4-0.07,1.961-0.98,1.961c-0.561,0-1.891,0-3.15,0
		c-0.7,0-1.471,0.07-1.75,0.21c-0.631,0.42-0.49,1.12-0.49,2.03c0,5.601,0,9.451,0,15.051c0,0.91,0,2.24,0.35,2.451
		c0.35,0.21,1.33,0.279,2.1,0.279c1.891,0,4.762,0,6.651,0c0.841,0,0.91,0.42,0.91,1.961
		C65.24,172.918,65.171,173.338,64.399,173.338z"/>
</g>
<g>
	<path fill="#FFFFFF" d="M13.126,212.193c-2.38,2.66-5.741,3.01-7.911,3.01c-0.84,0-1.33,0.49-1.33,1.471c0,4.9,0,11.551,0,17.711
		c0,1.121-0.49,1.121-2.38,1.121c-1.82,0-2.1,0-2.1-0.98c0-17.223,0-29.193,0-45.855c0-0.699,0.07-1.33,0.49-1.75
		c0.56-0.49,1.05-0.42,1.61-0.42c1.541,0,2.661,0,4.201,0c2.38,0,5.25,0.561,7.351,2.451c2.1,1.959,2.59,4.34,2.59,7.28
		c0,3.5,0,5.601,0,9.101C15.646,206.942,15.646,209.251,13.126,212.193z M11.096,196.231c0-1.61-0.21-2.8-1.47-4.061
		c-0.77-0.771-1.68-1.05-3.22-1.05c-0.84,0-1.96,0-2.24,0.49c-0.21,0.42-0.21,0.77-0.21,1.189c0,5.951,0,9.801,0,15.611
		c0,0.771-0.14,1.681,0.49,2.031c0.35,0.209,0.98,0.139,1.61,0.139c0.84,0,2.38-0.139,3.64-1.469c1.4-1.541,1.4-2.24,1.4-3.711
		C11.096,201.971,11.096,199.662,11.096,196.231z"/>
	<path fill="#FFFFFF" d="M22.224,235.435c-1.89,0-2.1,0-2.1-0.98c0-17.572,0-30.033,0-46.834c0-0.91,0.42-1.051,2.1-1.051
		c1.89,0,2.38,0.07,2.38,1.12c0,16.731,0,29.123,0,46.625C24.604,235.365,24.464,235.435,22.224,235.435z"/>
	<path fill="#FFFFFF" d="M46.655,235.505c-1.82,0-2.24-0.141-2.24-1.261c0-8.891,0-15.542,0-24.433c0-2.73,0-7.141-0.49-7.141
		c-0.489,0-0.699,0.77-0.84,1.189c-0.979,3.781-1.539,5.672-2.59,9.312c-0.141,0.49-0.21,1.05-0.98,1.05
		c-0.629,0-0.84-0.56-1.05-0.979c-0.84-3.29-1.399-5.46-2.38-9.241c-0.141-0.49-0.42-1.12-0.98-1.12c-0.42,0-0.35,4.271-0.35,6.931
		c0,8.891,0,15.542,0,24.433c0,1.12-0.42,1.261-2.24,1.261c-1.96,0-2.31-0.141-2.31-1.261c0-17.501,0-30.103,0-46.694
		c0-1.121,0.63-0.98,1.96-0.98c1.54,0,1.82,0.35,2.94,3.85c1.4,4.411,2.45,7.631,3.641,11.342c0.141,0.35,0.42,0.77,0.84,0.77
		c0.35,0,0.7-0.42,0.84-0.77c1.471-4.41,2.17-6.721,3.641-11.342c1.051-3.359,1.19-3.92,2.73-3.92s2.17,0,2.17,1.051
		c0,16.592,0,29.193,0,46.694C48.966,235.365,48.756,235.505,46.655,235.505z"/>
	<path fill="#FFFFFF" d="M68.284,212.193c-2.379,2.66-5.74,3.01-7.91,3.01c-0.84,0-1.33,0.49-1.33,1.471c0,4.9,0,11.551,0,17.711
		c0,1.121-0.49,1.121-2.381,1.121c-1.82,0-2.1,0-2.1-0.98c0-17.223,0-29.193,0-45.855c0-0.699,0.07-1.33,0.49-1.75
		c0.561-0.49,1.05-0.42,1.609-0.42c1.541,0,2.66,0,4.201,0c2.381,0,5.25,0.561,7.351,2.451c2.101,1.959,2.591,4.34,2.591,7.28
		c0,3.5,0,5.601,0,9.101C70.806,206.942,70.806,209.251,68.284,212.193z M66.255,196.231c0-1.61-0.211-2.8-1.471-4.061
		c-0.77-0.771-1.68-1.05-3.221-1.05c-0.84,0-1.959,0-2.24,0.49c-0.209,0.42-0.209,0.77-0.209,1.189c0,5.951,0,9.801,0,15.611
		c0,0.771-0.141,1.681,0.49,2.031c0.35,0.209,0.979,0.139,1.609,0.139c0.84,0,2.381-0.139,3.641-1.469c1.4-1.541,1.4-2.24,1.4-3.711
		C66.255,201.971,66.255,199.662,66.255,196.231z"/>
</g>
<g>
	<path fill="#FFFFFF" d="M-20.965,297.671c-5.461,0-8.121-4.41-8.121-8.121c0-10.57,0-21.982,0-32.623
		c0-3.78,2.66-8.261,8.121-8.261c5.811,0,8.121,5.251,8.121,8.261c0,0.91,0,2.1,0,3.15c0,0.699-1.05,0.77-2.31,0.77
		c-1.4,0-2.38,0.07-2.38-0.77c0-0.98,0-2.311,0-3.291c0-1.539-1.33-3.779-3.43-3.779c-2.17,0-3.57,2.1-3.57,3.71
		c0,9.94,0,22.332,0,32.413c0,1.961,0.98,3.851,3.57,3.851c2.38,0,3.43-1.75,3.43-3.641c0-1.33,0-2.8,0-4.13
		c0-0.561,0.91-0.561,2.17-0.561c1.68,0,2.52-0.14,2.52,0.561c0,1.4,0,2.939,0,4.27C-12.844,293.891-15.225,297.671-20.965,297.671z
		"/>
	<path fill="#FFFFFF" d="M-0.876,297.671c-5.811,0-8.121-4.2-8.121-8.751c0-10.571,0-21.282,0-31.714c0-5.25,3.57-8.54,8.121-8.54
		c4.62,0,8.121,3.64,8.121,8.54c0,10.432,0,21.143,0,31.714C7.245,293.471,5.354,297.671-0.876,297.671z M2.624,257.207
		c0-1.959-1.47-4.199-3.5-4.199c-2.101,0-3.57,2.24-3.57,4.199c0,10.082,0,21.354,0,31.504c0,2.03,0.42,4.271,3.57,4.271
		c2.8,0,3.5-2.311,3.5-4.271C2.624,278.49,2.624,267.359,2.624,257.207z"/>
	<path fill="#FFFFFF" d="M26.984,297.671c-1.05,0-1.96-0.35-2.521-2.73c-2.1-8.891-3.22-13.932-5.46-22.612
		c-0.49-1.82-1.05-5.11-1.47-5.11s-0.49,0.84-0.49,1.26c0,9.661,0,17.712,0,27.934c0,1.119-0.35,1.26-2.24,1.26
		c-2.03,0-2.31-0.141-2.31-1.26c0-17.502,0-30.453,0-47.045c0-0.7,0.49-0.7,1.75-0.7c1.96,0,2.45,0.42,3.15,3.08
		c2.17,8.681,3.57,14.421,5.741,23.103c0.14,0.63,0.42,1.68,0.77,1.68s0.42-0.84,0.42-1.26c0-8.82,0-16.102,0-25.343
		c0-1.12,0.35-1.26,2.38-1.26c1.61,0,2.03,0.069,2.03,1.05c0,16.802,0,28.213,0,45.085
		C28.734,297.322,28.664,297.671,26.984,297.671z"/>
	<path fill="#FFFFFF" d="M47.214,252.657c-0.841,0-1.82-0.07-3.011,0c-0.56,0-1.12,0-1.47,0.14c-0.631,0.49-0.49,1.681-0.49,2.591
		c0,15.472,0,26.253,0,41.584c0,0.63-1.051,0.7-2.521,0.7c-1.261,0-2.171,0-2.171-0.7c0-15.331,0-26.183,0-41.584
		c0-0.91,0.141-2.101-0.489-2.591c-0.351-0.14-0.91-0.14-1.47-0.14c-0.98,0-1.96,0-2.59,0c-1.05,0-1.26-0.351-1.26-1.89
		c0-1.541,0.14-2.101,0.98-2.101c4.41,0,10.012,0,14.422,0c0.84,0,0.91,0.7,0.91,2.101
		C48.054,252.376,47.983,252.657,47.214,252.657z"/>
	<path fill="#FFFFFF" d="M61.493,297.671c-2.029,0-2.38,0.141-2.52-0.84c-0.561-3.921-0.98-7.421-1.54-11.271
		c-0.07-0.7-1.05-0.63-2.171-0.63c-1.33,0-2.029-0.07-2.1,0.63c-0.42,3.92-0.771,7.351-1.12,11.411c-0.07,0.771-0.7,0.7-2.94,0.7
		c-1.051,0-1.961,0-1.891-0.63c2.17-18.202,4.061-31.644,6.021-47.396c0.14-0.979,0.49-1.05,2.029-1.05
		c1.75,0,2.311,0.07,2.381,1.261c2.38,17.922,3.641,28.842,6.021,47.114C63.733,297.742,63.384,297.671,61.493,297.671z
		 M55.753,265.119c0-0.281-0.07-0.771-0.49-0.771c-0.35,0-0.42,0.489-0.42,0.7c-0.42,5.881-0.699,10.781-1.05,15.401
		c-0.069,0.489,0.56,0.63,1.54,0.63c0.84,0,1.61,0,1.54-0.561C56.384,274.5,56.173,270.648,55.753,265.119z"/>
	<path fill="#FFFFFF" d="M74.583,297.671c-5.461,0-8.121-4.41-8.121-8.121c0-10.57,0-21.982,0-32.623c0-3.78,2.66-8.261,8.121-8.261
		c5.811,0,8.121,5.251,8.121,8.261c0,0.91,0,2.1,0,3.15c0,0.699-1.05,0.77-2.311,0.77c-1.4,0-2.38,0.07-2.38-0.77
		c0-0.98,0-2.311,0-3.291c0-1.539-1.33-3.779-3.431-3.779c-2.17,0-3.57,2.1-3.57,3.71c0,9.94,0,22.332,0,32.413
		c0,1.961,0.98,3.851,3.57,3.851c2.381,0,3.431-1.75,3.431-3.641c0-1.33,0-2.8,0-4.13c0-0.561,0.91-0.561,2.171-0.561
		c1.68,0,2.52-0.14,2.52,0.561c0,1.4,0,2.939,0,4.27C82.704,293.891,80.323,297.671,74.583,297.671z"/>
	<path fill="#FFFFFF" d="M99.573,252.657c-0.84,0-1.82-0.07-3.01,0c-0.561,0-1.12,0-1.471,0.14c-0.629,0.49-0.49,1.681-0.49,2.591
		c0,15.472,0,26.253,0,41.584c0,0.63-1.049,0.7-2.52,0.7c-1.26,0-2.17,0-2.17-0.7c0-15.331,0-26.183,0-41.584
		c0-0.91,0.14-2.101-0.49-2.591c-0.35-0.14-0.91-0.14-1.471-0.14c-0.979,0-1.96,0-2.59,0c-1.051,0-1.26-0.351-1.26-1.89
		c0-1.541,0.14-2.101,0.979-2.101c4.411,0,10.011,0,14.422,0c0.84,0,0.91,0.7,0.91,2.101
		C100.414,252.376,100.344,252.657,99.573,252.657z"/>
</g>
</svg>
