<?xml version="1.0" encoding="utf-8"?>
<!-- Generator: Adobe Illustrator 16.0.0, SVG Export Plug-In . SVG Version: 6.00 Build 0)  -->
<!DOCTYPE svg PUBLIC "-//W3C//DTD SVG 1.1//EN" "http://www.w3.org/Graphics/SVG/1.1/DTD/svg11.dtd">
<svg version="1.1" id="Layer_1" xmlns="http://www.w3.org/2000/svg" xmlns:xlink="http://www.w3.org/1999/xlink" x="0px" y="0px"
	 width="129.5px" height="49.08px" viewBox="0 0 129.5 49.08" enable-background="new 0 0 129.5 49.08" xml:space="preserve">
<g>
	<path fill="#FFFFFF" d="M8.12,49.08C2.66,49.08,0,44.67,0,40.95C0,30.38,0,18.97,0,8.33c0-3.78,2.66-8.26,8.12-8.26
		c5.81,0,8.12,5.25,8.12,8.26c0,0.91,0,2.1,0,3.15c0,0.7-1.05,0.77-2.31,0.77c-1.4,0-2.38,0.07-2.38-0.77c0-0.98,0-2.31,0-3.29
		c0-1.54-1.33-3.78-3.43-3.78c-2.17,0-3.57,2.1-3.57,3.71c0,9.94,0,22.33,0,32.41c0,1.96,0.98,3.85,3.57,3.85
		c2.38,0,3.43-1.75,3.43-3.64c0-1.33,0-2.8,0-4.13c0-0.56,0.91-0.56,2.17-0.56c1.68,0,2.52-0.14,2.52,0.56c0,1.4,0,2.94,0,4.27
		C16.24,45.29,13.86,49.08,8.12,49.08z"/>
	<path fill="#FFFFFF" d="M28.21,49.08c-5.81,0-8.12-4.2-8.12-8.75c0-10.57,0-21.28,0-31.71c0-5.25,3.57-8.54,8.12-8.54
		c4.62,0,8.12,3.64,8.12,8.54c0,10.43,0,21.14,0,31.71C36.33,44.88,34.44,49.08,28.21,49.08z M31.71,8.61c0-1.96-1.47-4.2-3.5-4.2
		c-2.1,0-3.57,2.24-3.57,4.2c0,10.08,0,21.35,0,31.5c0,2.03,0.42,4.27,3.57,4.27c2.8,0,3.5-2.31,3.5-4.27
		C31.71,29.89,31.71,18.76,31.71,8.61z"/>
	<path fill="#FFFFFF" d="M56.07,49.08c-1.05,0-1.96-0.35-2.52-2.73c-2.1-8.89-3.22-13.93-5.46-22.61c-0.49-1.82-1.05-5.11-1.47-5.11
		s-0.49,0.84-0.49,1.26c0,9.66,0,17.71,0,27.93c0,1.12-0.35,1.26-2.24,1.26c-2.03,0-2.31-0.14-2.31-1.26c0-17.5,0-30.45,0-47.04
		c0-0.7,0.49-0.7,1.75-0.7c1.96,0,2.45,0.42,3.15,3.08c2.17,8.68,3.57,14.42,5.74,23.1c0.14,0.63,0.42,1.68,0.77,1.68
		c0.35,0,0.42-0.84,0.42-1.26c0-8.82,0-16.1,0-25.34c0-1.12,0.35-1.26,2.38-1.26c1.61,0,2.03,0.07,2.03,1.05c0,16.8,0,28.21,0,45.08
		C57.82,48.73,57.75,49.08,56.07,49.08z"/>
	<path fill="#FFFFFF" d="M76.3,4.06c-0.84,0-1.82-0.07-3.01,0c-0.56,0-1.12,0-1.47,0.14c-0.63,0.49-0.49,1.68-0.49,2.59
		c0,15.47,0,26.25,0,41.58c0,0.63-1.05,0.7-2.52,0.7c-1.26,0-2.17,0-2.17-0.7c0-15.33,0-26.18,0-41.58c0-0.91,0.14-2.1-0.49-2.59
		c-0.35-0.14-0.91-0.14-1.47-0.14c-0.98,0-1.96,0-2.59,0c-1.05,0-1.26-0.35-1.26-1.89c0-1.54,0.14-2.1,0.98-2.1
		c4.41,0,10.01,0,14.42,0c0.84,0,0.91,0.7,0.91,2.1C77.14,3.78,77.07,4.06,76.3,4.06z"/>
	<path fill="#FFFFFF" d="M90.58,49.08c-2.03,0-2.38,0.14-2.52-0.84c-0.56-3.92-0.98-7.42-1.54-11.27c-0.07-0.7-1.05-0.63-2.17-0.63
		c-1.33,0-2.03-0.07-2.1,0.63c-0.42,3.92-0.77,7.35-1.12,11.41c-0.07,0.77-0.7,0.7-2.94,0.7c-1.05,0-1.96,0-1.89-0.63
		c2.17-18.2,4.06-31.64,6.02-47.4C82.46,0.07,82.81,0,84.35,0c1.75,0,2.31,0.07,2.38,1.26c2.38,17.92,3.64,28.84,6.02,47.11
		C92.82,49.15,92.47,49.08,90.58,49.08z M84.84,16.52c0-0.28-0.07-0.77-0.49-0.77c-0.35,0-0.42,0.49-0.42,0.7
		c-0.42,5.88-0.7,10.78-1.05,15.4c-0.07,0.49,0.56,0.63,1.54,0.63c0.84,0,1.61,0,1.54-0.56C85.47,25.9,85.26,22.05,84.84,16.52z"/>
	<path fill="#FFFFFF" d="M103.67,49.08c-5.46,0-8.12-4.41-8.12-8.12c0-10.57,0-21.98,0-32.62c0-3.78,2.66-8.26,8.12-8.26
		c5.81,0,8.12,5.25,8.12,8.26c0,0.91,0,2.1,0,3.15c0,0.7-1.05,0.77-2.31,0.77c-1.4,0-2.38,0.07-2.38-0.77c0-0.98,0-2.31,0-3.29
		c0-1.54-1.33-3.78-3.43-3.78c-2.17,0-3.57,2.1-3.57,3.71c0,9.94,0,22.33,0,32.41c0,1.96,0.98,3.85,3.57,3.85
		c2.38,0,3.43-1.75,3.43-3.64c0-1.33,0-2.8,0-4.13c0-0.56,0.91-0.56,2.17-0.56c1.68,0,2.52-0.14,2.52,0.56c0,1.4,0,2.94,0,4.27
		C111.79,45.29,109.41,49.08,103.67,49.08z"/>
	<path fill="#FFFFFF" d="M128.66,4.06c-0.84,0-1.82-0.07-3.01,0c-0.56,0-1.12,0-1.47,0.14c-0.63,0.49-0.49,1.68-0.49,2.59
		c0,15.47,0,26.25,0,41.58c0,0.63-1.05,0.7-2.52,0.7c-1.26,0-2.17,0-2.17-0.7c0-15.33,0-26.18,0-41.58c0-0.91,0.14-2.1-0.49-2.59
		c-0.35-0.14-0.91-0.14-1.47-0.14c-0.98,0-1.96,0-2.59,0c-1.05,0-1.26-0.35-1.26-1.89c0-1.54,0.14-2.1,0.98-2.1
		c4.41,0,10.01,0,14.42,0c0.84,0,0.91,0.7,0.91,2.1C129.5,3.78,129.43,4.06,128.66,4.06z"/>
</g>
</svg>
