<?xml version="1.0" encoding="utf-8"?>
<!-- Generator: Adobe Illustrator 16.0.0, SVG Export Plug-In . SVG Version: 6.00 Build 0)  -->
<!DOCTYPE svg PUBLIC "-//W3C//DTD SVG 1.1//EN" "http://www.w3.org/Graphics/SVG/1.1/DTD/svg11.dtd">
<svg version="1.1" id="Layer_1" xmlns="http://www.w3.org/2000/svg" xmlns:xlink="http://www.w3.org/1999/xlink" x="0px" y="0px"
	 width="269.3px" height="269.299px" viewBox="5.67 5.66 269.3 269.299" enable-background="new 5.67 5.66 269.3 269.299"
	 xml:space="preserve">
<g id="Layer_4">
</g>
<g id="Graphic">
	<g id="Layer_4_copy">
	</g>
	<g>
		<path fill="#FFFFFF" d="M113.25,103.2c-2.11,2.36-5.08,2.67-6.51,2.67c-1.43,0-2.42,0-3.84,0c-0.62,0-1.18,0.06-1.49-0.43
			c-0.31-0.43-0.31-1.12-0.31-1.55c0-15.25,0-24.61,0-39.49c0-0.62,0-1.24,0.37-1.61c0.5-0.43,0.99-0.31,1.49-0.31
			c1.36,0,2.35,0,3.72,0c1.98,0,4.65,0.5,6.51,2.17c1.86,1.74,2.29,4.22,2.29,6.45c0,9.79,0,16.31,0,26.04
			C115.49,98.61,115.49,100.59,113.25,103.2z M111.46,71.08c0-1.36-0.19-2.48-1.3-3.6c-0.68-0.68-1.18-0.93-2.85-0.93
			c-1.12,0-1.74,0-1.98,0.43c-0.19,0.37-0.19,0.68-0.19,1.05c0,12.21,0,19.96,0,31.8c0,0.68-0.06,1.36,0.37,1.8
			c0.25,0.25,1.18,0.19,1.43,0.19c0.68,0,2.17-0.19,3.29-1.36c1.24-1.36,1.24-2.36,1.24-3.29
			C111.46,87.57,111.46,80.75,111.46,71.08z"/>
		<path fill="#FFFFFF" d="M132.29,105.86c-1.43,0-1.86,0.06-1.86-0.87c0-5.52,0-10.79,0-15.75c0-2.54-1.67-4.09-3.04-4.09
			c-2.91,0-3.29-0.06-3.29,0.93c0,5.77,0,12.09,0,18.79c0,0.99-0.25,0.99-2.11,0.99c-1.43,0-1.86,0-1.86-0.87
			c0-15.25,0-25.85,0-40.61c0-0.62,0.06-1.3,0.44-1.67c0.5-0.43,0.93-0.25,1.43-0.25c1.3,0,2.23,0,3.53,0c1.98,0,4.65,0.5,6.51,2.17
			c1.86,1.74,2.29,4.28,2.29,6.45c0,2.11,0,3.47,0,5.58c0,1.49,0.06,2.54-0.68,3.91c-0.93,1.74-2.91,2.23-2.91,2.48
			s2.05,0.62,2.98,2.48c0.74,1.49,0.68,2.42,0.68,3.91c0,5.39,0,10.04,0,15.44C134.4,105.86,133.96,105.86,132.29,105.86z
			 M130.3,71.08c0-1.43-0.19-2.48-1.3-3.6c-0.68-0.68-1.06-0.93-3.29-0.93c-0.56,0-1.11,0-1.36,0.43c-0.19,0.37-0.19,0.68-0.19,1.05
			c0,4.46,0,7.25,0,11.59c0,0.68-0.13,1.36,0.37,1.74c0.37,0.31,0.81,0.25,1.11,0.25c0.68,0,2.29-0.19,3.41-1.36
			c1.24-1.36,1.24-2.42,1.24-3.29C130.3,74.74,130.3,73.31,130.3,71.08z"/>
		<path fill="#FFFFFF" d="M141.03,105.8c-1.67,0-1.86,0-1.86-0.87c0-15.56,0-26.6,0-41.48c0-0.81,0.37-0.93,1.86-0.93
			c1.67,0,2.11,0.06,2.11,0.99c0,14.82,0,25.79,0,41.29C143.14,105.74,143.01,105.8,141.03,105.8z"/>
		<path fill="#FFFFFF" d="M160.93,105.86c-0.93,0-1.74-0.31-2.23-2.42c-1.859-7.87-2.85-12.34-4.84-20.02
			c-0.43-1.61-0.93-4.52-1.3-4.52s-0.431,0.74-0.431,1.12c0,8.56,0,15.68,0,24.74c0,0.99-0.31,1.12-1.979,1.12
			c-1.8,0-2.04-0.12-2.04-1.12c0-15.5,0-26.97,0-41.66c0-0.62,0.43-0.62,1.551-0.62c1.739,0,2.17,0.37,2.789,2.73
			c1.92,7.69,3.16,12.77,5.08,20.46c0.12,0.56,0.37,1.49,0.68,1.49c0.311,0,0.371-0.74,0.371-1.12c0-7.81,0-14.26,0-22.44
			c0-0.99,0.31-1.12,2.109-1.12c1.43,0,1.801,0.06,1.801,0.93c0,14.88,0,24.98,0,39.93C162.48,105.55,162.42,105.86,160.93,105.86z"
			/>
		<path fill="#FFFFFF" d="M179.72,105.86c-1.24,0-1.921,0.12-2.171-0.87c-1.67-6.7-2.729-10.79-4.34-17.479
			c-0.129-0.56-0.56-0.68-1.299,0.99c-0.371,0.87-0.5,1.67-0.5,2.6c0,4.71,0,8.93,0,13.64c0,0.99-0.25,1.12-2.051,1.12
			c-1.609,0-1.92-0.12-1.92-0.99c0-15.56,0-26.6,0-41.48c0-0.81,0.5-0.87,1.859-0.87c1.431,0,2.111,0,2.111,0.93
			c0,5.08,0,10.04,0,15c0,0.43-0.061,1.36,0.31,1.24c0.19-0.06,0.31-0.74,0.43-1.18c1.74-5.95,2.54-9.18,4.28-15.19
			c0.189-0.68,0.619-0.62,2.23-0.62c1.609,0,2.17,0.25,2.049,0.62c-1.859,6.63-2.729,9.55-4.529,15.81
			c-0.189,0.74-0.25,1.43-0.25,2.05c0,0.56,0.119,1.43,0.25,2.23c2.17,8.62,3.29,12.52,5.58,21.7
			C181.82,105.49,181.64,105.86,179.72,105.86z"/>
		<path fill="#FFFFFF" d="M101.51,155.86c-1.8,0-2.11,0.12-2.23-0.74c-0.5-3.47-0.87-6.57-1.36-9.979
			c-0.06-0.62-0.93-0.56-1.92-0.56c-1.18,0-1.8-0.061-1.86,0.56c-0.37,3.47-0.68,6.51-0.99,10.1c-0.06,0.681-0.62,0.62-2.6,0.62
			c-0.93,0-1.74,0-1.67-0.561c1.92-16.119,3.6-28.02,5.33-41.969c0.13-0.87,0.44-0.93,1.8-0.93c1.55,0,2.04,0.06,2.11,1.12
			c2.11,15.87,3.22,25.54,5.33,41.72C103.49,155.92,103.18,155.86,101.51,155.86z M96.42,127.04c0-0.25-0.06-0.68-0.43-0.68
			c-0.31,0-0.37,0.43-0.37,0.62c-0.37,5.21-0.62,9.55-0.93,13.64c-0.06,0.429,0.5,0.56,1.36,0.56c0.74,0,1.43,0,1.36-0.5
			C96.98,135.34,96.79,131.93,96.42,127.04z"/>
		<path fill="#FFFFFF" d="M117.63,155.86c-3.29,0-8.43,0-9.24,0c-0.68,0-1.36-0.061-1.61-0.43c-0.31-0.5-0.25-1.43-0.25-2.23
			c0-14.88,0-25.11,0-39.93c0-0.93,0.62-0.81,1.86-0.81c1.61,0,2.17,0,2.17,0.93c0,13.58,0,23.13,0,36.521
			c0,0.81-0.12,1.799,0.44,2.229c0.25,0.13,0.93,0.19,1.43,0.19c1.05,0,4.15,0,5.21,0c0.81,0,0.87,0.5,0.87,1.67
			C118.49,155.549,118.43,155.86,117.63,155.86z"/>
		<path fill="#FFFFFF" d="M132.69,155.86c-3.29,0-8.43,0-9.24,0c-0.68,0-1.36-0.061-1.61-0.43c-0.31-0.5-0.25-1.43-0.25-2.23
			c0-14.88,0-25.11,0-39.93c0-0.93,0.62-0.81,1.86-0.81c1.61,0,2.17,0,2.17,0.93c0,13.58,0,23.13,0,36.521
			c0,0.81-0.12,1.799,0.43,2.229c0.25,0.13,0.93,0.19,1.43,0.19c1.06,0,4.15,0,5.21,0c0.81,0,0.87,0.5,0.87,1.67
			C133.56,155.549,133.5,155.86,132.69,155.86z"/>
		<path fill="#FFFFFF" d="M155.82,116c-0.739,0-1.61-0.06-2.67,0c-0.5,0-0.989,0-1.3,0.12c-0.561,0.43-0.43,1.49-0.43,2.29
			c0,13.7,0,23.25,0,36.83c0,0.56-0.93,0.62-2.23,0.62c-1.12,0-1.92,0-1.92-0.62c0-13.579,0-23.19,0-36.83
			c0-0.81,0.12-1.86-0.439-2.29C146.52,116,146.03,116,145.53,116c-0.869,0-1.74,0-2.289,0c-0.931,0-1.121-0.31-1.121-1.67
			s0.121-1.86,0.871-1.86c3.909,0,8.869,0,12.77,0c0.74,0,0.81,0.62,0.81,1.86C156.56,115.75,156.5,116,155.82,116z"/>
		<path fill="#FFFFFF" d="M171.629,155.799c-1.859,0-2.039-0.06-2.039-1.239c0-5.89,0-11.04,0-16.92c0-0.74,0.06-1.98-0.37-2.11
			c-0.681-0.37-5.33-0.12-5.58,0.06c-0.56,0.37-0.44,1.43-0.44,2.23c0,6.011,0,10.97,0,16.99c0,0.989-0.369,0.989-2.109,0.989
			c-1.61,0-1.86,0-1.86-0.869c0-15.56,0-26.41,0-41.29c0-0.81,0.25-1.12,1.86-1.12c1.74,0,2.17,0.25,2.17,1.18
			c0,5.08,0,9.61,0,14.63c0,1.05-0.19,2.29,0.74,2.79c0.5,0.19,4.52,0.37,5.149,0c0.56-0.37,0.431-1.67,0.431-2.6
			c0-5.21,0-10.6,0-15.06c0-1.12,0.5-0.93,1.979-0.93c1.729,0,2.04,0,2.04,0.99c0,14.69,0,25.73,0,41.04
			C173.61,155.68,173.67,155.799,171.629,155.799z"/>
		<path fill="#FFFFFF" d="M190.72,155.86c-2.671,0-6.64,0-9.3,0c-0.99,0-2.051,0.12-2.48-0.25c-0.5-0.43-0.37-1.359-0.37-2.109
			c0-14.88,0-24.3,0-39.181c0-0.81,0.06-0.87,0.44-1.36c0.369-0.5,0.8-0.5,1.43-0.5c3.41,0,6.88,0,10.29,0
			c0.74,0,0.74,0.74,0.74,1.86c0,1.18,0,1.67-0.81,1.67c-1.67,0-5.021,0-6.201,0c-0.5,0-1.239,0.06-1.43,0.31
			c-0.31,0.43-0.31,0.37-0.31,1.18c0,4.15,0,7.63,0,11.78c0,0.56-0.12,1.24,0.37,1.61c0.43,0.31,0.869,0.25,1.359,0.25
			c1.061,0,2.35,0,2.91,0c0.74,0,0.87,0.5,0.87,1.8c0,1.24-0.06,1.74-0.87,1.74c-0.5,0-1.67,0-2.79,0c-0.62,0-1.3,0.06-1.55,0.19
			c-0.561,0.37-0.43,0.99-0.43,1.8c0,4.96,0,8.37,0,13.33c0,0.81,0,1.979,0.31,2.17s1.181,0.25,1.86,0.25c1.67,0,4.21,0,5.89,0
			c0.74,0,0.81,0.37,0.81,1.74S191.4,155.86,190.72,155.86z"/>
		<path fill="#FFFFFF" d="M101.19,205.86c-1.61,0-1.98-0.13-1.98-1.12c0-7.87,0-13.76,0-21.64c0-2.42,0-6.32-0.43-6.32
			c-0.43,0-0.62,0.68-0.74,1.051c-0.87,3.35-1.36,5.02-2.29,8.25c-0.13,0.43-0.19,0.93-0.87,0.93c-0.56,0-0.74-0.5-0.93-0.87
			c-0.74-2.91-1.24-4.841-2.11-8.181c-0.12-0.43-0.37-0.989-0.87-0.989c-0.37,0-0.31,3.78-0.31,6.14c0,7.88,0,13.76,0,21.641
			c0,0.989-0.37,1.119-1.98,1.119c-1.73,0-2.04-0.13-2.04-1.119c0-15.5,0-26.66,0-41.351c0-0.989,0.56-0.87,1.73-0.87
			c1.36,0,1.61,0.311,2.6,3.41c1.24,3.91,2.17,6.76,3.22,10.04c0.13,0.31,0.37,0.681,0.74,0.681c0.31,0,0.62-0.371,0.74-0.681
			c1.3-3.91,1.92-5.95,3.22-10.04c0.93-2.98,1.05-3.47,2.42-3.47c1.36,0,1.92,0,1.92,0.93c0,14.69,0,25.851,0,41.351
			C103.24,205.74,103.06,205.86,101.19,205.86z"/>
		<path fill="#FFFFFF" d="M110.06,205.799c-1.67,0-1.86,0-1.86-0.869c0-15.561,0-26.6,0-41.48c0-0.81,0.37-0.93,1.86-0.93
			c1.67,0,2.11,0.061,2.11,0.99c0,14.82,0,25.79,0,41.29C112.17,205.74,112.04,205.799,110.06,205.799z"/>
		<path fill="#FFFFFF" d="M129.96,205.86c-0.93,0-1.74-0.311-2.23-2.42c-1.86-7.87-2.85-12.34-4.84-20.02
			c-0.43-1.61-0.93-4.521-1.3-4.521c-0.37,0-0.43,0.74-0.43,1.12c0,8.561,0,15.689,0,24.74c0,0.99-0.31,1.119-1.98,1.119
			c-1.8,0-2.05-0.129-2.05-1.119c0-15.5,0-26.971,0-41.66c0-0.62,0.44-0.62,1.55-0.62c1.74,0,2.17,0.37,2.79,2.729
			c1.92,7.69,3.16,12.771,5.08,20.461c0.13,0.56,0.37,1.49,0.68,1.49s0.37-0.74,0.37-1.121c0-7.81,0-14.26,0-22.439
			c0-0.99,0.31-1.12,2.11-1.12c1.43,0,1.8,0.06,1.8,0.931c0,14.879,0,24.979,0,39.93C131.51,205.549,131.45,205.86,129.96,205.86z"
			/>
		<path fill="#FFFFFF" d="M138.33,205.799c-1.67,0-1.86,0-1.86-0.869c0-15.561,0-26.6,0-41.48c0-0.81,0.37-0.93,1.86-0.93
			c1.67,0,2.11,0.061,2.11,0.99c0,14.82,0,25.79,0,41.29C140.44,205.74,140.32,205.799,138.33,205.799z"/>
		<path fill="#FFFFFF" d="M157.549,203.2c-2.109,2.36-5.02,2.67-6.51,2.67c-1.109,0-1.92,0.061-3.039,0
			c-0.74-0.06-1.86,0.061-2.11-0.31c-0.37-0.56-0.5-0.431-0.5-2.11c0-14.63,0-24.3,0-39.06c0-0.62,0-1.181,0.37-1.55
			c0.5-0.44,0.99-0.37,1.49-0.37c1.299,0,2.229,0,3.529,0c1.92,0,4.65,0.5,6.51,2.17c1.86,1.739,2.291,4.22,2.291,6.45
			c0,2.109,0,3.47,0,5.58c0,1.49,0.06,2.539-0.681,3.91c-0.93,1.739-2.851,2.229-2.851,2.479s2.111,0.62,3.041,2.479
			c0.74,1.49,0.68,2.42,0.68,3.91c0,2.91,0,4.771,0,7.69C159.79,198.67,159.79,200.59,157.549,203.2z M155.57,171.081
			c0-1.431-0.19-2.48-1.3-3.601c-0.68-0.681-1.12-0.931-2.85-0.931c-0.871,0-1.551,0-1.801,0.431
			c-0.189,0.37-0.189,0.681-0.189,1.06c0,4.461,0,7.25,0,11.59c0,0.681-0.061,1.24,0.369,1.67c0.371,0.371,0.621,0.311,1.121,0.311
			c0.869,0,2.289-0.189,3.41-1.37c1.239-1.36,1.239-2.29,1.239-3.29C155.57,174.74,155.57,173.31,155.57,171.081z M155.82,189.25
			c0-2.851-1.67-4.09-3.53-4.09c-2.67,0-2.85,0.189-2.85,1.67c0,3.84,0,8.119,0,13.02c0,0.68,0.061,1.859,0.62,1.92
			c0.5,0.061,0.56,0.061,1.12,0.061c0.68,0,2.23-0.19,3.35-1.371c1.24-1.359,1.301-2.229,1.301-3.289
			C155.82,194.209,155.82,192.1,155.82,189.25z"/>
		<path fill="#FFFFFF" d="M174.911,205.86c-1.801,0-2.111,0.12-2.23-0.74c-0.5-3.47-0.87-6.57-1.36-9.979
			c-0.06-0.62-0.93-0.56-1.92-0.56c-1.18,0-1.8-0.061-1.86,0.56c-0.369,3.47-0.68,6.51-0.99,10.1c-0.059,0.681-0.619,0.62-2.6,0.62
			c-0.93,0-1.74,0-1.67-0.561c1.92-16.119,3.6-28.02,5.33-41.969c0.131-0.871,0.439-0.931,1.801-0.931
			c1.549,0,2.049,0.06,2.109,1.12c2.109,15.87,3.23,25.54,5.33,41.72C176.9,205.92,176.59,205.86,174.911,205.86z M169.831,177.04
			c0-0.25-0.061-0.68-0.431-0.68c-0.31,0-0.37,0.439-0.37,0.62c-0.369,5.21-0.619,9.55-0.93,13.64c-0.061,0.43,0.5,0.561,1.37,0.561
			c0.739,0,1.43,0,1.36-0.5C170.39,185.34,170.2,181.93,169.831,177.04z"/>
		<path fill="#FFFFFF" d="M192.081,205.86c-1.431,0-1.86,0.061-1.86-0.87c0-5.52,0-10.79,0-15.75c0-2.54-1.671-4.09-3.04-4.09
			c-2.91,0-3.29-0.06-3.29,0.931c0,5.77,0,12.09,0,18.789c0,0.99-0.25,0.99-2.11,0.99c-1.43,0-1.859,0-1.859-0.87
			c0-15.25,0-25.85,0-40.61c0-0.619,0.06-1.299,0.43-1.67c0.5-0.43,0.93-0.25,1.43-0.25c1.301,0,2.23,0,3.54,0
			c1.979,0,4.65,0.5,6.511,2.17c1.859,1.74,2.289,4.281,2.289,6.451c0,2.109,0,3.469,0,5.58c0,1.489,0.061,2.539-0.68,3.909
			c-0.93,1.74-2.91,2.229-2.91,2.479s2.04,0.621,2.98,2.48c0.74,1.49,0.68,2.42,0.68,3.91c0,5.4,0,10.04,0,15.439
			C194.19,205.86,193.76,205.86,192.081,205.86z M190.1,171.081c0-1.431-0.189-2.48-1.301-3.601
			c-0.68-0.681-1.049-0.931-3.279-0.931c-0.561,0-1.12,0-1.37,0.431c-0.19,0.37-0.19,0.681-0.19,1.06c0,4.461,0,7.25,0,11.59
			c0,0.681-0.119,1.36,0.371,1.74c0.369,0.311,0.81,0.25,1.119,0.25c0.68,0,2.291-0.189,3.41-1.369c1.24-1.36,1.24-2.42,1.24-3.28
			C190.1,174.74,190.1,173.31,190.1,171.081z"/>
	</g>
	<g>
		<path fill="#FFFFFF" d="M146.27,227.35v-1.801h-11.9v1.801h5.05v4.48c-0.52,0.049-1.01,0.18-1.48,0.369
			c-0.63,0.26-1.17,0.631-1.64,1.1c-0.47,0.471-0.84,1.021-1.12,1.66c-0.28,0.641-0.42,1.32-0.42,2.041v19.049
			c0,0.721,0.14,1.4,0.42,2.021c0.28,0.63,0.65,1.17,1.12,1.65c0.47,0.47,1.02,0.84,1.64,1.12c0.63,0.279,1.3,0.42,2.02,0.42h0.72
			c0.72,0,1.4-0.141,2.04-0.42c0.64-0.28,1.19-0.65,1.659-1.12c0.471-0.47,0.83-1.021,1.101-1.65c0.271-0.62,0.399-1.3,0.399-2.021
			v-5.699h-1.799H144v5.699c0,0.94-0.32,1.74-0.961,2.4c-0.64,0.66-1.43,0.99-2.359,0.99h-0.72c-0.46,0-0.9-0.09-1.32-0.27
			c-0.42-0.181-0.78-0.42-1.08-0.721c-0.3-0.3-0.54-0.66-0.72-1.08c-0.18-0.42-0.27-0.859-0.27-1.32V237c0-0.48,0.09-0.92,0.27-1.33
			c0.18-0.41,0.42-0.771,0.72-1.061c0.3-0.3,0.66-0.54,1.08-0.72c0.25-0.11,0.51-0.17,0.77-0.22v20.74h1.799v-20.74
			c0.281,0.039,0.541,0.109,0.791,0.22c0.41,0.18,0.77,0.42,1.069,0.72c0.3,0.301,0.54,0.65,0.72,1.061
			c0.181,0.41,0.271,0.85,0.271,1.33v4.539h1.8V237c0-0.721-0.13-1.4-0.4-2.041c-0.27-0.64-0.629-1.189-1.1-1.66
			c-0.47-0.469-1.02-0.829-1.66-1.1c-0.47-0.189-0.979-0.32-1.5-0.369v-4.48H146.27z"/>
	</g>
	<g>
		<path fill="#FFFFFF" d="M88,246.65l-0.78-0.41l6.6-12.569l-5.56-2.92l0.37-0.711l6.34,3.33L88,246.65z"/>
		<path fill="#FFFFFF" d="M79.56,242.04l-0.76-0.459l7.72-12.86l0.76,0.46L79.56,242.04z"/>
		<path fill="#FFFFFF" d="M82.03,230.51c1.09-1.57,0.9-3.48-0.88-4.711c-1.71-1.18-3.7-0.739-4.78,0.83
			c-1.11,1.61-0.63,2.761,0.42,4.19l1.06,1.45c1.24,1.67,1.58,3.08,0.42,4.75c-1.37,1.99-3.58,2.27-5.52,0.939
			c-2.28-1.569-2.41-3.569-0.99-5.629l0.73,0.5c-1.15,1.659-1.15,3.289,0.6,4.5c1.38,0.949,3.09,1.189,4.41-0.73
			c0.94-1.36,0.65-2.53-0.17-3.641l-1.39-1.899c-1.21-1.649-1.59-3.06-0.33-4.88c1.51-2.2,4-2.32,5.95-0.971
			c2.85,1.971,2.14,4.44,1.32,5.631l-0.56,0.81l-0.73-0.5L82.03,230.51z"/>
		<path fill="#FFFFFF" d="M65.31,231.02l3.07,2.55l-0.51,0.61l-6.81-5.67l0.51-0.61l3.07,2.55l9.08-10.91l0.68,0.561L65.31,231.02z"
			/>
		<path fill="#FFFFFF" d="M59.38,226.93l-5.1-5.03l0.56-0.569l4.47,4.409l4.2-4.26l-4.17-4.11l0.56-0.57l4.17,4.111l4.65-4.711
			l-4.61-4.539l0.56-0.57l5.23,5.16L59.38,226.93z"/>
		<path fill="#FFFFFF" d="M51.66,219.01l6.22-13.75l-0.03-0.03l-10.42,8.75l-0.57-0.681l11.48-9.639l0.74,0.879l-6.2,13.771
			l0.03,0.03l10.42-8.75l0.57,0.67l-11.48,9.65L51.66,219.01z"/>
		<path fill="#FFFFFF" d="M41.27,203.879l2.14,3.371l-0.67,0.43l-4.75-7.48l0.67-0.43l2.14,3.37l11.98-7.62l0.47,0.74L41.27,203.879
			z"/>
		<path fill="#FFFFFF" d="M39.27,186.5c5.85-3,8.13-1.121,9.1,0.77c1.31,2.561,0.49,5.2-4.69,7.85c-5.18,2.65-7.85,1.66-9.11-0.789
			C33.21,191.68,34.09,189.15,39.27,186.5z M43.28,194.331c3.66-1.881,5.88-3.951,4.45-6.74c-1.25-2.45-3.82-2.48-8.06-0.311
			c-3.61,1.85-5.85,4.01-4.46,6.721C36.55,196.629,39.61,196.209,43.28,194.331z"/>
		<path fill="#FFFFFF" d="M29.4,179.75l1.33,3.76l-0.75,0.27l-2.95-8.359l0.75-0.271l1.33,3.761l13.39-4.73l0.29,0.83L29.4,179.75z"
			/>
		<path fill="#FFFFFF" d="M26.35,173.129l-0.21-0.85l6.37-1.6l-1.6-6.381l-6.38,1.601l-0.22-0.86l14.54-3.649l0.21,0.85l-7.39,1.851
			l1.6,6.38l7.39-1.851l0.21,0.851L26.35,173.129z"/>
		<path fill="#FFFFFF" d="M23.64,161.44l-1.09-7.08l0.79-0.12l0.95,6.21l5.92-0.91l-0.89-5.789l0.79-0.121L31,159.42l6.54-1
			l-0.98-6.391l0.79-0.119l1.12,7.27L23.64,161.44z"/>
		<path fill="#FFFFFF" d="M26.06,138.26c-2.02,0.03-3.83,1.12-3.8,3.33c0.04,2.979,2.85,3.93,7.06,3.869
			c4.03-0.049,7.04-0.91,7-3.939c-0.04-2.9-3.45-3.55-4.63-3.53l-0.01-0.88c1.76-0.02,5.3,0.81,5.35,4.551
			c0.04,3.25-2.81,4.619-7.66,4.68c-4.7,0.06-7.78-1.221-7.83-4.7c-0.05-3.51,3.03-4.24,4.5-4.26L26.06,138.26z"/>
		<path fill="#FFFFFF" d="M30.15,125.78c6.55,0.58,7.48,3.38,7.29,5.49c-0.25,2.87-2.35,4.66-8.15,4.15
			c-5.79-0.51-7.54-2.77-7.29-5.51C22.27,126.94,24.35,125.27,30.15,125.78z M29.37,134.55c4.1,0.36,7.08-0.22,7.36-3.33
			c0.24-2.74-1.91-4.13-6.66-4.55c-4.04-0.36-7.09,0.28-7.35,3.31C22.46,132.9,25.27,134.19,29.37,134.55z"/>
		<path fill="#FFFFFF" d="M23.38,120.83l14.6-3.81l0.01-0.04l-13.36-2.6l0.17-0.87l14.72,2.86l-0.22,1.13l-14.61,3.83l-0.01,0.04
			l13.36,2.6l-0.17,0.87l-14.72-2.86L23.38,120.83z"/>
		<path fill="#FFFFFF" d="M36.46,112.94c1.83,0.55,3.59-0.22,4.21-2.29c0.59-1.99-0.44-3.75-2.27-4.29
			c-1.87-0.56-2.81,0.26-3.86,1.7l-1.05,1.46c-1.21,1.7-2.44,2.45-4.39,1.87c-2.31-0.69-3.27-2.71-2.6-4.96
			c0.79-2.66,2.65-3.39,5.05-2.68l-0.25,0.84c-1.93-0.57-3.48-0.07-4.09,1.96c-0.48,1.61-0.17,3.3,2.06,3.97
			c1.59,0.47,2.61-0.16,3.41-1.28l1.38-1.91c1.19-1.66,2.42-2.45,4.53-1.82c2.56,0.76,3.44,3.08,2.76,5.36
			c-0.99,3.32-3.56,3.41-4.95,2.99l-0.94-0.28l0.25-0.84L36.46,112.94z"/>
		<path fill="#FFFFFF" d="M39.51,102.88c1.95,0.79,3.6,0.44,4.48-1.72c0.81-2-0.07-3.56-2.02-4.35l-10.21-4.15l0.33-0.82l10.06,4.08
			c3.13,1.27,3.29,3.58,2.5,5.5c-0.78,1.92-2.3,3.55-5.63,2.2l-10.06-4.08l0.33-0.82L39.51,102.88z"/>
		<path fill="#FFFFFF" d="M33.55,88.76l0.4-0.78l12.62,6.51l2.88-5.58l0.71,0.37l-3.28,6.37L33.55,88.76z"/>
		<path fill="#FFFFFF" d="M39.25,79.94l-2.06,3.42l-0.68-0.41l4.56-7.59l0.68,0.41l-2.06,3.42l12.16,7.31l-0.45,0.76L39.25,79.94z"
			/>
		<path fill="#FFFFFF" d="M53.94,75.1l-3.28,4.6l2.96,3.87l-0.51,0.72l-9.49-12.51l0.65-0.9l14.81,5.06l-0.51,0.72L53.94,75.1z
			 M44.65,71.85l-0.02,0.03l5.57,7.23l3.06-4.29L44.65,71.85z"/>
		<path fill="#FFFFFF" d="M49.07,64.6l14.54,4.05l0.03-0.03L53.4,59.66L53.98,59l11.28,9.88l-0.76,0.87l-14.55-4.04l-0.03,0.03
			l10.23,8.97l-0.58,0.66l-11.28-9.88L49.07,64.6z"/>
		<path fill="#FFFFFF" d="M58.98,55.22l-2.9,2.74l-0.55-0.58l6.43-6.09l0.55,0.58l-2.9,2.74l9.76,10.31l-0.64,0.6L58.98,55.22z"/>
		<path fill="#FFFFFF" d="M70.95,58.29c1.19,1.5,3.07,1.89,4.76,0.54c1.63-1.29,1.8-3.32,0.61-4.82c-1.21-1.53-2.45-1.41-4.14-0.83
			l-1.7,0.59c-1.97,0.69-3.4,0.6-4.67-1c-1.5-1.9-1.12-4.09,0.73-5.55c2.18-1.72,4.12-1.25,5.67,0.71l-0.69,0.55
			c-1.25-1.58-2.81-2.06-4.47-0.75c-1.32,1.04-2.04,2.6-0.6,4.43c1.03,1.3,2.23,1.37,3.53,0.91l2.23-0.77
			c1.93-0.67,3.39-0.62,4.76,1.11c1.65,2.09,1.04,4.5-0.82,5.97c-2.72,2.15-4.87,0.74-5.77-0.39l-0.61-0.77l0.69-0.55L70.95,58.29z"
			/>
		<path fill="#FFFFFF" d="M89.09,41.73c3.28,5.7,1.52,8.07-0.32,9.13c-2.49,1.44-5.17,0.75-8.07-4.3c-2.9-5.04-2.04-7.76,0.34-9.13
			C83.63,35.94,86.19,36.69,89.09,41.73z M81.47,46.12c2.05,3.57,4.24,5.68,6.95,4.12c2.38-1.37,2.29-3.94-0.09-8.07
			c-2.02-3.51-4.29-5.65-6.93-4.13C78.85,39.51,79.41,42.56,81.47,46.12z"/>
		<path fill="#FFFFFF" d="M89.2,33.37l11.52,9.76l0.04-0.02L95.2,30.69l0.81-0.36l6.12,13.69l-1.06,0.47l-11.53-9.75L89.5,34.76
			l5.55,12.43l-0.81,0.36l-6.12-13.69L89.2,33.37z"/>
		<path fill="#FFFFFF" d="M101.4,33.23l0.83-0.3l0.73,2.02l-0.83,0.3L101.4,33.23z M104.2,41.04l0.83-0.3l0.73,2.021l-0.83,0.3
			L104.2,41.04z"/>
		<path fill="#FFFFFF" d="M109.23,25.89l0.86-0.2l1.5,6.4l6.4-1.5l-1.5-6.4l0.86-0.2l3.43,14.6l-0.86,0.2l-1.74-7.42l-6.4,1.5
			l1.74,7.42l-0.86,0.2L109.23,25.89z"/>
		<path fill="#FFFFFF" d="M123.78,23.78l-3.95,0.54l-0.11-0.79l8.78-1.21l0.11,0.79l-3.95,0.54l1.94,14.06l-0.87,0.12L123.78,23.78z
			"/>
		<path fill="#FFFFFF" d="M133.59,22.82l-3.98,0.21l-0.04-0.8l8.85-0.46l0.04,0.8l-3.98,0.21l0.74,14.17L134.34,37L133.59,22.82z"/>
		<path fill="#FFFFFF" d="M140.76,21.78l3.88,0.14c3.5,0.19,3.979,2.68,3.92,4.3c-0.09,2.54-1.72,4.1-4.41,4l-2.81-0.1l-0.24,6.67
			l-0.88-0.03L140.76,21.78z M144.27,29.51c1.779,0.06,3.33-0.85,3.42-3.33c0.08-2.14-1.01-3.48-3.05-3.56l-3.021-0.11l-0.24,6.88
			L144.27,29.51z"/>
		<path fill="#FFFFFF" d="M150.7,35.21l0.881,0.09l-0.221,2.13l-0.88-0.09L150.7,35.21z M151.56,26.96l0.88,0.09l-0.22,2.13
			l-0.88-0.09L151.56,26.96z"/>
		<path fill="#FFFFFF" d="M160.741,23.35l0.829,0.13l-7.7,14.49l-0.83-0.13L160.741,23.35z"/>
		<path fill="#FFFFFF" d="M167.07,24.65l0.82,0.17l-8.47,14.05l-0.82-0.17L167.07,24.65z"/>
		<path fill="#FFFFFF" d="M172.14,27.05l-3.841-1.1l0.221-0.77l8.52,2.44l-0.22,0.77l-3.84-1.1l-3.899,13.65l-0.851-0.24
			L172.14,27.05z"/>
		<path fill="#FFFFFF" d="M179.28,28.38l0.82,0.32l-2.38,6.13l6.13,2.38l2.38-6.13l0.819,0.32l-5.42,13.98l-0.819-0.32l2.76-7.11
			l-6.13-2.38l-2.76,7.11l-0.82-0.32L179.28,28.38z"/>
		<path fill="#FFFFFF" d="M190.39,32.93l6.409,3.2l-0.359,0.72l-5.62-2.81l-2.67,5.35l5.24,2.62l-0.36,0.71l-5.24-2.62l-2.959,5.92
			l5.789,2.89l-0.359,0.71l-6.57-3.28L190.39,32.93z"/>
		<path fill="#FFFFFF" d="M203.491,45.18c1.059-1.71,1.109-3.83-0.771-4.99c-2.54-1.57-4.841,0.29-7.06,3.88
			c-2.121,3.43-3.011,6.43-0.44,8.02c2.46,1.52,4.84-1,5.46-2l0.75,0.46c-0.93,1.5-3.53,4.04-6.71,2.07
			c-2.771-1.71-2.38-4.85,0.17-8.98c2.47-4,5.21-5.91,8.17-4.08c2.979,1.84,1.95,4.83,1.181,6.08L203.491,45.18z"/>
		<path fill="#FFFFFF" d="M211.82,55.34c-4.01,5.21-6.87,4.49-8.55,3.2c-2.279-1.75-2.67-4.49,0.88-9.1s6.39-4.86,8.57-3.18
			C215.081,48.07,215.37,50.73,211.82,55.34z M204.85,49.97c-2.51,3.26-3.63,6.09-1.15,7.99c2.18,1.68,4.51,0.61,7.42-3.17
			c2.471-3.21,3.57-6.12,1.16-7.98C209.95,45.02,207.36,46.71,204.85,49.97z"/>
		<path fill="#FFFFFF" d="M219.629,52.28l-4.649,14.36l0.03,0.03l9.38-9.86l0.64,0.61L214.7,68.28l-0.84-0.8l4.631-14.38
			l-0.031-0.03l-9.379,9.86l-0.641-0.61l10.33-10.87L219.629,52.28z"/>
		<path fill="#FFFFFF" d="M219.241,67.55c-1.451,1.25-1.75,3.15-0.341,4.79c1.36,1.57,3.39,1.65,4.841,0.4
			c1.479-1.27,1.299-2.51,0.649-4.17l-0.66-1.67c-0.78-1.94-0.75-3.38,0.79-4.71c1.83-1.58,4.04-1.3,5.58,0.49
			c1.811,2.1,1.43,4.07-0.471,5.7l-0.58-0.67c1.531-1.32,1.941-2.9,0.561-4.5c-1.1-1.27-2.689-1.93-4.449-0.4
			c-1.261,1.08-1.271,2.29-0.75,3.56l0.869,2.19c0.75,1.9,0.76,3.36-0.91,4.8c-2.02,1.74-4.449,1.23-6.01-0.56
			c-2.26-2.63-0.949-4.84,0.15-5.78l0.75-0.65l0.58,0.67L219.241,67.55z"/>
		<path fill="#FFFFFF" d="M226.06,75.55c-1.72,1.21-2.319,2.79-0.979,4.7c1.25,1.77,3.039,1.86,4.75,0.65l9.01-6.36l0.51,0.72
			l-8.87,6.26c-2.76,1.95-4.78,0.83-5.979-0.87c-1.201-1.7-1.75-3.86,1.189-5.93l8.87-6.26l0.51,0.72L226.06,75.55z"/>
		<path fill="#FFFFFF" d="M241.17,78.19l0.439,0.77l-12.29,7.11l3.14,5.44l-0.689,0.4l-3.59-6.2L241.17,78.19z"/>
		<path fill="#FFFFFF" d="M245.52,87.75l-1.77-3.57l0.709-0.35l3.931,7.94l-0.71,0.35l-1.77-3.57l-12.721,6.3l-0.391-0.79
			L245.52,87.75z"/>
		<path fill="#FFFFFF" d="M241.69,102.72l-2.109-5.24l-4.86,0.42l-0.33-0.82l15.649-1.27l0.42,1.03l-12.229,9.76l-0.33-0.82
			L241.69,102.72z M249.43,96.65l-0.02-0.04l-9.091,0.8l1.97,4.89L249.43,96.65z"/>
		<path fill="#FFFFFF" d="M253.15,104.25l-11.239,10.08l0.01,0.04l13.07-3.8l0.25,0.85l-14.4,4.19l-0.32-1.11l11.24-10.1l-0.01-0.04
			l-13.07,3.81l-0.25-0.85l14.4-4.19L253.15,104.25z"/>
		<path fill="#FFFFFF" d="M255.741,117.65l-0.75-3.92l0.779-0.15l1.67,8.71l-0.779,0.15l-0.75-3.92l-13.951,2.68l-0.17-0.87
			L255.741,117.65z"/>
		<path fill="#FFFFFF" d="M246.69,126.08c-1.9,0.19-3.24,1.57-3.02,3.72c0.209,2.07,1.83,3.3,3.729,3.11
			c1.94-0.2,2.511-1.31,2.92-3.04l0.421-1.75c0.469-2.03,1.319-3.19,3.35-3.4c2.4-0.24,4.05,1.26,4.289,3.6
			c0.281,2.76-1.17,4.15-3.649,4.4l-0.09-0.88c2.01-0.2,3.25-1.26,3.04-3.37c-0.17-1.67-1.09-3.12-3.41-2.89
			c-1.65,0.17-2.35,1.15-2.66,2.48l-0.55,2.29c-0.47,1.99-1.3,3.19-3.5,3.41c-2.649,0.27-4.351-1.54-4.59-3.91
			c-0.351-3.45,1.989-4.51,3.44-4.65l0.979-0.1l0.09,0.88L246.69,126.08z"/>
		<path fill="#FFFFFF" d="M245.75,135.14l0.039,0.88l-2.14,0.09l-0.04-0.88L245.75,135.14z"/>
		<path fill="#FFFFFF" d="M258.79,139.7l-0.119,4.03c-0.09,2.94-1.631,3.88-3.851,3.81c-2.01-0.06-3.11-1.209-3.271-2.869h-0.039
			c-0.211,2.16-1.82,3.199-3.87,3.14c-2.521-0.07-4.021-1.761-3.95-4.399l0.12-4.161L258.79,139.7z M244.411,143.12
			c-0.07,2.43,0.789,3.74,3.27,3.811c2.67,0.08,3.449-1.52,3.51-3.66l0.09-2.92l-6.779-0.2L244.411,143.12z M251.9,143.25
			c-0.06,1.93,0.83,3.34,2.95,3.41c2.029,0.06,3.05-0.921,3.109-2.851l0.09-3.25l-6.059-0.18L251.9,143.25z"/>
		<path fill="#FFFFFF" d="M247.19,156.549l0.71-5.6l-4.44-2l0.11-0.88l14.29,6.5l-0.14,1.101l-15.44,2.58l0.11-0.881L247.19,156.549
			z M256.911,155v-0.041l-8.33-3.72l-0.66,5.23L256.911,155z"/>
		<path fill="#FFFFFF" d="M256.48,163.44l-14.72,3.35l-0.01,0.041l13.27,3.02l-0.2,0.859l-14.63-3.319l0.26-1.13l14.73-3.381
			l0.01-0.039l-13.27-3.021l0.189-0.86l14.631,3.32L256.48,163.44z"/>
		<path fill="#FFFFFF" d="M253.84,174.161l-1.09,3.239c-1.01,3.011-3,4.69-8.83,2.72c-5.83-1.959-6.291-4.82-5.381-7.51l1.09-3.24
			L253.84,174.161z M239.209,172.85c-1.02,3.02,0.631,4.98,4.99,6.439c4.36,1.471,6.771,1.15,7.87-2.109l0.81-2.41l-12.85-4.33
			L239.209,172.85z"/>
		<path fill="#FFFFFF" d="M242.741,190.72c1.84,0.829,3.939,0.61,4.85-1.4c1.229-2.72-0.91-4.771-4.76-6.5
			c-3.67-1.659-6.771-2.159-8.011,0.601c-1.19,2.64,1.62,4.67,2.7,5.16l-0.359,0.799c-1.611-0.729-4.461-2.979-2.92-6.39
			c1.34-2.97,4.51-2.989,8.93-0.989c4.289,1.939,6.539,4.399,5.1,7.58c-1.439,3.199-4.54,2.56-5.88,1.949L242.741,190.72z"/>
		<path fill="#FFFFFF" d="M232.62,196.61l2.811-4.9l-3.33-3.56l0.439-0.76l10.69,11.5l-0.55,0.97l-15.24-3.56l0.439-0.771
			L232.62,196.61z M242.18,198.92l0.02-0.041l-6.26-6.64l-2.62,4.57L242.18,198.92z"/>
		<path fill="#FFFFFF" d="M232.1,213.49l0.02-0.03l-8.649-11.66l0.521-0.709l13.729,4.709l0.021-0.029l-11.191-8.18l0.521-0.711
			l12.101,8.851l-0.84,1.149l-13.4-4.52l-0.03,0.03l8.431,11.31l-0.851,1.17l-12.101-8.85l0.521-0.71L232.1,213.49z"/>
		<path fill="#FFFFFF" d="M230.04,217.68l-2.619,2.859c-2.42,2.541-4.621,1.291-5.811,0.19c-1.869-1.71-2-3.97-0.189-5.95
			l1.899-2.07l-4.92-4.51l0.591-0.65L230.04,217.68z M221.879,215.331c-1.199,1.319-1.51,3.08,0.311,4.76
			c1.58,1.449,3.301,1.49,4.68-0.01l2.041-2.23l-5.08-4.65L221.879,215.331z"/>
		<path fill="#FFFFFF" d="M215.26,214.67l-0.62,0.629l-1.521-1.52l0.621-0.619L215.26,214.67z"/>
		<path fill="#FFFFFF" d="M212.14,229.06c1.319,1.53,3.319,2.21,4.989,0.771c2.261-1.951,1.181-4.711-1.569-7.9
			c-2.63-3.061-5.229-4.811-7.521-2.84c-2.199,1.89-0.5,4.92,0.271,5.81l-0.67,0.58c-1.149-1.34-2.79-4.58,0.04-7.03
			c2.46-2.13,5.35-0.81,8.52,2.86c3.07,3.56,4.07,6.75,1.43,9.03c-2.659,2.289-5.199,0.41-6.159-0.711L212.14,229.06z"/>
		<path fill="#FFFFFF" d="M199.95,233.959c-3.77-5.39-2.22-7.91-0.479-9.119c2.36-1.65,5.079-1.2,8.42,3.57
			c3.33,4.77,2.72,7.56,0.46,9.129C205.9,239.25,203.28,238.73,199.95,233.959z M207.161,228.92
			c-2.361-3.381-4.721-5.291-7.291-3.49c-2.26,1.58-1.939,4.119,0.791,8.029c2.319,3.32,4.77,5.25,7.27,3.511
			C210.35,235.27,209.52,232.29,207.161,228.92z"/>
		<path fill="#FFFFFF" d="M191.6,245.84l0.04-0.021l-2.63-14.271l0.779-0.409l10.26,10.271l0.041-0.021l-6.44-12.271l0.78-0.41
			l6.97,13.28l-1.26,0.66l-10.04-9.96l-0.04,0.02l2.59,13.871l-1.28,0.67l-6.97-13.28l0.78-0.41L191.6,245.84z"/>
	</g>
</g>
<g id="Bleed_x2F_Abbondanza">
</g>
</svg>
