<?xml version="1.0" encoding="utf-8"?>
<!-- Generator: Adobe Illustrator 16.0.0, SVG Export Plug-In . SVG Version: 6.00 Build 0)  -->
<!DOCTYPE svg PUBLIC "-//W3C//DTD SVG 1.1//EN" "http://www.w3.org/Graphics/SVG/1.1/DTD/svg11.dtd">
<svg version="1.1" xmlns="http://www.w3.org/2000/svg" xmlns:xlink="http://www.w3.org/1999/xlink" x="0px" y="0px"
	 width="280.631px" height="280.631px" viewBox="0 0 280.631 280.631" enable-background="new 0 0 280.631 280.631"
	 xml:space="preserve">
<g id="CutContour">
	<circle fill="#009DC8" cx="140.316" cy="140.315" r="134.646"/>
</g>
<g id="Layer_4">
</g>
<g id="Graphic">
	<g id="Layer_4_copy">
	</g>
	<g>
		<path fill="#FFFFFF" d="M113.254,103.197c-2.107,2.356-5.084,2.666-6.51,2.666s-2.418,0-3.844,0c-0.62,0-1.178,0.062-1.488-0.434
			c-0.31-0.434-0.31-1.116-0.31-1.55c0-15.251,0-24.613,0-39.492c0-0.62,0-1.24,0.372-1.612c0.496-0.434,0.992-0.31,1.488-0.31
			c1.363,0,2.355,0,3.719,0c1.984,0,4.65,0.496,6.51,2.17c1.859,1.736,2.295,4.216,2.295,6.448c0,9.795,0,16.305,0,26.038
			C115.486,98.609,115.486,100.593,113.254,103.197z M111.455,71.083c0-1.364-0.186-2.48-1.301-3.596
			c-0.682-0.682-1.178-0.93-2.852-0.93c-1.117,0-1.736,0-1.984,0.434c-0.186,0.372-0.186,0.682-0.186,1.054
			c0,12.213,0,19.963,0,31.804c0,0.682-0.063,1.364,0.371,1.798c0.248,0.248,1.178,0.186,1.426,0.186
			c0.682,0,2.17-0.186,3.287-1.364c1.238-1.364,1.238-2.356,1.238-3.286C111.455,87.574,111.455,80.754,111.455,71.083z"/>
		<path fill="#FFFFFF" d="M132.287,105.863c-1.426,0-1.859,0.062-1.859-0.868c0-5.518,0-10.787,0-15.747
			c0-2.542-1.674-4.092-3.039-4.092c-2.914,0-3.285-0.062-3.285,0.93c0,5.766,0,12.089,0,18.785c0,0.992-0.248,0.992-2.107,0.992
			c-1.426,0-1.861,0-1.861-0.868c0-15.251,0-25.853,0-40.607c0-0.62,0.063-1.302,0.436-1.674c0.496-0.434,0.93-0.248,1.426-0.248
			c1.301,0,2.23,0,3.533,0c1.984,0,4.65,0.496,6.51,2.17c1.859,1.736,2.293,4.278,2.293,6.448c0,2.107,0,3.472,0,5.58
			c0,1.488,0.063,2.542-0.682,3.906c-0.93,1.736-2.914,2.232-2.914,2.48c0,0.248,2.047,0.62,2.977,2.479
			c0.744,1.488,0.682,2.418,0.682,3.906c0,5.394,0,10.043,0,15.437C134.395,105.863,133.961,105.863,132.287,105.863z
			 M130.303,71.083c0-1.426-0.186-2.48-1.301-3.596c-0.684-0.682-1.055-0.93-3.287-0.93c-0.557,0-1.115,0-1.363,0.434
			c-0.186,0.372-0.186,0.682-0.186,1.054c0,4.464,0,7.253,0,11.593c0,0.682-0.125,1.364,0.371,1.736
			c0.373,0.31,0.807,0.248,1.115,0.248c0.684,0,2.295-0.186,3.41-1.364c1.24-1.364,1.24-2.418,1.24-3.286
			C130.303,74.741,130.303,73.314,130.303,71.083z"/>
		<path fill="#FFFFFF" d="M141.029,105.801c-1.674,0-1.859,0-1.859-0.868c0-15.561,0-26.596,0-41.476c0-0.806,0.371-0.93,1.859-0.93
			c1.674,0,2.107,0.062,2.107,0.992c0,14.817,0,25.791,0,41.29C143.137,105.739,143.014,105.801,141.029,105.801z"/>
		<path fill="#FFFFFF" d="M160.932,105.863c-0.932,0-1.736-0.31-2.232-2.418c-1.859-7.874-2.852-12.337-4.836-20.025
			c-0.434-1.612-0.93-4.525-1.303-4.525c-0.371,0-0.434,0.744-0.434,1.116c0,8.556,0,15.685,0,24.737
			c0,0.992-0.311,1.116-1.984,1.116c-1.797,0-2.045-0.124-2.045-1.116c0-15.5,0-26.969,0-41.662c0-0.62,0.434-0.62,1.549-0.62
			c1.736,0,2.17,0.372,2.791,2.728c1.922,7.688,3.162,12.771,5.084,20.459c0.123,0.558,0.371,1.488,0.682,1.488
			s0.371-0.744,0.371-1.116c0-7.812,0-14.259,0-22.443c0-0.992,0.311-1.116,2.109-1.116c1.426,0,1.797,0.062,1.797,0.93
			c0,14.879,0,24.985,0,39.926C162.48,105.553,162.418,105.863,160.932,105.863z"/>
		<path fill="#FFFFFF" d="M179.717,105.863c-1.24,0-1.922,0.124-2.17-0.868c-1.674-6.695-2.729-10.787-4.34-17.483
			c-0.125-0.558-0.559-0.682-1.303,0.992c-0.371,0.868-0.496,1.674-0.496,2.604c0,4.712,0,8.928,0,13.64
			c0,0.992-0.248,1.116-2.045,1.116c-1.611,0-1.922-0.124-1.922-0.992c0-15.561,0-26.596,0-41.476c0-0.806,0.496-0.868,1.859-0.868
			c1.426,0,2.107,0,2.107,0.93c0,5.084,0,10.043,0,15.003c0,0.434-0.061,1.364,0.311,1.24c0.186-0.062,0.311-0.744,0.434-1.178
			c1.736-5.952,2.543-9.176,4.279-15.189c0.186-0.682,0.619-0.62,2.23-0.62c1.613,0,2.17,0.248,2.047,0.62
			c-1.861,6.634-2.729,9.548-4.525,15.809c-0.188,0.744-0.248,1.426-0.248,2.046c0,0.558,0.123,1.426,0.248,2.232
			c2.17,8.618,3.285,12.523,5.578,21.699C181.824,105.491,181.639,105.863,179.717,105.863z"/>
		<path fill="#FFFFFF" d="M101.506,155.863c-1.799,0-2.108,0.123-2.232-0.744c-0.496-3.473-0.867-6.572-1.363-9.982
			c-0.063-0.619-0.93-0.557-1.922-0.557c-1.178,0-1.799-0.063-1.86,0.557c-0.372,3.473-0.683,6.51-0.991,10.105
			c-0.063,0.682-0.621,0.621-2.604,0.621c-0.931,0-1.735,0-1.674-0.559c1.922-16.119,3.596-28.022,5.331-41.972
			c0.125-0.868,0.435-0.93,1.799-0.93c1.549,0,2.045,0.062,2.107,1.116c2.107,15.871,3.224,25.543,5.332,41.723
			C103.489,155.924,103.18,155.863,101.506,155.863z M96.422,127.035c0-0.248-0.063-0.682-0.434-0.682
			c-0.311,0-0.373,0.434-0.373,0.62c-0.371,5.208-0.619,9.547-0.93,13.639c-0.062,0.433,0.496,0.558,1.364,0.558
			c0.744,0,1.426,0,1.364-0.497C96.98,135.342,96.794,131.932,96.422,127.035z"/>
		<path fill="#FFFFFF" d="M117.625,155.863c-3.285,0-8.432,0-9.238,0c-0.682,0-1.363-0.063-1.611-0.434
			c-0.311-0.496-0.248-1.428-0.248-2.232c0-14.879,0-25.109,0-39.926c0-0.93,0.621-0.806,1.859-0.806c1.613,0,2.17,0,2.17,0.93
			c0,13.578,0,23.125,0,36.517c0,0.805-0.123,1.797,0.436,2.23c0.248,0.125,0.93,0.186,1.426,0.186c1.053,0,4.152,0,5.207,0
			c0.807,0,0.867,0.496,0.867,1.674C118.492,155.553,118.432,155.863,117.625,155.863z"/>
		<path fill="#FFFFFF" d="M132.691,155.863c-3.287,0-8.432,0-9.238,0c-0.682,0-1.363-0.063-1.611-0.434
			c-0.311-0.496-0.248-1.428-0.248-2.232c0-14.879,0-25.109,0-39.926c0-0.93,0.619-0.806,1.859-0.806c1.611,0,2.17,0,2.17,0.93
			c0,13.578,0,23.125,0,36.517c0,0.805-0.123,1.797,0.434,2.23c0.248,0.125,0.932,0.186,1.426,0.186c1.055,0,4.154,0,5.209,0
			c0.805,0,0.867,0.496,0.867,1.674C133.559,155.553,133.496,155.863,132.691,155.863z"/>
		<path fill="#FFFFFF" d="M155.816,115.999c-0.744,0-1.611-0.062-2.666,0c-0.496,0-0.992,0-1.303,0.124
			c-0.557,0.434-0.434,1.488-0.434,2.294c0,13.701,0,23.249,0,36.825c0,0.559-0.93,0.621-2.23,0.621c-1.117,0-1.922,0-1.922-0.621
			c0-13.576,0-23.186,0-36.825c0-0.806,0.123-1.86-0.436-2.294c-0.309-0.124-0.805-0.124-1.301-0.124c-0.869,0-1.736,0-2.295,0
			c-0.93,0-1.115-0.31-1.115-1.674s0.123-1.86,0.867-1.86c3.906,0,8.865,0,12.771,0c0.744,0,0.807,0.62,0.807,1.86
			C156.561,115.751,156.498,115.999,155.816,115.999z"/>
		<path fill="#FFFFFF" d="M171.625,155.801c-1.859,0-2.045-0.063-2.045-1.24c0-5.889,0-11.035,0-16.924
			c0-0.744,0.063-1.984-0.373-2.108c-0.682-0.372-5.33-0.124-5.578,0.063c-0.559,0.372-0.436,1.426-0.436,2.231
			c0,6.014,0,10.973,0,16.987c0,0.992-0.371,0.992-2.107,0.992c-1.611,0-1.859,0-1.859-0.867c0-15.562,0-26.411,0-41.291
			c0-0.806,0.248-1.116,1.859-1.116c1.736,0,2.17,0.248,2.17,1.178c0,5.084,0,9.609,0,14.631c0,1.054-0.186,2.294,0.744,2.79
			c0.496,0.186,4.525,0.372,5.146,0c0.557-0.372,0.434-1.674,0.434-2.604c0-5.208,0-10.602,0-15.065c0-1.116,0.496-0.93,1.984-0.93
			c1.734,0,2.045,0,2.045,0.992c0,14.693,0,25.729,0,41.042C173.609,155.678,173.672,155.801,171.625,155.801z"/>
		<path fill="#FFFFFF" d="M190.723,155.863c-2.666,0-6.635,0-9.299,0c-0.992,0-2.047,0.123-2.48-0.248
			c-0.496-0.434-0.373-1.365-0.373-2.107c0-14.88,0-24.304,0-39.183c0-0.806,0.063-0.868,0.436-1.364
			c0.371-0.496,0.805-0.496,1.426-0.496c3.41,0,6.881,0,10.291,0c0.744,0,0.744,0.744,0.744,1.86c0,1.178,0,1.674-0.807,1.674
			c-1.674,0-5.021,0-6.199,0c-0.496,0-1.24,0.062-1.426,0.31c-0.311,0.434-0.311,0.372-0.311,1.178c0,4.154,0,7.626,0,11.779
			c0,0.558-0.123,1.24,0.373,1.612c0.434,0.31,0.867,0.248,1.363,0.248c1.055,0,2.355,0,2.914,0c0.744,0,0.867,0.496,0.867,1.798
			c0,1.239-0.063,1.735-0.867,1.735c-0.496,0-1.674,0-2.791,0c-0.619,0-1.301,0.063-1.549,0.187
			c-0.559,0.372-0.434,0.992-0.434,1.798c0,4.959,0,8.37,0,13.329c0,0.807,0,1.984,0.309,2.17c0.311,0.186,1.178,0.248,1.861,0.248
			c1.674,0,4.215,0,5.889,0c0.744,0,0.807,0.373,0.807,1.736S191.404,155.863,190.723,155.863z"/>
		<path fill="#FFFFFF" d="M101.195,205.863c-1.611,0-1.984-0.125-1.984-1.117c0-7.873,0-13.762,0-21.637
			c0-2.418,0-6.322-0.434-6.322s-0.619,0.682-0.744,1.053c-0.867,3.348-1.363,5.021-2.293,8.246c-0.125,0.434-0.187,0.93-0.868,0.93
			c-0.558,0-0.744-0.496-0.931-0.867c-0.744-2.914-1.239-4.836-2.107-8.184c-0.124-0.434-0.372-0.992-0.867-0.992
			c-0.373,0-0.311,3.781-0.311,6.137c0,7.875,0,13.764,0,21.637c0,0.992-0.372,1.117-1.984,1.117c-1.735,0-2.045-0.125-2.045-1.117
			c0-15.498,0-26.658,0-41.352c0-0.992,0.557-0.867,1.735-0.867c1.364,0,1.612,0.311,2.604,3.41
			c1.239,3.906,2.169,6.758,3.223,10.043c0.125,0.311,0.373,0.682,0.744,0.682c0.311,0,0.62-0.371,0.744-0.682
			c1.303-3.906,1.922-5.951,3.225-10.043c0.93-2.977,1.053-3.473,2.417-3.473s1.922,0,1.922,0.93c0,14.693,0,25.854,0,41.352
			C103.241,205.738,103.055,205.863,101.195,205.863z"/>
		<path fill="#FFFFFF" d="M110.063,205.801c-1.674,0-1.861,0-1.861-0.867c0-15.563,0-26.598,0-41.477c0-0.807,0.373-0.93,1.861-0.93
			c1.674,0,2.107,0.063,2.107,0.992c0,14.816,0,25.791,0,41.289C112.17,205.738,112.045,205.801,110.063,205.801z"/>
		<path fill="#FFFFFF" d="M129.963,205.863c-0.93,0-1.736-0.311-2.232-2.418c-1.859-7.873-2.852-12.338-4.836-20.025
			c-0.434-1.611-0.93-4.525-1.301-4.525c-0.373,0-0.434,0.744-0.434,1.115c0,8.557,0,15.686,0,24.736
			c0,0.992-0.311,1.117-1.984,1.117c-1.799,0-2.047-0.125-2.047-1.117c0-15.498,0-26.967,0-41.66c0-0.621,0.436-0.621,1.551-0.621
			c1.736,0,2.17,0.373,2.789,2.729c1.922,7.688,3.162,12.771,5.084,20.459c0.125,0.557,0.373,1.488,0.682,1.488
			c0.311,0,0.373-0.744,0.373-1.117c0-7.811,0-14.258,0-22.441c0-0.992,0.311-1.117,2.107-1.117c1.426,0,1.799,0.063,1.799,0.93
			c0,14.879,0,24.984,0,39.926C131.514,205.553,131.451,205.863,129.963,205.863z"/>
		<path fill="#FFFFFF" d="M138.334,205.801c-1.674,0-1.861,0-1.861-0.867c0-15.563,0-26.598,0-41.477c0-0.807,0.373-0.93,1.861-0.93
			c1.674,0,2.107,0.063,2.107,0.992c0,14.816,0,25.791,0,41.289C140.441,205.738,140.316,205.801,138.334,205.801z"/>
		<path fill="#FFFFFF" d="M157.553,203.197c-2.107,2.355-5.021,2.666-6.51,2.666c-1.115,0-1.922,0.061-3.037,0
			c-0.744-0.063-1.861,0.061-2.109-0.311c-0.371-0.559-0.496-0.434-0.496-2.107c0-14.631,0-24.303,0-39.059
			c0-0.619,0-1.178,0.373-1.549c0.496-0.436,0.992-0.373,1.488-0.373c1.301,0,2.23,0,3.533,0c1.922,0,4.65,0.496,6.51,2.17
			c1.859,1.736,2.293,4.217,2.293,6.447c0,2.109,0,3.473,0,5.58c0,1.488,0.063,2.543-0.682,3.906
			c-0.93,1.736-2.852,2.232-2.852,2.48s2.107,0.619,3.037,2.479c0.744,1.488,0.684,2.418,0.684,3.906c0,2.914,0,4.773,0,7.688
			C159.785,198.672,159.785,200.594,157.553,203.197z M155.568,171.082c0-1.426-0.186-2.479-1.301-3.596
			c-0.684-0.682-1.117-0.93-2.854-0.93c-0.867,0-1.549,0-1.797,0.434c-0.186,0.373-0.186,0.684-0.186,1.055
			c0,4.463,0,7.254,0,11.594c0,0.682-0.063,1.24,0.371,1.674c0.373,0.371,0.621,0.311,1.115,0.311c0.869,0,2.295-0.188,3.41-1.365
			c1.24-1.363,1.24-2.293,1.24-3.285C155.568,174.74,155.568,173.314,155.568,171.082z M155.816,189.248
			c0-2.852-1.674-4.092-3.533-4.092c-2.666,0-2.852,0.186-2.852,1.674c0,3.844,0,8.121,0,13.02c0,0.682,0.061,1.859,0.619,1.922
			c0.496,0.063,0.559,0.063,1.115,0.063c0.684,0,2.232-0.188,3.35-1.365c1.238-1.363,1.301-2.232,1.301-3.285
			C155.816,194.207,155.816,192.1,155.816,189.248z"/>
		<path fill="#FFFFFF" d="M174.912,205.863c-1.797,0-2.107,0.123-2.232-0.744c-0.496-3.473-0.867-6.572-1.363-9.982
			c-0.063-0.619-0.93-0.557-1.922-0.557c-1.178,0-1.799-0.063-1.859,0.557c-0.373,3.473-0.682,6.51-0.992,10.105
			c-0.063,0.682-0.621,0.621-2.604,0.621c-0.93,0-1.736,0-1.674-0.559c1.922-16.119,3.596-28.021,5.33-41.971
			c0.125-0.869,0.436-0.932,1.799-0.932c1.551,0,2.047,0.063,2.107,1.117c2.107,15.871,3.225,25.543,5.332,41.723
			C176.896,205.924,176.586,205.863,174.912,205.863z M169.828,177.035c0-0.248-0.063-0.684-0.434-0.684
			c-0.311,0-0.371,0.436-0.371,0.621c-0.373,5.207-0.621,9.547-0.932,13.639c-0.061,0.434,0.496,0.559,1.365,0.559
			c0.744,0,1.426,0,1.363-0.496C170.387,185.342,170.201,181.932,169.828,177.035z"/>
		<path fill="#FFFFFF" d="M192.084,205.863c-1.426,0-1.859,0.061-1.859-0.869c0-5.518,0-10.787,0-15.746
			c0-2.543-1.674-4.092-3.037-4.092c-2.914,0-3.287-0.063-3.287,0.93c0,5.766,0,12.09,0,18.785c0,0.992-0.248,0.992-2.107,0.992
			c-1.426,0-1.859,0-1.859-0.869c0-15.25,0-25.852,0-40.607c0-0.619,0.063-1.301,0.434-1.674c0.496-0.434,0.93-0.248,1.426-0.248
			c1.303,0,2.232,0,3.535,0c1.982,0,4.648,0.496,6.508,2.17c1.861,1.736,2.295,4.277,2.295,6.447c0,2.109,0,3.473,0,5.58
			c0,1.488,0.063,2.543-0.682,3.906c-0.93,1.736-2.914,2.232-2.914,2.48s2.045,0.619,2.975,2.479
			c0.744,1.488,0.684,2.418,0.684,3.906c0,5.395,0,10.043,0,15.438C194.193,205.863,193.758,205.863,192.084,205.863z
			 M190.102,171.082c0-1.426-0.188-2.479-1.303-3.596c-0.682-0.682-1.055-0.93-3.285-0.93c-0.559,0-1.117,0-1.365,0.434
			c-0.186,0.373-0.186,0.684-0.186,1.055c0,4.463,0,7.254,0,11.594c0,0.682-0.123,1.363,0.373,1.736
			c0.371,0.309,0.805,0.248,1.115,0.248c0.682,0,2.293-0.188,3.41-1.365c1.24-1.363,1.24-2.418,1.24-3.285
			C190.102,174.74,190.102,173.314,190.102,171.082z"/>
	</g>
	<g>
		<path fill="#FFFFFF" d="M146.269,227.355v-1.801h-11.905v1.801h5.047v4.479c-0.52,0.053-1.012,0.178-1.479,0.373
			c-0.625,0.263-1.173,0.629-1.641,1.097c-0.468,0.471-0.841,1.022-1.117,1.661c-0.279,0.64-0.415,1.316-0.415,2.039v19.048
			c0,0.719,0.136,1.396,0.415,2.018c0.276,0.629,0.649,1.173,1.117,1.645c0.468,0.471,1.016,0.841,1.641,1.117
			c0.628,0.279,1.299,0.415,2.021,0.415h0.723c0.719,0,1.399-0.136,2.038-0.415c0.637-0.276,1.188-0.646,1.66-1.117
			c0.468-0.472,0.834-1.016,1.1-1.645c0.266-0.621,0.397-1.299,0.397-2.018v-5.702h-1.801h-0.077v5.702
			c0,0.938-0.317,1.738-0.956,2.401c-0.638,0.66-1.427,0.991-2.361,0.991h-0.723c-0.458,0-0.897-0.094-1.316-0.271
			c-0.419-0.182-0.782-0.423-1.082-0.72c-0.3-0.3-0.541-0.663-0.72-1.085c-0.182-0.419-0.271-0.859-0.271-1.316v-19.048
			c0-0.481,0.09-0.925,0.271-1.333c0.179-0.412,0.42-0.765,0.72-1.065c0.3-0.304,0.663-0.541,1.082-0.723
			c0.251-0.108,0.51-0.171,0.774-0.216v20.744h1.805v-20.744c0.276,0.042,0.541,0.107,0.793,0.216
			c0.408,0.182,0.765,0.419,1.066,0.723c0.3,0.301,0.541,0.653,0.723,1.065c0.182,0.408,0.272,0.852,0.272,1.333v4.545h1.801v-4.545
			c0-0.723-0.132-1.399-0.397-2.039c-0.266-0.639-0.632-1.19-1.1-1.661c-0.472-0.468-1.023-0.834-1.66-1.097
			c-0.475-0.195-0.978-0.32-1.498-0.373v-4.479H146.269z"/>
	</g>
	<g>
		<path fill="#FFFFFF" d="M87.999,246.651l-0.78-0.409l6.597-12.57l-5.56-2.919l0.371-0.706l6.341,3.327L87.999,246.651z"/>
		<path fill="#FFFFFF" d="M79.565,242.04l-0.757-0.455l7.721-12.857l0.756,0.454L79.565,242.04z"/>
		<path fill="#FFFFFF" d="M82.029,230.509c1.086-1.571,0.9-3.485-0.879-4.714c-1.711-1.181-3.698-0.739-4.783,0.832
			c-1.109,1.608-0.627,2.757,0.422,4.194l1.065,1.451c1.243,1.674,1.576,3.076,0.419,4.752c-1.371,1.989-3.583,2.273-5.519,0.938
			c-2.281-1.574-2.407-3.574-0.987-5.63l0.726,0.5c-1.146,1.659-1.147,3.29,0.598,4.495c1.383,0.954,3.086,1.186,4.409-0.734
			c0.942-1.364,0.652-2.534-0.169-3.636l-1.391-1.904c-1.208-1.649-1.587-3.06-0.335-4.874c1.514-2.195,3.997-2.318,5.95-0.971
			c2.853,1.968,2.143,4.438,1.319,5.63l-0.561,0.813l-0.726-0.501L82.029,230.509z"/>
		<path fill="#FFFFFF" d="M65.313,231.018l3.066,2.551l-0.511,0.613l-6.812-5.666l0.511-0.612l3.066,2.55l9.076-10.91l0.679,0.564
			L65.313,231.018z"/>
		<path fill="#FFFFFF" d="M59.38,226.932l-5.1-5.029l0.561-0.567l4.472,4.41l4.202-4.263l-4.173-4.114l0.561-0.568l4.173,4.115
			l4.646-4.712l-4.606-4.541l0.561-0.568l5.233,5.161L59.38,226.932z"/>
		<path fill="#FFFFFF" d="M51.662,219.007l6.217-13.752l-0.027-0.032l-10.418,8.752l-0.566-0.675l11.479-9.645l0.742,0.885
			l-6.203,13.769l0.027,0.032l10.418-8.753l0.566,0.675l-11.478,9.646L51.662,219.007z"/>
		<path fill="#FFFFFF" d="M41.267,203.88l2.141,3.368l-0.673,0.428l-4.755-7.478l0.674-0.429l2.14,3.367l11.979-7.616l0.474,0.744
			L41.267,203.88z"/>
		<path fill="#FFFFFF" d="M39.268,186.503c5.85-2.996,8.132-1.121,9.099,0.768c1.312,2.561,0.491,5.197-4.687,7.85
			c-5.178,2.65-7.854,1.662-9.108-0.787C33.213,191.68,34.09,189.154,39.268,186.503z M43.277,194.334
			c3.664-1.875,5.88-3.953,4.453-6.738c-1.254-2.449-3.818-2.481-8.062-0.308c-3.607,1.848-5.85,4.011-4.462,6.721
			C36.547,196.625,39.614,196.211,43.277,194.334z"/>
		<path fill="#FFFFFF" d="M29.405,179.747l1.328,3.761l-0.753,0.267l-2.95-8.356l0.753-0.265l1.328,3.762l13.385-4.727l0.293,0.832
			L29.405,179.747z"/>
		<path fill="#FFFFFF" d="M26.354,173.127l-0.214-0.854l6.374-1.602l-1.6-6.375l-6.375,1.602l-0.216-0.856l14.543-3.649l0.215,0.855
			l-7.394,1.855l1.601,6.375l7.394-1.855l0.214,0.854L26.354,173.127z"/>
		<path fill="#FFFFFF" d="M23.643,161.437l-1.088-7.076l0.788-0.122l0.954,6.205l5.916-0.909l-0.891-5.79l0.788-0.121l0.891,5.79
			l6.538-1.005l-0.983-6.394l0.788-0.121l1.117,7.265L23.643,161.437z"/>
		<path fill="#FFFFFF" d="M26.063,138.259c-2.016,0.027-3.827,1.122-3.798,3.326c0.04,2.98,2.846,3.93,7.064,3.873
			c4.03-0.054,7.042-0.912,7.002-3.936c-0.039-2.897-3.449-3.545-4.625-3.529l-0.012-0.881c1.764-0.024,5.302,0.811,5.353,4.547
			c0.044,3.254-2.814,4.615-7.664,4.68c-4.702,0.063-7.784-1.218-7.831-4.702c-0.047-3.507,3.029-4.24,4.498-4.26L26.063,138.259z"
			/>
		<path fill="#FFFFFF" d="M30.147,125.782c6.548,0.578,7.48,3.381,7.294,5.494c-0.253,2.865-2.352,4.661-8.146,4.15
			c-5.795-0.512-7.535-2.773-7.293-5.514C22.266,126.942,24.353,125.271,30.147,125.782z M29.373,134.548
			c4.101,0.362,7.082-0.217,7.357-3.334c0.242-2.74-1.912-4.133-6.661-4.553c-4.037-0.356-7.087,0.28-7.355,3.313
			C22.456,132.903,25.273,134.187,29.373,134.548z"/>
		<path fill="#FFFFFF" d="M23.377,120.829l14.605-3.813l0.008-0.041l-13.357-2.598l0.168-0.866l14.718,2.862l-0.221,1.134
			l-14.607,3.833l-0.008,0.041l13.356,2.598l-0.168,0.866l-14.718-2.862L23.377,120.829z"/>
		<path fill="#FFFFFF" d="M36.455,112.936c1.83,0.546,3.594-0.222,4.211-2.294c0.594-1.992-0.438-3.745-2.27-4.291
			c-1.871-0.559-2.814,0.256-3.858,1.696l-1.049,1.463c-1.208,1.698-2.439,2.449-4.392,1.867c-2.313-0.69-3.268-2.705-2.596-4.959
			c0.791-2.656,2.654-3.394,5.049-2.679l-0.252,0.844c-1.932-0.574-3.483-0.074-4.089,1.959c-0.479,1.608-0.173,3.3,2.06,3.966
			c1.59,0.474,2.612-0.163,3.406-1.285l1.381-1.911c1.195-1.658,2.419-2.454,4.531-1.824c2.556,0.762,3.44,3.084,2.762,5.358
			c-0.989,3.319-3.557,3.408-4.945,2.994l-0.945-0.282l0.252-0.844L36.455,112.936z"/>
		<path fill="#FFFFFF" d="M39.51,102.883c1.945,0.79,3.604,0.443,4.481-1.717c0.813-2.004-0.072-3.563-2.019-4.353L31.76,92.667
			l0.332-0.816l10.057,4.082c3.133,1.271,3.285,3.576,2.504,5.503c-0.781,1.925-2.303,3.552-5.63,2.201l-10.058-4.083l0.331-0.816
			L39.51,102.883z"/>
		<path fill="#FFFFFF" d="M33.55,88.759l0.403-0.784l12.623,6.508l2.879-5.583l0.71,0.366l-3.283,6.368L33.55,88.759z"/>
		<path fill="#FFFFFF" d="M39.254,79.941l-2.056,3.418l-0.684-0.411l4.565-7.593l0.684,0.411l-2.055,3.418l12.164,7.313
			l-0.454,0.757L39.254,79.941z"/>
		<path fill="#FFFFFF" d="M53.938,75.103l-3.283,4.596l2.963,3.871l-0.513,0.717l-9.489-12.508l0.647-0.905l14.811,5.059
			l-0.513,0.718L53.938,75.103z M44.651,71.848l-0.024,0.034l5.569,7.23l3.063-4.289L44.651,71.848z"/>
		<path fill="#FFFFFF" d="M49.068,64.603l14.538,4.052l0.028-0.031l-10.236-8.965l0.581-0.663l11.278,9.877l-0.761,0.869
			l-14.552-4.036l-0.027,0.031l10.235,8.966l-0.581,0.662l-11.278-9.877L49.068,64.603z"/>
		<path fill="#FFFFFF" d="M58.975,55.218l-2.896,2.741l-0.549-0.579l6.434-6.091l0.549,0.579l-2.896,2.742l9.757,10.306l-0.64,0.605
			L58.975,55.218z"/>
		<path fill="#FFFFFF" d="M70.952,58.293c1.185,1.499,3.067,1.885,4.765,0.544c1.632-1.287,1.796-3.317,0.611-4.816
			c-1.211-1.533-2.451-1.409-4.135-0.83l-1.698,0.594c-1.966,0.695-3.404,0.602-4.667-0.998c-1.497-1.895-1.119-4.094,0.727-5.551
			c2.176-1.718,4.124-1.25,5.673,0.712l-0.692,0.547c-1.249-1.583-2.808-2.064-4.472-0.75c-1.319,1.041-2.04,2.601-0.596,4.43
			c1.028,1.302,2.231,1.369,3.526,0.908l2.229-0.77c1.933-0.67,3.392-0.618,4.759,1.112c1.652,2.093,1.04,4.502-0.822,5.973
			c-2.719,2.148-4.871,0.744-5.769-0.393l-0.612-0.775l0.692-0.547L70.952,58.293z"/>
		<path fill="#FFFFFF" d="M89.092,41.734c3.279,5.696,1.518,8.066-0.32,9.125c-2.494,1.435-5.168,0.745-8.069-4.296
			s-2.045-7.764,0.339-9.135C83.626,35.94,86.191,36.694,89.092,41.734z M81.467,46.124c2.053,3.566,4.236,5.678,6.948,4.117
			c2.384-1.373,2.291-3.935-0.087-8.066c-2.021-3.513-4.292-5.646-6.931-4.128C78.85,39.513,79.414,42.557,81.467,46.124z"/>
		<path fill="#FFFFFF" d="M89.199,33.374l11.516,9.763l0.039-0.018l-5.552-12.427l0.806-0.359l6.117,13.692l-1.056,0.471
			l-11.534-9.753l-0.038,0.017l5.552,12.427l-0.807,0.358l-6.117-13.691L89.199,33.374z"/>
		<path fill="#FFFFFF" d="M101.396,33.228l0.829-0.299l0.726,2.017l-0.829,0.298L101.396,33.228z M104.204,41.035l0.83-0.299
			l0.726,2.017l-0.831,0.298L104.204,41.035z"/>
		<path fill="#FFFFFF" d="M109.23,25.885l0.859-0.201l1.501,6.399l6.401-1.502l-1.502-6.4l0.857-0.201l3.428,14.601l-0.859,0.202
			l-1.742-7.424l-6.4,1.503l1.742,7.423l-0.858,0.2L109.23,25.885z"/>
		<path fill="#FFFFFF" d="M123.783,23.776l-3.953,0.544l-0.109-0.79l8.781-1.21l0.109,0.791l-3.953,0.545l1.937,14.064l-0.874,0.12
			L123.783,23.776z"/>
		<path fill="#FFFFFF" d="M133.592,22.818l-3.982,0.209l-0.043-0.797l8.848-0.463l0.042,0.796l-3.983,0.209l0.742,14.173
			l-0.881,0.046L133.592,22.818z"/>
		<path fill="#FFFFFF" d="M140.762,21.779l3.883,0.137c3.503,0.187,3.981,2.684,3.924,4.301c-0.09,2.539-1.721,4.1-4.408,4.004
			l-2.812-0.1l-0.237,6.674l-0.882-0.031L140.762,21.779z M144.27,29.51c1.784,0.063,3.33-0.849,3.418-3.325
			c0.076-2.141-1.012-3.482-3.048-3.555l-3.022-0.106l-0.244,6.884L144.27,29.51z"/>
		<path fill="#FFFFFF" d="M150.702,35.208l0.878,0.092l-0.223,2.131l-0.877-0.092L150.702,35.208z M151.561,26.956l0.878,0.092
			l-0.222,2.131l-0.878-0.092L151.561,26.956z"/>
		<path fill="#FFFFFF" d="M160.735,23.349l0.83,0.129l-7.703,14.488l-0.83-0.129L160.735,23.349z"/>
		<path fill="#FFFFFF" d="M167.074,24.645l0.822,0.173l-8.472,14.046l-0.821-0.174L167.074,24.645z"/>
		<path fill="#FFFFFF" d="M172.137,27.051l-3.836-1.097l0.219-0.768l8.521,2.436l-0.22,0.768l-3.836-1.097l-3.901,13.649
			l-0.848-0.243L172.137,27.051z"/>
		<path fill="#FFFFFF" d="M179.277,28.382l0.822,0.32l-2.378,6.128l6.128,2.377l2.377-6.128l0.823,0.32l-5.424,13.979l-0.822-0.318
			l2.757-7.108l-6.127-2.378l-2.759,7.107l-0.822-0.319L179.277,28.382z"/>
		<path fill="#FFFFFF" d="M190.389,32.929l6.406,3.199l-0.356,0.715l-5.617-2.806l-2.674,5.354l5.241,2.617l-0.356,0.714
			l-5.241-2.618l-2.955,5.919l5.785,2.889l-0.355,0.714l-6.575-3.284L190.389,32.929z"/>
		<path fill="#FFFFFF" d="M203.492,45.18c1.06-1.714,1.109-3.831-0.766-4.991c-2.535-1.567-4.843,0.289-7.063,3.877
			c-2.12,3.429-3.014,6.432-0.442,8.021c2.464,1.523,4.843-1.004,5.46-2.005l0.751,0.464c-0.928,1.499-3.532,4.036-6.712,2.07
			c-2.768-1.711-2.379-4.854,0.171-8.979c2.474-3.999,5.211-5.911,8.175-4.079c2.982,1.845,1.948,4.834,1.176,6.085L203.492,45.18z"
			/>
		<path fill="#FFFFFF" d="M211.821,55.336c-4.008,5.208-6.871,4.488-8.552,3.196c-2.28-1.754-2.666-4.489,0.881-9.1
			c3.547-4.608,6.389-4.859,8.568-3.182C215.082,48.069,215.368,50.728,211.821,55.336z M204.85,49.972
			c-2.51,3.262-3.625,6.087-1.146,7.994c2.181,1.677,4.512,0.61,7.419-3.168c2.471-3.211,3.573-6.124,1.16-7.98
			C209.954,45.024,207.358,46.71,204.85,49.972z"/>
		<path fill="#FFFFFF" d="M219.631,52.282l-4.645,14.361l0.031,0.03l9.377-9.862l0.64,0.607l-10.333,10.866l-0.837-0.796
			l4.629-14.377l-0.03-0.028l-9.377,9.86l-0.64-0.606l10.333-10.866L219.631,52.282z"/>
		<path fill="#FFFFFF" d="M219.237,67.55c-1.447,1.248-1.752,3.146-0.339,4.785c1.358,1.574,3.393,1.65,4.84,0.402
			c1.48-1.275,1.303-2.51,0.65-4.166l-0.665-1.673c-0.78-1.935-0.748-3.376,0.794-4.707c1.829-1.578,4.043-1.296,5.579,0.485
			c1.812,2.101,1.427,4.068-0.466,5.7l-0.576-0.668c1.527-1.316,1.941-2.895,0.557-4.501c-1.098-1.272-2.688-1.926-4.453-0.403
			c-1.257,1.083-1.271,2.289-0.755,3.563l0.865,2.192c0.753,1.903,0.765,3.363-0.905,4.804c-2.021,1.742-4.455,1.233-6.006-0.563
			c-2.263-2.625-0.953-4.837,0.145-5.783l0.748-0.645l0.576,0.668L219.237,67.55z"/>
		<path fill="#FFFFFF" d="M226.055,75.55c-1.717,1.21-2.32,2.794-0.978,4.698c1.247,1.767,3.038,1.865,4.754,0.655l9.007-6.356
			l0.509,0.721l-8.87,6.259c-2.762,1.949-4.783,0.832-5.982-0.867c-1.198-1.697-1.745-3.857,1.189-5.927l8.869-6.259l0.509,0.721
			L226.055,75.55z"/>
		<path fill="#FFFFFF" d="M241.174,78.188l0.441,0.765l-12.291,7.108l3.145,5.438l-0.691,0.398l-3.586-6.199L241.174,78.188z"/>
		<path fill="#FFFFFF" d="M245.521,87.749l-1.771-3.574l0.715-0.354l3.935,7.938l-0.714,0.355l-1.772-3.574l-12.716,6.303
			l-0.392-0.79L245.521,87.749z"/>
		<path fill="#FFFFFF" d="M241.691,102.724l-2.107-5.24l-4.857,0.415l-0.329-0.818l15.649-1.269l0.415,1.031l-12.233,9.764
			l-0.329-0.819L241.691,102.724z M249.432,96.646l-0.016-0.038l-9.091,0.804l1.966,4.89L249.432,96.646z"/>
		<path fill="#FFFFFF" d="M253.154,104.245l-11.242,10.077l0.012,0.039l13.068-3.805l0.246,0.847l-14.398,4.192l-0.323-1.108
			l11.235-10.097l-0.012-0.041l-13.067,3.806l-0.247-0.848l14.399-4.192L253.154,104.245z"/>
		<path fill="#FFFFFF" d="M255.744,117.654l-0.754-3.92l0.784-0.151l1.674,8.706l-0.784,0.151l-0.754-3.92l-13.945,2.682
			l-0.167-0.867L255.744,117.654z"/>
		<path fill="#FFFFFF" d="M246.694,126.076c-1.901,0.192-3.239,1.572-3.022,3.724c0.209,2.068,1.831,3.298,3.732,3.106
			c1.943-0.196,2.506-1.308,2.922-3.039l0.415-1.75c0.47-2.032,1.323-3.193,3.351-3.399c2.402-0.242,4.053,1.26,4.288,3.599
			c0.278,2.759-1.165,4.148-3.65,4.398l-0.089-0.876c2.006-0.202,3.25-1.257,3.037-3.366c-0.168-1.673-1.095-3.119-3.414-2.885
			c-1.65,0.166-2.354,1.145-2.662,2.484l-0.55,2.292c-0.474,1.989-1.303,3.191-3.496,3.413c-2.653,0.268-4.355-1.544-4.594-3.906
			c-0.348-3.445,1.993-4.505,3.435-4.65l0.982-0.1l0.088,0.878L246.694,126.076z"/>
		<path fill="#FFFFFF" d="M245.755,135.143l0.038,0.882l-2.139,0.093l-0.039-0.88L245.755,135.143z"/>
		<path fill="#FFFFFF" d="M258.789,139.696l-0.118,4.029c-0.086,2.938-1.626,3.879-3.851,3.814
			c-2.014-0.061-3.115-1.205-3.275-2.869l-0.043-0.002c-0.209,2.158-1.815,3.203-3.872,3.144c-2.519-0.074-4.022-1.757-3.945-4.4
			l0.121-4.155L258.789,139.696z M244.407,143.119c-0.071,2.433,0.794,3.74,3.27,3.813c2.665,0.077,3.446-1.518,3.51-3.658
			l0.085-2.916l-6.778-0.199L244.407,143.119z M251.9,143.253c-0.057,1.931,0.826,3.343,2.946,3.405
			c2.035,0.059,3.052-0.918,3.107-2.85l0.095-3.252l-6.064-0.179L251.9,143.253z"/>
		<path fill="#FFFFFF" d="M247.191,156.547l0.707-5.604l-4.445-2l0.109-0.875l14.29,6.501l-0.139,1.104l-15.437,2.581l0.111-0.875
			L247.191,156.547z M256.91,155l0.005-0.041l-8.335-3.718l-0.659,5.229L256.91,155z"/>
		<path fill="#FFFFFF" d="M256.477,163.441l-14.723,3.354l-0.01,0.04l13.274,3.018l-0.195,0.86l-14.627-3.324l0.256-1.127
			l14.729-3.375l0.009-0.04l-13.274-3.018l0.195-0.86l14.627,3.324L256.477,163.441z"/>
		<path fill="#FFFFFF" d="M253.839,174.163l-1.093,3.245c-1.012,3.005-2.996,4.685-8.826,2.722c-5.832-1.964-6.287-4.82-5.383-7.507
			l1.093-3.244L253.839,174.163z M239.214,172.851c-1.019,3.024,0.629,4.976,4.987,6.443c4.357,1.468,6.77,1.15,7.868-2.114
			l0.812-2.407l-12.855-4.33L239.214,172.851z"/>
		<path fill="#FFFFFF" d="M242.74,190.717c1.838,0.83,3.943,0.606,4.851-1.403c1.227-2.718-0.912-4.766-4.759-6.503
			c-3.674-1.659-6.768-2.157-8.012,0.599c-1.192,2.641,1.623,4.673,2.694,5.156l-0.362,0.804c-1.607-0.726-4.461-2.981-2.922-6.388
			c1.339-2.967,4.506-2.988,8.926-0.992c4.287,1.936,6.537,4.402,5.103,7.58c-1.442,3.195-4.541,2.557-5.882,1.952L242.74,190.717z"
			/>
		<path fill="#FFFFFF" d="M232.617,196.606l2.81-4.9l-3.334-3.559l0.438-0.764l10.69,11.5l-0.554,0.967l-15.244-3.559l0.438-0.766
			L232.617,196.606z M242.184,198.92l0.021-0.037l-6.263-6.64l-2.622,4.572L242.184,198.92z"/>
		<path fill="#FFFFFF" d="M232.102,213.487l0.024-0.033l-8.646-11.655l0.521-0.712l13.728,4.706l0.024-0.034l-11.186-8.18
			l0.521-0.713l12.101,8.851l-0.843,1.151l-13.396-4.516l-0.025,0.034l8.428,11.313l-0.855,1.168l-12.102-8.849l0.521-0.712
			L232.102,213.487z"/>
		<path fill="#FFFFFF" d="M230.041,217.676l-2.624,2.863c-2.415,2.543-4.624,1.287-5.815,0.195c-1.873-1.716-2.001-3.969-0.187-5.95
			l1.9-2.073l-4.922-4.51l0.595-0.65L230.041,217.676z M221.885,215.328c-1.205,1.316-1.515,3.083,0.313,4.757
			c1.578,1.446,3.304,1.488,4.68-0.012l2.042-2.229l-5.077-4.651L221.885,215.328z"/>
		<path fill="#FFFFFF" d="M215.265,214.665l-0.624,0.625l-1.515-1.516l0.624-0.623L215.265,214.665z"/>
		<path fill="#FFFFFF" d="M212.139,229.064c1.316,1.527,3.321,2.21,4.991,0.77c2.259-1.947,1.182-4.707-1.575-7.904
			c-2.634-3.055-5.229-4.81-7.52-2.835c-2.195,1.894-0.498,4.924,0.27,5.813l-0.668,0.576c-1.152-1.336-2.788-4.584,0.043-7.026
			c2.465-2.126,5.347-0.812,8.516,2.863c3.072,3.563,4.073,6.749,1.433,9.026c-2.656,2.292-5.197,0.406-6.158-0.708L212.139,229.064
			z"/>
		<path fill="#FFFFFF" d="M199.949,233.957c-3.768-5.39-2.219-7.906-0.48-9.121c2.359-1.649,5.085-1.196,8.418,3.573
			s2.719,7.558,0.463,9.134C205.904,239.252,203.281,238.726,199.949,233.957z M207.164,228.915
			c-2.359-3.375-4.72-5.287-7.286-3.494c-2.256,1.576-1.938,4.121,0.794,8.031c2.322,3.322,4.771,5.251,7.27,3.506
			C210.351,235.272,209.522,232.29,207.164,228.915z"/>
		<path fill="#FFFFFF" d="M191.602,245.837l0.037-0.02l-2.631-14.273l0.78-0.41l10.256,10.271l0.037-0.021l-6.443-12.272l0.78-0.41
			l6.971,13.277l-1.264,0.664l-10.043-9.956l-0.037,0.02l2.586,13.871l-1.282,0.674l-6.972-13.277l0.781-0.41L191.602,245.837z"/>
	</g>
</g>
<g id="Bleed_x2F_Abbondanza">
</g>
</svg>
