<?xml version="1.0" encoding="utf-8"?>
<!-- Generator: Adobe Illustrator 16.0.0, SVG Export Plug-In . SVG Version: 6.00 Build 0)  -->
<!DOCTYPE svg PUBLIC "-//W3C//DTD SVG 1.1//EN" "http://www.w3.org/Graphics/SVG/1.1/DTD/svg11.dtd">
<svg version="1.1" id="Layer_1" xmlns="http://www.w3.org/2000/svg" xmlns:xlink="http://www.w3.org/1999/xlink" x="0px" y="0px"
	 width="354.44px" height="49.75px" viewBox="0 0 354.44 49.75" enable-background="new 0 0 354.44 49.75" xml:space="preserve">
<g>
	<path fill="#FFFFFF" d="M22.36,16.79c-0.42,0.39-1.96,12.88-1.75,13.46c0.21,0.58,2.73,0.1,5.18,0.1c0.63,0,0.49,5.27,0.14,5.27
		c-2.17,0.2-5.6,0-5.95,0.49c-0.21,0.29-1.05,8.88-2.03,12c-0.35,0.98-3.71,0.88-3.85-0.29c-0.07-1.56,1.47-10.73,1.4-11.32
		c-0.07-0.39-6.23-0.49-6.58,0c-0.21,0.29-0.7,7.51-1.61,10.64c-0.28,0.98-3.99,1.27-4.06,0C3.18,44.31,4.58,36.99,4.37,36.5
		c-0.28-0.68-1.75-0.29-4.06-0.78c-0.49-0.1-0.35-5.27,0.07-5.37c2.1-0.29,4.41-0.1,4.83-0.39c0.42-0.29,2.1-12.59,1.89-12.98
		c-0.35-0.58-3.22,0-5.46-0.68c-0.84-0.29-0.7-4.78,0.14-5.17c2.03-0.88,5.11,0.2,5.74-0.39c0.35-0.39,1.12-5.66,1.47-9.08
		c0.21-0.98,4.13-0.98,4.06,0.29c-0.07,2.64-1.05,8.49-0.7,8.78c0.42,0.29,6.02,0.29,6.3,0c0.28-0.29,0.91-5.66,1.26-9.08
		c0.07-0.98,3.99-0.98,3.92,0.29c-0.21,2.93-0.98,8.68-0.77,8.88c0.35,0.39,2.31,0.39,4.06,0.29c0.7,0,0.84,5.07,0.21,5.37
		C25.23,16.99,22.78,16.4,22.36,16.79z M11.65,16.99c-0.21,0.29-1.96,12.98-1.75,13.27s5.74,0.39,6.02,0
		c0.28-0.39,2.1-12.78,1.96-13.27C17.74,16.6,12,16.5,11.65,16.99z"/>
	<path fill="#FFFFFF" d="M46.51,46.71c-2.38,2.66-5.74,3.01-7.35,3.01c-1.61,0-2.73,0-4.34,0c-0.7,0-1.33,0.07-1.68-0.49
		c-0.35-0.49-0.35-1.26-0.35-1.75c0-17.22,0-27.79,0-44.6c0-0.7,0-1.4,0.42-1.82c0.56-0.49,1.12-0.35,1.68-0.35c1.54,0,2.66,0,4.2,0
		c2.24,0,5.25,0.56,7.35,2.45c2.1,1.96,2.59,4.76,2.59,7.28c0,11.06,0,18.41,0,29.4C49.03,41.53,49.03,43.77,46.51,46.71z
		 M44.48,10.44c0-1.54-0.21-2.8-1.47-4.06c-0.77-0.77-1.33-1.05-3.22-1.05c-1.26,0-1.96,0-2.24,0.49c-0.21,0.42-0.21,0.77-0.21,1.19
		c0,13.79,0,22.54,0,35.91c0,0.77-0.07,1.54,0.42,2.03c0.28,0.28,1.33,0.21,1.61,0.21c0.77,0,2.45-0.21,3.71-1.54
		c1.4-1.54,1.4-2.66,1.4-3.71C44.48,29.06,44.48,21.36,44.48,10.44z"/>
	<path fill="#FFFFFF" d="M68,49.72c-1.61,0-2.1,0.07-2.1-0.98c0-6.23,0-12.18,0-17.78c0-2.87-1.89-4.62-3.43-4.62
		c-3.29,0-3.71-0.07-3.71,1.05c0,6.51,0,13.65,0,21.21c0,1.12-0.28,1.12-2.38,1.12c-1.61,0-2.1,0-2.1-0.98c0-17.22,0-29.19,0-45.85
		c0-0.7,0.07-1.47,0.49-1.89c0.56-0.49,1.05-0.28,1.61-0.28c1.47,0,2.52,0,3.99,0c2.24,0,5.25,0.56,7.35,2.45
		c2.1,1.96,2.59,4.83,2.59,7.28c0,2.38,0,3.92,0,6.3c0,1.68,0.07,2.87-0.77,4.41c-1.05,1.96-3.29,2.52-3.29,2.8
		c0,0.28,2.31,0.7,3.36,2.8c0.84,1.68,0.77,2.73,0.77,4.41c0,6.09,0,11.34,0,17.43C70.38,49.72,69.89,49.72,68,49.72z M65.76,10.44
		c0-1.61-0.21-2.8-1.47-4.06c-0.77-0.77-1.19-1.05-3.71-1.05c-0.63,0-1.26,0-1.54,0.49c-0.21,0.42-0.21,0.77-0.21,1.19
		c0,5.04,0,8.19,0,13.09c0,0.77-0.14,1.54,0.42,1.96c0.42,0.35,0.91,0.28,1.26,0.28c0.77,0,2.59-0.21,3.85-1.54
		c1.4-1.54,1.4-2.73,1.4-3.71C65.76,14.57,65.76,12.96,65.76,10.44z"/>
	<path fill="#FFFFFF" d="M77.87,49.65c-1.89,0-2.1,0-2.1-0.98c0-17.57,0-30.03,0-46.83c0-0.91,0.42-1.05,2.1-1.05
		c1.89,0,2.38,0.07,2.38,1.12c0,16.73,0,29.12,0,46.63C80.25,49.58,80.11,49.65,77.87,49.65z"/>
	<path fill="#FFFFFF" d="M100.34,49.72c-1.05,0-1.96-0.35-2.52-2.73c-2.1-8.89-3.22-13.93-5.46-22.61
		c-0.49-1.82-1.05-5.11-1.47-5.11s-0.49,0.84-0.49,1.26c0,9.66,0,17.71,0,27.93c0,1.12-0.35,1.26-2.24,1.26
		c-2.03,0-2.31-0.14-2.31-1.26c0-17.5,0-30.45,0-47.04c0-0.7,0.49-0.7,1.75-0.7c1.96,0,2.45,0.42,3.15,3.08
		c2.17,8.68,3.57,14.42,5.74,23.1c0.14,0.63,0.42,1.68,0.77,1.68c0.35,0,0.42-0.84,0.42-1.26c0-8.82,0-16.1,0-25.34
		c0-1.12,0.35-1.26,2.38-1.26c1.61,0,2.03,0.07,2.03,1.05c0,16.8,0,28.21,0,45.09C102.09,49.37,102.02,49.72,100.34,49.72z"/>
	<path fill="#FFFFFF" d="M121.55,49.72c-1.4,0-2.17,0.14-2.45-0.98c-1.89-7.56-3.08-12.18-4.9-19.74c-0.14-0.63-0.63-0.77-1.47,1.12
		c-0.42,0.98-0.56,1.89-0.56,2.94c0,5.32,0,10.08,0,15.4c0,1.12-0.28,1.26-2.31,1.26c-1.82,0-2.17-0.14-2.17-1.12
		c0-17.57,0-30.03,0-46.84c0-0.91,0.56-0.98,2.1-0.98c1.61,0,2.38,0,2.38,1.05c0,5.74,0,11.34,0,16.94c0,0.49-0.07,1.54,0.35,1.4
		c0.21-0.07,0.35-0.84,0.49-1.33c1.96-6.72,2.87-10.36,4.83-17.15c0.21-0.77,0.7-0.7,2.52-0.7c1.82,0,2.45,0.28,2.31,0.7
		c-2.1,7.49-3.08,10.78-5.11,17.85c-0.21,0.84-0.28,1.61-0.28,2.31c0,0.63,0.14,1.61,0.28,2.52c2.45,9.73,3.71,14.14,6.3,24.5
		C123.93,49.3,123.72,49.72,121.55,49.72z"/>
	<path fill="#FFFFFF" d="M139.82,49.72c-2.03,0-2.38,0.14-2.52-0.84c-0.56-3.92-0.98-7.42-1.54-11.27c-0.07-0.7-1.05-0.63-2.17-0.63
		c-1.33,0-2.03-0.07-2.1,0.63c-0.42,3.92-0.77,7.35-1.12,11.41c-0.07,0.77-0.7,0.7-2.94,0.7c-1.05,0-1.96,0-1.89-0.63
		c2.17-18.2,4.06-31.64,6.02-47.4c0.14-0.98,0.49-1.05,2.03-1.05c1.75,0,2.31,0.07,2.38,1.26c2.38,17.92,3.64,28.84,6.02,47.11
		C142.06,49.79,141.71,49.72,139.82,49.72z M134.08,17.16c0-0.28-0.07-0.77-0.49-0.77c-0.35,0-0.42,0.49-0.42,0.7
		c-0.42,5.88-0.7,10.78-1.05,15.4c-0.07,0.49,0.56,0.63,1.54,0.63c0.84,0,1.61,0,1.54-0.56C134.71,26.54,134.5,22.69,134.08,17.16z"
		/>
	<path fill="#FFFFFF" d="M158.02,49.72c-3.71,0-9.52,0-10.43,0c-0.77,0-1.54-0.07-1.82-0.49c-0.35-0.56-0.28-1.61-0.28-2.52
		c0-16.8,0-28.35,0-45.08c0-1.05,0.7-0.91,2.1-0.91c1.82,0,2.45,0,2.45,1.05c0,15.33,0,26.11,0,41.23c0,0.91-0.14,2.03,0.49,2.52
		c0.28,0.14,1.05,0.21,1.61,0.21c1.19,0,4.69,0,5.88,0c0.91,0,0.98,0.56,0.98,1.89C159,49.37,158.93,49.72,158.02,49.72z"/>
	<path fill="#FFFFFF" d="M175.03,49.72c-3.71,0-9.52,0-10.43,0c-0.77,0-1.54-0.07-1.82-0.49c-0.35-0.56-0.28-1.61-0.28-2.52
		c0-16.8,0-28.35,0-45.08c0-1.05,0.7-0.91,2.1-0.91c1.82,0,2.45,0,2.45,1.05c0,15.33,0,26.11,0,41.23c0,0.91-0.14,2.03,0.49,2.52
		c0.28,0.14,1.05,0.21,1.61,0.21c1.19,0,4.69,0,5.88,0c0.91,0,0.98,0.56,0.98,1.89C176.01,49.37,175.94,49.72,175.03,49.72z"/>
	<path fill="#FFFFFF" d="M188.89,4.7c-0.84,0-1.82-0.07-3.01,0c-0.56,0-1.12,0-1.47,0.14c-0.63,0.49-0.49,1.68-0.49,2.59
		c0,15.47,0,26.25,0,41.58c0,0.63-1.05,0.7-2.52,0.7c-1.26,0-2.17,0-2.17-0.7c0-15.33,0-26.18,0-41.58c0-0.91,0.14-2.1-0.49-2.59
		c-0.35-0.14-0.91-0.14-1.47-0.14c-0.98,0-1.96,0-2.59,0c-1.05,0-1.26-0.35-1.26-1.89c0-1.54,0.14-2.1,0.98-2.1
		c4.41,0,10.01,0,14.42,0c0.84,0,0.91,0.7,0.91,2.1C189.73,4.42,189.66,4.7,188.89,4.7z"/>
	<path fill="#FFFFFF" d="M206.74,49.65c-2.1,0-2.31-0.07-2.31-1.4c0-6.65,0-12.46,0-19.11c0-0.84,0.07-2.24-0.42-2.38
		c-0.77-0.42-6.02-0.14-6.3,0.07c-0.63,0.42-0.49,1.61-0.49,2.52c0,6.79,0,12.39,0,19.18c0,1.12-0.42,1.12-2.38,1.12
		c-1.82,0-2.1,0-2.1-0.98c0-17.57,0-29.82,0-46.63c0-0.91,0.28-1.26,2.1-1.26c1.96,0,2.45,0.28,2.45,1.33c0,5.74,0,10.85,0,16.52
		c0,1.19-0.21,2.59,0.84,3.15c0.56,0.21,5.11,0.42,5.81,0c0.63-0.42,0.49-1.89,0.49-2.94c0-5.88,0-11.97,0-17.01
		c0-1.26,0.56-1.05,2.24-1.05c1.96,0,2.31,0,2.31,1.12c0,16.59,0,29.05,0,46.35C208.98,49.51,209.05,49.65,206.74,49.65z"/>
	<path fill="#FFFFFF" d="M228.3,49.72c-3.01,0-7.49,0-10.5,0c-1.12,0-2.31,0.14-2.8-0.28c-0.56-0.49-0.42-1.54-0.42-2.38
		c0-16.8,0-27.44,0-44.25c0-0.91,0.07-0.98,0.49-1.54c0.42-0.56,0.91-0.56,1.61-0.56c3.85,0,7.77,0,11.62,0
		c0.84,0,0.84,0.84,0.84,2.1c0,1.33,0,1.89-0.91,1.89c-1.89,0-5.67,0-7,0c-0.56,0-1.4,0.07-1.61,0.35
		c-0.35,0.49-0.35,0.42-0.35,1.33c0,4.69,0,8.61,0,13.3c0,0.63-0.14,1.4,0.42,1.82c0.49,0.35,0.98,0.28,1.54,0.28
		c1.19,0,2.66,0,3.29,0c0.84,0,0.98,0.56,0.98,2.03c0,1.4-0.07,1.96-0.98,1.96c-0.56,0-1.89,0-3.15,0c-0.7,0-1.47,0.07-1.75,0.21
		c-0.63,0.42-0.49,1.12-0.49,2.03c0,5.6,0,9.45,0,15.05c0,0.91,0,2.24,0.35,2.45c0.35,0.21,1.33,0.28,2.1,0.28c1.89,0,4.76,0,6.65,0
		c0.84,0,0.91,0.42,0.91,1.96C229.14,49.3,229.07,49.72,228.3,49.72z"/>
	<path fill="#FFFFFF" d="M249.44,49.72c-1.82,0-2.24-0.14-2.24-1.26c0-8.89,0-15.54,0-24.43c0-2.73,0-7.14-0.49-7.14
		c-0.49,0-0.7,0.77-0.84,1.19c-0.98,3.78-1.54,5.67-2.59,9.31c-0.14,0.49-0.21,1.05-0.98,1.05c-0.63,0-0.84-0.56-1.05-0.98
		c-0.84-3.29-1.4-5.46-2.38-9.24c-0.14-0.49-0.42-1.12-0.98-1.12c-0.42,0-0.35,4.27-0.35,6.93c0,8.89,0,15.54,0,24.43
		c0,1.12-0.42,1.26-2.24,1.26c-1.96,0-2.31-0.14-2.31-1.26c0-17.5,0-30.1,0-46.69c0-1.12,0.63-0.98,1.96-0.98
		c1.54,0,1.82,0.35,2.94,3.85c1.4,4.41,2.45,7.63,3.64,11.34c0.14,0.35,0.42,0.77,0.84,0.77c0.35,0,0.7-0.42,0.84-0.77
		c1.47-4.41,2.17-6.72,3.64-11.34c1.05-3.36,1.19-3.92,2.73-3.92c1.54,0,2.17,0,2.17,1.05c0,16.59,0,29.19,0,46.69
		C251.75,49.58,251.54,49.72,249.44,49.72z"/>
	<path fill="#FFFFFF" d="M259.44,49.65c-1.89,0-2.1,0-2.1-0.98c0-17.57,0-30.03,0-46.83c0-0.91,0.42-1.05,2.1-1.05
		c1.89,0,2.38,0.07,2.38,1.12c0,16.73,0,29.12,0,46.63C261.83,49.58,261.69,49.65,259.44,49.65z"/>
	<path fill="#FFFFFF" d="M281.92,49.72c-1.05,0-1.96-0.35-2.52-2.73c-2.1-8.89-3.22-13.93-5.46-22.61
		c-0.49-1.82-1.05-5.11-1.47-5.11s-0.49,0.84-0.49,1.26c0,9.66,0,17.71,0,27.93c0,1.12-0.35,1.26-2.24,1.26
		c-2.03,0-2.31-0.14-2.31-1.26c0-17.5,0-30.45,0-47.04c0-0.7,0.49-0.7,1.75-0.7c1.96,0,2.45,0.42,3.15,3.08
		c2.17,8.68,3.57,14.42,5.74,23.1c0.14,0.63,0.42,1.68,0.77,1.68s0.42-0.84,0.42-1.26c0-8.82,0-16.1,0-25.34
		c0-1.12,0.35-1.26,2.38-1.26c1.61,0,2.03,0.07,2.03,1.05c0,16.8,0,28.21,0,45.09C283.67,49.37,283.6,49.72,281.92,49.72z"/>
	<path fill="#FFFFFF" d="M291.36,49.65c-1.89,0-2.1,0-2.1-0.98c0-17.57,0-30.03,0-46.83c0-0.91,0.42-1.05,2.1-1.05
		c1.89,0,2.38,0.07,2.38,1.12c0,16.73,0,29.12,0,46.63C293.75,49.58,293.6,49.65,291.36,49.65z"/>
	<path fill="#FFFFFF" d="M313.07,46.71c-2.38,2.66-5.67,3.01-7.35,3.01c-1.26,0-2.17,0.07-3.43,0c-0.84-0.07-2.1,0.07-2.38-0.35
		c-0.42-0.63-0.56-0.49-0.56-2.38c0-16.52,0-27.44,0-44.1c0-0.7,0-1.33,0.42-1.75c0.56-0.49,1.12-0.42,1.68-0.42
		c1.47,0,2.52,0,3.99,0c2.17,0,5.25,0.56,7.35,2.45c2.1,1.96,2.59,4.76,2.59,7.28c0,2.38,0,3.92,0,6.3c0,1.68,0.07,2.87-0.77,4.41
		c-1.05,1.96-3.22,2.52-3.22,2.8c0,0.28,2.38,0.7,3.43,2.8c0.84,1.68,0.77,2.73,0.77,4.41c0,3.29,0,5.39,0,8.68
		C315.59,41.6,315.59,43.77,313.07,46.71z M310.83,10.44c0-1.61-0.21-2.8-1.47-4.06c-0.77-0.77-1.26-1.05-3.22-1.05
		c-0.98,0-1.75,0-2.03,0.49c-0.21,0.42-0.21,0.77-0.21,1.19c0,5.04,0,8.19,0,13.09c0,0.77-0.07,1.4,0.42,1.89
		c0.42,0.42,0.7,0.35,1.26,0.35c0.98,0,2.59-0.21,3.85-1.54c1.4-1.54,1.4-2.59,1.4-3.71C310.83,14.57,310.83,12.96,310.83,10.44z
		 M311.11,30.96c0-3.22-1.89-4.62-3.99-4.62c-3.01,0-3.22,0.21-3.22,1.89c0,4.34,0,9.17,0,14.7c0,0.77,0.07,2.1,0.7,2.17
		c0.56,0.07,0.63,0.07,1.26,0.07c0.77,0,2.52-0.21,3.78-1.54c1.4-1.54,1.47-2.52,1.47-3.71C311.11,36.56,311.11,34.17,311.11,30.96z
		"/>
	<path fill="#FFFFFF" d="M332.67,49.72c-2.03,0-2.38,0.14-2.52-0.84c-0.56-3.92-0.98-7.42-1.54-11.27c-0.07-0.7-1.05-0.63-2.17-0.63
		c-1.33,0-2.03-0.07-2.1,0.63c-0.42,3.92-0.77,7.35-1.12,11.41c-0.07,0.77-0.7,0.7-2.94,0.7c-1.05,0-1.96,0-1.89-0.63
		c2.17-18.2,4.06-31.64,6.02-47.4c0.14-0.98,0.49-1.05,2.03-1.05c1.75,0,2.31,0.07,2.38,1.26c2.38,17.92,3.64,28.84,6.02,47.11
		C334.91,49.79,334.56,49.72,332.67,49.72z M326.92,17.16c0-0.28-0.07-0.77-0.49-0.77c-0.35,0-0.42,0.49-0.42,0.7
		c-0.42,5.88-0.7,10.78-1.05,15.4c-0.07,0.49,0.56,0.63,1.54,0.63c0.84,0,1.61,0,1.54-0.56C327.55,26.54,327.34,22.69,326.92,17.16z
		"/>
	<path fill="#FFFFFF" d="M352.05,49.72c-1.61,0-2.1,0.07-2.1-0.98c0-6.23,0-12.18,0-17.78c0-2.87-1.89-4.62-3.43-4.62
		c-3.29,0-3.71-0.07-3.71,1.05c0,6.51,0,13.65,0,21.21c0,1.12-0.28,1.12-2.38,1.12c-1.61,0-2.1,0-2.1-0.98c0-17.22,0-29.19,0-45.85
		c0-0.7,0.07-1.47,0.49-1.89c0.56-0.49,1.05-0.28,1.61-0.28c1.47,0,2.52,0,3.99,0c2.24,0,5.25,0.56,7.35,2.45
		c2.1,1.96,2.59,4.83,2.59,7.28c0,2.38,0,3.92,0,6.3c0,1.68,0.07,2.87-0.77,4.41c-1.05,1.96-3.29,2.52-3.29,2.8
		c0,0.28,2.31,0.7,3.36,2.8c0.84,1.68,0.77,2.73,0.77,4.41c0,6.09,0,11.34,0,17.43C354.43,49.72,353.94,49.72,352.05,49.72z
		 M349.81,10.44c0-1.61-0.21-2.8-1.47-4.06c-0.77-0.77-1.19-1.05-3.71-1.05c-0.63,0-1.26,0-1.54,0.49
		c-0.21,0.42-0.21,0.77-0.21,1.19c0,5.04,0,8.19,0,13.09c0,0.77-0.14,1.54,0.42,1.96c0.42,0.35,0.91,0.28,1.26,0.28
		c0.77,0,2.59-0.21,3.85-1.54c1.4-1.54,1.4-2.73,1.4-3.71C349.81,14.57,349.81,12.96,349.81,10.44z"/>
</g>
</svg>
