<?xml version="1.0" encoding="utf-8"?>
<!-- Generator: Adobe Illustrator 16.0.0, SVG Export Plug-In . SVG Version: 6.00 Build 0)  -->
<!DOCTYPE svg PUBLIC "-//W3C//DTD SVG 1.1//EN" "http://www.w3.org/Graphics/SVG/1.1/DTD/svg11.dtd">
<svg version="1.1" id="Layer_1" xmlns="http://www.w3.org/2000/svg" xmlns:xlink="http://www.w3.org/1999/xlink" x="0px" y="0px"
	 width="103.72px" height="49.03px" viewBox="0 0 103.72 49.03" enable-background="new 0 0 103.72 49.03" xml:space="preserve">
<g>
	<path fill="#FFFFFF" d="M13.37,49.01c-3.96,0-10.15,0-11.13,0c-0.82,0-1.64-0.07-1.94-0.49c-0.37-0.56-0.3-1.61-0.3-2.52
		c0-16.8,0-28.35,0-45.09c0-1.05,0.75-0.91,2.24-0.91c1.94,0,2.61,0,2.61,1.05c0,15.33,0,26.11,0,41.23c0,0.91-0.15,2.03,0.52,2.52
		c0.3,0.14,1.12,0.21,1.72,0.21c1.27,0,5,0,6.27,0c0.97,0,1.04,0.56,1.04,1.89C14.42,48.66,14.34,49.01,13.37,49.01z"/>
	<path fill="#FFFFFF" d="M20.39,48.94c-2.02,0-2.24,0-2.24-0.98c0-17.57,0-30.03,0-46.83c0-0.91,0.45-1.05,2.24-1.05
		c2.02,0,2.54,0.07,2.54,1.12c0,16.73,0,29.12,0,46.63C22.93,48.87,22.78,48.94,20.39,48.94z"/>
	<path fill="#FFFFFF" d="M36.29,49.01c-4.85,0-8.66-2.59-8.66-8.12c0-0.28,0-3.64,0-3.92c0-0.77,0.52-0.91,2.46-0.91
		c1.79,0,2.54,0.07,2.54,0.77c0,0.42,0,3.43,0,3.85c0,1.75,0.97,3.64,3.66,3.64c3.21,0,3.81-2.24,3.81-3.85c0-1.68,0-3.08,0-4.27
		c0-3.71-2.91-7.63-5.9-11.55c-3.14-4.13-6.65-8.61-6.65-12.74c0-1.12,0-2.1,0-3.57C27.56,4.7,29.87,0,36.07,0
		c5.67,0,8.51,4.69,8.51,8.26c0,0.42,0,2.8,0,3.22c0,0.56-0.9,0.56-2.61,0.56c-1.42,0-2.39,0-2.39-0.63c0-0.42,0-2.94,0-3.29
		c0-2.31-1.87-3.78-3.51-3.78c-2.09,0-3.66,1.96-3.66,3.71c0,1.68,0,2.73,0,3.85c0,2.66,2.91,6.23,5.75,9.94
		c3.28,4.27,6.79,9.17,6.79,14.42c0,1.33,0,2.87,0,4.62C44.95,45.65,41.15,49.01,36.29,49.01z"/>
	<path fill="#FFFFFF" d="M62.65,4c-0.9,0-1.94-0.07-3.21,0c-0.6,0-1.19,0-1.57,0.14c-0.67,0.49-0.52,1.68-0.52,2.59
		c0,15.47,0,26.25,0,41.58c0,0.63-1.12,0.7-2.69,0.7c-1.34,0-2.31,0-2.31-0.7c0-15.33,0-26.18,0-41.58c0-0.91,0.15-2.1-0.52-2.59
		C51.45,4,50.86,4,50.26,4c-1.04,0-2.09,0-2.76,0c-1.12,0-1.34-0.35-1.34-1.89c0-1.54,0.15-2.1,1.04-2.1c4.7,0,10.68,0,15.38,0
		c0.9,0,0.97,0.7,0.97,2.1C63.55,3.72,63.47,4,62.65,4z"/>
	<path fill="#FFFFFF" d="M81.39,49.01c-3.21,0-7.99,0-11.2,0c-1.19,0-2.46,0.14-2.99-0.28c-0.6-0.49-0.45-1.54-0.45-2.38
		c0-16.8,0-27.44,0-44.25c0-0.91,0.07-0.98,0.52-1.54C67.73,0,68.25,0,69,0c4.11,0,8.29,0,12.39,0c0.9,0,0.9,0.84,0.9,2.1
		c0,1.33,0,1.89-0.97,1.89c-2.02,0-6.05,0-7.47,0c-0.6,0-1.49,0.07-1.72,0.35c-0.37,0.49-0.37,0.42-0.37,1.33c0,4.69,0,8.61,0,13.3
		c0,0.63-0.15,1.4,0.45,1.82c0.52,0.35,1.05,0.28,1.64,0.28c1.27,0,2.84,0,3.51,0c0.9,0,1.04,0.56,1.04,2.03
		c0,1.4-0.07,1.96-1.04,1.96c-0.6,0-2.02,0-3.36,0c-0.75,0-1.57,0.07-1.87,0.21c-0.67,0.42-0.52,1.12-0.52,2.03
		c0,5.6,0,9.45,0,15.05c0,0.91,0,2.24,0.37,2.45c0.37,0.21,1.42,0.28,2.24,0.28c2.02,0,5.08,0,7.09,0c0.9,0,0.97,0.42,0.97,1.96
		C82.29,48.59,82.21,49.01,81.39,49.01z"/>
	<path fill="#FFFFFF" d="M101.85,49.01c-1.12,0-2.09-0.35-2.69-2.73c-2.24-8.89-3.43-13.93-5.82-22.61
		c-0.52-1.82-1.12-5.11-1.57-5.11s-0.52,0.84-0.52,1.26c0,9.66,0,17.71,0,27.93c0,1.12-0.37,1.26-2.39,1.26
		c-2.17,0-2.46-0.14-2.46-1.26c0-17.5,0-30.45,0-47.04c0-0.7,0.52-0.7,1.87-0.7c2.09,0,2.61,0.42,3.36,3.08
		c2.31,8.68,3.81,14.42,6.12,23.1c0.15,0.63,0.45,1.68,0.82,1.68s0.45-0.84,0.45-1.26c0-8.82,0-16.1,0-25.34
		c0-1.12,0.37-1.26,2.54-1.26c1.72,0,2.16,0.07,2.16,1.05c0,16.8,0,28.21,0,45.08C103.72,48.66,103.64,49.01,101.85,49.01z"/>
</g>
</svg>
