<?xml version="1.0" encoding="utf-8"?>
<!-- Generator: Adobe Illustrator 16.0.0, SVG Export Plug-In . SVG Version: 6.00 Build 0)  -->
<!DOCTYPE svg PUBLIC "-//W3C//DTD SVG 1.1//EN" "http://www.w3.org/Graphics/SVG/1.1/DTD/svg11.dtd">
<svg version="1.1" id="Layer_1" xmlns="http://www.w3.org/2000/svg" xmlns:xlink="http://www.w3.org/1999/xlink" x="0px" y="0px"
	 width="59.65px" height="49.03px" viewBox="0 0 59.65 49.03" enable-background="new 0 0 59.65 49.03" xml:space="preserve">
<g>
	<path fill="#FFFFFF" d="M12.54,49.01c-3.71,0-9.52,0-10.43,0c-0.77,0-1.54-0.07-1.82-0.49c-0.35-0.56-0.28-1.61-0.28-2.52
		c0-16.8,0-28.35,0-45.08c0-1.05,0.7-0.91,2.1-0.91c1.82,0,2.45,0,2.45,1.05c0,15.33,0,26.11,0,41.23c0,0.91-0.14,2.03,0.49,2.52
		c0.28,0.14,1.05,0.21,1.61,0.21c1.19,0,4.69,0,5.88,0c0.91,0,0.98,0.56,0.98,1.89C13.52,48.66,13.45,49.01,12.54,49.01z"/>
	<path fill="#FFFFFF" d="M19.12,48.94c-1.89,0-2.1,0-2.1-0.98c0-17.57,0-30.03,0-46.84c0-0.91,0.42-1.05,2.1-1.05
		c1.89,0,2.38,0.07,2.38,1.12c0,16.73,0,29.12,0,46.63C21.5,48.87,21.36,48.94,19.12,48.94z"/>
	<path fill="#FFFFFF" d="M35.78,47.96c-0.14,0.98-0.91,1.05-2.31,1.05c-1.82,0-2.66,0-2.8-1.19c-1.89-15.75-3.64-29.75-5.67-46.97
		c-0.07-0.84,0.28-0.84,2.24-0.84c2.03,0,2.45,0.21,2.52,1.12c1.12,12.25,1.96,21.77,3.01,33.39c0,0.21,0.07,0.7,0.42,0.7
		c0.42,0,0.49-0.49,0.49-0.77c1.19-12.04,2.24-22.26,3.36-33.25c0.14-1.19,0.7-1.12,1.96-1.12c1.96,0,2.66,0.14,2.59,0.91
		C39.49,18.21,37.88,30.95,35.78,47.96z"/>
	<path fill="#FFFFFF" d="M58.81,49.01c-3.01,0-7.49,0-10.5,0c-1.12,0-2.31,0.14-2.8-0.28c-0.56-0.49-0.42-1.54-0.42-2.38
		c0-16.8,0-27.44,0-44.25c0-0.91,0.07-0.98,0.49-1.54C45.99,0,46.48,0,47.18,0c3.85,0,7.77,0,11.62,0c0.84,0,0.84,0.84,0.84,2.1
		c0,1.33,0,1.89-0.91,1.89c-1.89,0-5.67,0-7,0c-0.56,0-1.4,0.07-1.61,0.35c-0.35,0.49-0.35,0.42-0.35,1.33c0,4.69,0,8.61,0,13.3
		c0,0.63-0.14,1.4,0.42,1.82c0.49,0.35,0.98,0.28,1.54,0.28c1.19,0,2.66,0,3.29,0c0.84,0,0.98,0.56,0.98,2.03
		c0,1.4-0.07,1.96-0.98,1.96c-0.56,0-1.89,0-3.15,0c-0.7,0-1.47,0.07-1.75,0.21c-0.63,0.42-0.49,1.12-0.49,2.03
		c0,5.6,0,9.45,0,15.05c0,0.91,0,2.24,0.35,2.45c0.35,0.21,1.33,0.28,2.1,0.28c1.89,0,4.76,0,6.65,0c0.84,0,0.91,0.42,0.91,1.96
		C59.65,48.59,59.58,49.01,58.81,49.01z"/>
</g>
</svg>
