<?xml version="1.0" encoding="utf-8"?>
<!-- Generator: Adobe Illustrator 16.0.0, SVG Export Plug-In . SVG Version: 6.00 Build 0)  -->
<!DOCTYPE svg PUBLIC "-//W3C//DTD SVG 1.1//EN" "http://www.w3.org/Graphics/SVG/1.1/DTD/svg11.dtd">
<svg version="1.1" id="Layer_1" xmlns="http://www.w3.org/2000/svg" xmlns:xlink="http://www.w3.org/1999/xlink" x="0px" y="0px"
	 width="71.4px" height="49.01px" viewBox="0 0 71.4 49.01" enable-background="new 0 0 71.4 49.01" xml:space="preserve">
<g>
	<path fill="#FFFFFF" d="M13.72,25.7c-2.38,2.66-5.74,3.01-7.91,3.01c-0.84,0-1.33,0.49-1.33,1.47c0,4.9,0,11.55,0,17.71
		c0,1.12-0.49,1.12-2.38,1.12c-1.82,0-2.1,0-2.1-0.98C0,30.81,0,18.84,0,2.17c0-0.7,0.07-1.33,0.49-1.75C1.05-0.07,1.54,0,2.1,0
		c1.54,0,2.66,0,4.2,0c2.38,0,5.25,0.56,7.35,2.45c2.1,1.96,2.59,4.34,2.59,7.28c0,3.5,0,5.6,0,9.1
		C16.24,20.45,16.24,22.76,13.72,25.7z M11.69,9.73c0-1.61-0.21-2.8-1.47-4.06C9.45,4.9,8.54,4.62,7,4.62c-0.84,0-1.96,0-2.24,0.49
		C4.55,5.53,4.55,5.88,4.55,6.3c0,5.95,0,9.8,0,15.61c0,0.77-0.14,1.68,0.49,2.03c0.35,0.21,0.98,0.14,1.61,0.14
		c0.84,0,2.38-0.14,3.64-1.47c1.4-1.54,1.4-2.24,1.4-3.71C11.69,15.48,11.69,13.17,11.69,9.73z"/>
	<path fill="#FFFFFF" d="M22.82,48.94c-1.89,0-2.1,0-2.1-0.98c0-17.57,0-30.03,0-46.83c0-0.91,0.42-1.05,2.1-1.05
		c1.89,0,2.38,0.07,2.38,1.12c0,16.73,0,29.12,0,46.63C25.2,48.87,25.06,48.94,22.82,48.94z"/>
	<path fill="#FFFFFF" d="M47.25,49.01c-1.82,0-2.24-0.14-2.24-1.26c0-8.89,0-15.54,0-24.43c0-2.73,0-7.14-0.49-7.14
		c-0.49,0-0.7,0.77-0.84,1.19c-0.98,3.78-1.54,5.67-2.59,9.31c-0.14,0.49-0.21,1.05-0.98,1.05c-0.63,0-0.84-0.56-1.05-0.98
		c-0.84-3.29-1.4-5.46-2.38-9.24c-0.14-0.49-0.42-1.12-0.98-1.12c-0.42,0-0.35,4.27-0.35,6.93c0,8.89,0,15.54,0,24.43
		c0,1.12-0.42,1.26-2.24,1.26c-1.96,0-2.31-0.14-2.31-1.26c0-17.5,0-30.1,0-46.69c0-1.12,0.63-0.98,1.96-0.98
		c1.54,0,1.82,0.35,2.94,3.85c1.4,4.41,2.45,7.63,3.64,11.34c0.14,0.35,0.42,0.77,0.84,0.77c0.35,0,0.7-0.42,0.84-0.77
		c1.47-4.41,2.17-6.72,3.64-11.34c1.05-3.36,1.19-3.92,2.73-3.92s2.17,0,2.17,1.05c0,16.59,0,29.19,0,46.69
		C49.56,48.87,49.35,49.01,47.25,49.01z"/>
	<path fill="#FFFFFF" d="M68.88,25.7c-2.38,2.66-5.74,3.01-7.91,3.01c-0.84,0-1.33,0.49-1.33,1.47c0,4.9,0,11.55,0,17.71
		c0,1.12-0.49,1.12-2.38,1.12c-1.82,0-2.1,0-2.1-0.98c0-17.22,0-29.19,0-45.85c0-0.7,0.07-1.33,0.49-1.75
		c0.56-0.49,1.05-0.42,1.61-0.42c1.54,0,2.66,0,4.2,0c2.38,0,5.25,0.56,7.35,2.45c2.1,1.96,2.59,4.34,2.59,7.28c0,3.5,0,5.6,0,9.1
		C71.4,20.45,71.4,22.76,68.88,25.7z M66.85,9.73c0-1.61-0.21-2.8-1.47-4.06c-0.77-0.77-1.68-1.05-3.22-1.05
		c-0.84,0-1.96,0-2.24,0.49c-0.21,0.42-0.21,0.77-0.21,1.19c0,5.95,0,9.8,0,15.61c0,0.77-0.14,1.68,0.49,2.03
		c0.35,0.21,0.98,0.14,1.61,0.14c0.84,0,2.38-0.14,3.64-1.47c1.4-1.54,1.4-2.24,1.4-3.71C66.85,15.48,66.85,13.17,66.85,9.73z"/>
</g>
</svg>
