<?xml version="1.0" encoding="utf-8"?>
<!-- Generator: Adobe Illustrator 16.0.0, SVG Export Plug-In . SVG Version: 6.00 Build 0)  -->
<!DOCTYPE svg PUBLIC "-//W3C//DTD SVG 1.1//EN" "http://www.w3.org/Graphics/SVG/1.1/DTD/svg11.dtd">
<svg version="1.1" id="Layer_1" xmlns="http://www.w3.org/2000/svg" xmlns:xlink="http://www.w3.org/1999/xlink" x="0px" y="0px"
	 width="68.26px" height="49.09px" viewBox="0 0 68.26 49.09" enable-background="new 0 0 68.26 49.09" xml:space="preserve">
<g>
	<path fill="#FFFFFF" d="M8.19,49c-4.55,0-8.12-2.59-8.12-8.12c0-0.28,0-3.64,0-3.92c0-0.77,0.49-0.91,2.31-0.91
		c1.68,0,2.38,0.07,2.38,0.77c0,0.42,0,3.43,0,3.85c0,1.75,0.91,3.64,3.43,3.64c3.01,0,3.57-2.24,3.57-3.85c0-1.68,0-3.08,0-4.27
		c0-3.71-2.73-7.63-5.53-11.55C3.29,20.51,0,16.03,0,11.9c0-1.12,0-2.1,0-3.57C0,4.69,2.17,0,7.98,0c5.32,0,7.98,4.69,7.98,8.26
		c0,0.42,0,2.8,0,3.22c0,0.56-0.84,0.56-2.45,0.56c-1.33,0-2.24,0-2.24-0.63c0-0.42,0-2.94,0-3.29c0-2.31-1.75-3.78-3.29-3.78
		c-1.96,0-3.43,1.96-3.43,3.71c0,1.68,0,2.73,0,3.85c0,2.66,2.73,6.23,5.39,9.94c3.08,4.27,6.37,9.17,6.37,14.42
		c0,1.33,0,2.87,0,4.62C16.31,45.65,12.74,49,8.19,49z"/>
	<path fill="#FFFFFF" d="M22.47,48.94c-1.89,0-2.1,0-2.1-0.98c0-17.57,0-30.03,0-46.83c0-0.91,0.42-1.05,2.1-1.05
		c1.89,0,2.38,0.07,2.38,1.12c0,16.73,0,29.12,0,46.63C24.85,48.86,24.71,48.94,22.47,48.94z"/>
	<path fill="#FFFFFF" d="M44.94,49c-1.05,0-1.96-0.35-2.52-2.73c-2.1-8.89-3.22-13.93-5.46-22.61c-0.49-1.82-1.05-5.11-1.47-5.11
		c-0.42,0-0.49,0.84-0.49,1.26c0,9.66,0,17.71,0,27.93c0,1.12-0.35,1.26-2.24,1.26c-2.03,0-2.31-0.14-2.31-1.26
		c0-17.5,0-30.45,0-47.04C30.45,0,30.94,0,32.2,0c1.96,0,2.45,0.42,3.15,3.08c2.17,8.68,3.57,14.42,5.74,23.1
		c0.14,0.63,0.42,1.68,0.77,1.68c0.35,0,0.42-0.84,0.42-1.26c0-8.82,0-16.1,0-25.34c0-1.12,0.35-1.26,2.38-1.26
		c1.61,0,2.03,0.07,2.03,1.05c0,16.8,0,28.21,0,45.09C46.69,48.65,46.62,49,44.94,49z"/>
	<path fill="#FFFFFF" d="M67.83,48.94c-0.35,0.35-0.91,0-1.54,0c-0.56,0-0.28-1.54-1.26-2.17C64.26,46.27,63.49,49,60.06,49
		c-5.95,0-8.12-4.9-8.12-8.12c0-10.57,0-21.98,0-32.62c0-2.73,1.82-8.26,8.12-8.26c6.16,0,8.12,5.74,8.12,8.26c0,0.91,0,2.24,0,3.15
		c0,0.63-0.56,0.84-2.45,0.84c-1.75,0-2.17-0.07-2.17-0.7c0-0.98-0.07-2.45-0.07-3.43c0-1.54-1.33-3.78-3.43-3.78
		c-2.17,0-3.57,2.24-3.57,3.71c0,9.94,0,22.47,0,32.55c0,1.75,0.77,3.85,3.57,3.85c2.73,0,3.43-2.17,3.43-3.64
		c0-3.92,0-7.56,0-12.04c0-0.35,0.07-0.77-0.28-1.05c-0.49-0.35-1.96-0.14-2.66-0.14c-0.56,0-0.63-0.56-0.63-2.03
		c0-1.54,0.07-2.17,0.56-2.17c1.89,0,6.86-0.21,7.63-0.07c0.28,0.07,0.07,0.56,0.07,0.84c0,9.03,0,14.49,0,23.31
		C68.18,47.96,68.25,48.52,67.83,48.94z"/>
</g>
</svg>
