<?xml version="1.0" encoding="utf-8"?>
<!-- Generator: Adobe Illustrator 18.0.0, SVG Export Plug-In . SVG Version: 6.00 Build 0)  -->
<!DOCTYPE svg PUBLIC "-//W3C//DTD SVG 1.1//EN" "http://www.w3.org/Graphics/SVG/1.1/DTD/svg11.dtd">
<svg version="1.1" id="Layer_1" xmlns="http://www.w3.org/2000/svg" xmlns:xlink="http://www.w3.org/1999/xlink" x="0px" y="0px"
	 viewBox="0 0 416.693 297.638" style="enable-background:new 0 0 416.693 297.638;" xml:space="preserve">
<g>
	<g>
		<g>
			<path style="fill:#FFFFFF;" d="M26.06,199.628c-10.664,0-15.86-8.613-15.86-15.859c0-20.631,0-42.912,0-63.673
				c0-7.386,5.195-16.133,15.86-16.133c11.341,0,15.852,10.254,15.852,16.133c0,1.777,0,4.101,0,6.145
				c0,1.374-2.051,1.504-4.511,1.504c-2.735,0-4.642,0.137-4.642-1.504c0-1.914,0-4.511,0-6.419c0-3.008-2.598-7.379-6.699-7.379
				c-4.238,0-6.973,4.105-6.973,7.243c0,19.4,0,43.589,0,63.269c0,3.821,1.914,7.513,6.973,7.513c4.648,0,6.699-3.411,6.699-7.109
				c0-2.598,0-5.462,0-8.06c0-1.094,1.77-1.094,4.231-1.094c3.281,0,4.922-0.273,4.922,1.094c0,2.734,0,5.742,0,8.34
				C41.912,192.252,37.263,199.628,26.06,199.628z"/>
			<path style="fill:#FFFFFF;" d="M65.277,199.628c-11.341,0-15.853-8.203-15.853-17.083c0-20.634,0-41.545,0-61.91
				c0-10.247,6.973-16.672,15.853-16.672c9.017,0,15.852,7.109,15.852,16.672c0,20.364,0,41.275,0,61.91
				C81.129,191.424,77.438,199.628,65.277,199.628z M72.106,120.635c0-3.821-2.871-8.193-6.829-8.193
				c-4.101,0-6.973,4.371-6.973,8.193c0,19.68,0,41.685,0,61.499c0,3.958,0.82,8.333,6.973,8.333c5.462,0,6.829-4.505,6.829-8.333
				C72.106,162.184,72.106,140.446,72.106,120.635z"/>
			<path style="fill:#FFFFFF;" d="M119.67,199.628c-2.051,0-3.842-0.691-4.922-5.332c-4.102-17.356-6.289-27.2-10.664-44.136
				c-0.957-3.555-2.05-9.974-2.871-9.974c-0.82,0-0.957,1.634-0.957,2.454c0,18.86,0,34.572,0,54.526
				c0,2.18-0.684,2.461-4.375,2.461c-3.951,0-4.498-0.281-4.498-2.461c0-34.163,0-59.448,0-91.833c0-1.371,0.957-1.371,3.418-1.371
				c3.814,0,4.771,0.83,6.138,6.016c4.238,16.946,6.973,28.15,11.211,45.096c0.273,1.231,0.82,3.278,1.504,3.278
				c0.684,0,0.82-1.637,0.82-2.458c0-17.213,0-31.431,0-49.464c0-2.191,0.684-2.467,4.649-2.467c3.13,0,3.951,0.144,3.951,2.057
				c0,32.792,0,55.07,0,88.002C123.074,198.937,122.938,199.628,119.67,199.628z"/>
			<path style="fill:#FFFFFF;" d="M147.547,199.628c-8.886,0-15.859-5.059-15.859-15.859c0-0.54,0-7.096,0-7.65
				c0-1.504,0.957-1.77,4.511-1.77c3.282,0,4.649,0.136,4.649,1.497c0,0.827,0,6.7,0,7.513c0,3.417,1.777,7.109,6.699,7.109
				c5.879,0,6.973-4.375,6.973-7.513c0-3.274,0-6.015,0-8.34c0-7.239-5.332-14.892-10.801-22.548
				c-5.742-8.059-12.167-16.802-12.167-24.862c0-2.187,0-4.101,0-6.98c0-7.096,4.238-16.262,15.585-16.262
				c10.377,0,15.572,9.166,15.572,16.133c0,0.82,0,5.461,0,6.282c0,1.094-1.64,1.094-4.785,1.094c-2.598,0-4.361,0-4.361-1.231
				c0-0.82,0-5.735,0-6.419c0-4.511-3.418-7.379-6.426-7.379c-3.828,0-6.699,3.825-6.699,7.243c0,3.274,0,5.332,0,7.519
				c0,5.181,5.332,12.161,10.527,19.4c6.016,8.329,12.428,17.903,12.428,28.153c0,2.591,0,5.599,0,9.01
				C163.393,193.065,156.42,199.628,147.547,199.628z"/>
			<path style="fill:#FFFFFF;" d="M186.491,199.628c-11.074,0-15.853-9.024-15.853-15.716c0-24.466,0-47.828,0-77.892
				c0-1.781,1.504-2.057,4.375-2.057c2.864,0,4.505,0.554,4.505,2.057c0,29.655,0,53.977,0,77.208c0,3.692,2.051,7.239,6.973,7.239
				c4.642,0,6.966-3.411,6.966-7.109c0-22.408,0-48.778,0-77.748c0-1.227,0.827-1.647,4.102-1.647c3.417,0,4.784,0.276,4.784,1.504
				c0,29.114,0,54.39,0,78.302C202.343,192.381,197.558,199.628,186.491,199.628z"/>
			<path style="fill:#FFFFFF;" d="M237.049,199.628c-7.239,0-18.58,0-20.364,0c-1.504,0-3.001-0.137-3.548-0.964
				c-0.683-1.087-0.547-3.138-0.547-4.908c0-32.805,0-55.353,0-88.012c0-2.044,1.367-1.781,4.095-1.781c3.555,0,4.785,0,4.785,2.057
				c0,29.928,0,50.969,0,80.49c0,1.77-0.274,3.958,0.964,4.915c0.54,0.274,2.044,0.417,3.137,0.417c2.324,0,9.153,0,11.478,0
				c1.777,0,1.907,1.087,1.907,3.684C238.956,198.937,238.827,199.628,237.049,199.628z"/>
			<path style="fill:#FFFFFF;" d="M264.112,111.759c-1.641,0-3.555-0.133-5.879,0c-1.093,0-2.18,0-2.871,0.277
				c-1.231,0.95-0.958,3.275-0.958,5.052c0,30.194,0,51.245,0,81.166c0,1.238-2.05,1.374-4.922,1.374c-2.46,0-4.231,0-4.231-1.374
				c0-29.921,0-51.102,0-81.166c0-1.777,0.267-4.102-0.957-5.052c-0.683-0.277-1.784-0.277-2.871-0.277c-1.914,0-3.828,0-5.059,0
				c-2.051,0-2.454-0.687-2.454-3.695c0-3.004,0.274-4.101,1.907-4.101c8.613,0,19.544,0,28.157,0c1.627,0,1.777,1.371,1.777,4.101
				C265.753,111.205,265.603,111.759,264.112,111.759z"/>
			<path style="fill:#FFFFFF;" d="M292.002,199.628c-3.978,0-4.662,0.273-4.935-1.641c-1.08-7.65-1.901-14.485-3.008-21.998
				c-0.137-1.374-2.051-1.231-4.238-1.231c-2.598,0-3.951-0.143-4.088,1.231c-0.82,7.65-1.518,14.348-2.187,22.265
				c-0.151,1.504-1.367,1.374-5.742,1.374c-2.051,0-3.828,0-3.691-1.231c4.238-35.533,7.93-61.772,11.758-92.52
				c0.273-1.914,0.943-2.044,3.951-2.044c3.418,0,4.525,0.13,4.649,2.465c4.648,34.982,7.122,56.297,11.758,91.956
				C296.364,199.757,295.68,199.628,292.002,199.628z M280.792,136.084c0-0.554-0.15-1.504-0.971-1.504
				c-0.67,0-0.82,0.95-0.82,1.367c-0.806,11.478-1.367,21.041-2.037,30.064c-0.15,0.954,1.094,1.227,3.008,1.227
				c1.641,0,3.144,0,3.008-1.093C282.009,154.391,281.612,146.872,280.792,136.084z"/>
			<path style="fill:#FFFFFF;" d="M331.35,199.628c-2.057,0-3.835-0.691-4.922-5.332c-4.101-17.356-6.276-27.2-10.664-44.136
				c-0.957-3.555-2.037-9.974-2.871-9.974c-0.82,0-0.944,1.634-0.944,2.454c0,18.86,0,34.572,0,54.526
				c0,2.18-0.697,2.461-4.388,2.461c-3.951,0-4.498-0.281-4.498-2.461c0-34.163,0-59.448,0-91.833c0-1.371,0.957-1.371,3.418-1.371
				c3.828,0,4.771,0.83,6.139,6.016c4.238,16.946,6.972,28.15,11.21,45.096c0.267,1.231,0.82,3.278,1.504,3.278
				c0.683,0,0.82-1.637,0.82-2.458c0-17.213,0-31.431,0-49.464c0-2.191,0.684-2.467,4.649-2.467c3.138,0,3.965,0.144,3.965,2.057
				c0,32.792,0,55.07,0,88.002C334.768,198.937,334.631,199.628,331.35,199.628z"/>
			<path style="fill:#FFFFFF;" d="M370.841,111.759c-1.647,0-3.555-0.133-5.879,0c-1.094,0-2.18,0-2.878,0.277
				c-1.224,0.95-0.951,3.275-0.951,5.052c0,30.194,0,51.245,0,81.166c0,1.238-2.051,1.374-4.915,1.374c-2.461,0-4.238,0-4.238-1.374
				c0-29.921,0-51.102,0-81.166c0-1.777,0.267-4.102-0.964-5.052c-0.67-0.277-1.777-0.277-2.864-0.277c-1.907,0-3.821,0-5.052,0
				c-2.05,0-2.46-0.687-2.46-3.695c0-3.004,0.273-4.101,1.914-4.101c8.606,0,19.531,0,28.143,0c1.641,0,1.784,1.371,1.784,4.101
				C372.481,111.205,372.338,111.759,370.841,111.759z"/>
			<path style="fill:#FFFFFF;" d="M391.198,199.628c-8.879,0-15.845-5.059-15.845-15.859c0-0.54,0-7.096,0-7.65
				c0-1.504,0.95-1.77,4.511-1.77c3.275,0,4.642,0.136,4.642,1.497c0,0.827,0,6.7,0,7.513c0,3.417,1.784,7.109,6.692,7.109
				c5.879,0,6.973-4.375,6.973-7.513c0-3.274,0-6.015,0-8.34c0-7.239-5.325-14.892-10.8-22.548
				c-5.729-8.059-12.148-16.802-12.148-24.862c0-2.187,0-4.101,0-6.98c0-7.096,4.231-16.262,15.565-16.262
				c10.391,0,15.586,9.166,15.586,16.133c0,0.82,0,5.461,0,6.282c0,1.094-1.641,1.094-4.785,1.094c-2.598,0-4.375,0-4.375-1.231
				c0-0.82,0-5.735,0-6.419c0-4.511-3.418-7.379-6.426-7.379c-3.828,0-6.692,3.825-6.692,7.243c0,3.274,0,5.332,0,7.519
				c0,5.181,5.332,12.161,10.52,19.4c6.016,8.329,12.435,17.903,12.435,28.153c0,2.591,0,5.599,0,9.01
				C407.051,193.065,400.085,199.628,391.198,199.628z"/>
		</g>
		<g>
			<g>
				<path style="fill:#FFFFFF;" d="M196.136,37.754l0.198-0.461c1.641-4.061,3.268-7.147,4.396-8.224
					c0.102-0.143,0.164-0.39,0.123-0.568c-0.076-0.205-0.41-0.472-0.684-0.67c-0.123-0.078-0.328-0.178-0.657-0.301l-0.068-0.01
					c-2.502,0-8.374,0.027-10.336,4.395c-2.905,6.521-5.379,12.554-7.759,18.426c-4.593,11.262-8.558,20.99-13.33,27.836
					c-4.929,6.931-13.172,11.604-20.541,11.621c-3.877,0-6.453-1.637-7.437-4.73c-1.107-3.524-0.274-7.991,2.331-12.264
					c4.388-7.205,12.762-12.517,22.401-14.187c0.492-0.065,0.806-0.226,0.943-0.455c0.096-0.123,0.116-0.287,0.062-0.434
					c-0.069-0.249-0.253-0.475-0.581-0.687c-0.13-0.096-0.356-0.188-0.519-0.216c-0.165-0.106-0.301-0.106-0.41-0.106l-1.285,0.01
					c-10.24,0.011-23.461,6.727-29.49,14.954c-3.254,4.46-4.238,9.129-2.85,13.49c1.552,4.912,7.28,8.07,14.594,8.07h0.069
					c2.051,0,12.797-0.331,22.75-7.048c9.755-6.644,17.725-19.804,25.867-42.687C194.646,41.463,195.412,39.569,196.136,37.754z
					 M148.21,65.883c-0.02,0.018-0.034,0.027-0.061,0.048C148.176,65.91,148.189,65.901,148.21,65.883z M144.525,69.53
					c-0.041,0.083-0.109,0.143-0.171,0.226C144.416,69.674,144.471,69.613,144.525,69.53z"/>
			</g>
			<g>
				<path style="fill:#FFFFFF;" d="M284.791,69.613c-0.267-0.862-0.664-1.272-1.183-1.272c-0.178,0.007-0.3,0.116-0.389,0.26
					c-3.726,4.898-6.631,8.45-9.16,11.173c-1.907,2.187-8.716,7.437-14.164,7.448c-3.281,0-5.475-1.88-6.686-5.705
					c-1.032-3.268-1.128-6.289-0.253-8.986c0.055-0.078,0.089-0.16,0.116-0.239c0.02-0.021,0.02-0.055,0.041-0.099l0.062,0.055
					l0.082-0.02c10.199-1.921,18.224-6.201,22.367-11.488c0.062-0.076,0.143-0.168,0.205-0.246c0.328-0.444,0.834-0.855,1.107-1.319
					c1.394-2.32,1.812-4.552,1.21-6.467c-0.923-2.915-4.176-4.58-8.941-4.58c-13.399,0.017-22.77,11.033-25.122,21.906
					c-3.158,4.153-5.742,7.41-8.053,9.792c-0.314,0.312-0.629,0.639-0.943,0.978c-2.311,2.393-4.689,4.894-8.381,4.905
					c-0.875,0-1.401-0.438-1.709-1.432c-1.272-3.968,3.896-14.502,7.67-22.189c1.914-3.873,3.555-7.209,4.005-8.935
					c0.253-0.862,0.274-1.592,0.062-2.242c-0.129-0.417-0.526-0.663-0.848-0.971c-0.02-0.013-0.034-0.041-0.068-0.069
					c-0.704-0.594-1.675-1.015-3.179-1.015l-0.055-0.01c-0.588,0-1.258,0.269-1.873,0.403c-0.109,0.017-0.205,0.034-0.314,0.062
					C219.871,51.641,204.9,69.479,203.765,71c-0.328,0.239-0.438,0.26-0.451,0.26c-0.02-0.01-0.102-0.048-0.15-0.198
					c-0.055-0.178-0.041-0.185-0.027-0.205c0.089-0.113,0.11-0.174,0.082-0.301c1.778-4.758,5.333-12.417,8.573-19.288
					c1.518-3.034,2.939-6.009,4.32-8.883c2.619-5.441,4.881-10.158,6.918-13.61c0.171,0.017,0.342,0.037,0.533,0.055
					c0.301,0.034,0.615,0.062,0.888,0.062c3.569,0,8.408-0.666,11.211-3.852c0.294-0.366,0.41-0.701,0.321-0.944
					c-0.069-0.249-0.376-0.499-0.779-0.605c-0.294-0.109-0.554-0.116-0.67-0.109c-0.444,0.092-1.142,0.092-1.791,0.102l-0.157,0.007
					c-1.757,0-3.726-0.143-5.865-0.417c0.123-0.188,0.246-0.365,0.362-0.554c0.219-0.335,0.444-0.683,0.677-0.984
					c1.613-1.948,4.943-5.386,9.113-6.265c0.703-0.171,1.032-0.332,1.169-0.564c0.048-0.106,0.068-0.218,0.034-0.335
					c-0.109-0.349-0.444-0.588-0.943-0.711c-0.267-0.089-0.513-0.089-0.615-0.089c-6.925,0.017-10.247,1.599-13.966,4.518
					c-0.93,0.659-1.982,1.798-3.418,3.664c-4.539-0.939-9.434-2.197-14.185-3.415c-10.349-2.645-21.047-5.376-29.292-5.376h-0.055
					c-16.023,0.02-27.097,7.349-32.101,14.218c-2.912,3.992-4.088,8.196-3.131,11.228c1.231,3.89,5.708,5.838,13.317,5.838
					c4.99,0,17.664-0.864,27.254-8.719c0.718-0.615,1.005-1.275,0.82-1.852c-0.068-0.219-0.307-0.605-1.073-0.605
					c-0.383,0-1.025,0.257-1.777,0.711c-1.969,1.042-3.767,1.842-5.51,2.42c-4.539,1.681-9.325,2.547-14.198,2.556
					c-8.9,0-11.518-2.379-12.148-4.341c-0.766-2.43-0.294-4.843,1.401-7.164c3.739-5.134,13.05-8.863,22.128-8.88h0.041
					c7.499,0,17.835,2.731,27.836,5.366c5.687,1.504,11.566,3.053,16.707,4.04c-1.312,2.204-2.488,4.341-3.527,6.327
					c-2.078,3.968-4.122,8.278-6.016,12.356c-2.092,4.119-4.19,8.541-6.788,14.308c-3.48,7.783-8.224,18.467-10.848,27.419
					c-0.205,0.41-0.267,0.632-0.165,1.004c0.123,0.349,0.431,0.581,0.971,0.701c0.232,0.048,1.476,0.287,2.789,0.287
					c1.251,0,4.17,0,4.929-1.576c3.384-6.955,21.869-33.352,29.497-33.369c0.219,0,0.335,0.062,0.451,0.103
					c0.041,0.031,0.109,0.058,0.136,0.092c0.075,0.071,0.144,0.16,0.178,0.267c0.328,1.049-2.474,6.743-4.484,10.268l-0.315,0.639
					c-1.968,3.852-6.583,12.837-4.963,18.959c0.479,1.452,1.546,4.86,7.137,4.86c5.455,0,11.17-5.117,14.998-9.396
					c1.483-1.61,2.919-3.295,4.388-5.116c0.027,2.471,0.328,4.573,0.902,6.405c1.245,3.951,4.382,8.647,12.257,8.647h0.02
					c9.345-0.01,15.846-5.345,20.473-9.99c1.764-1.883,3.534-3.996,5.312-6.248c0.657-0.841,1.299-1.743,1.996-2.843
					C284.927,71.062,285.016,70.334,284.791,69.613z M267.633,60.609c-3.247,4.919-8.429,8.165-13.884,8.709l-0.274-0.178
					c0.916-5.623,7.11-18.142,14.061-18.149c1.224,0,1.975,0.557,2.345,1.736C270.47,54.577,269.581,57.663,267.633,60.609z
					 M147.636,28.204c-0.048,0.092-0.068,0.188-0.116,0.277C147.568,28.392,147.588,28.296,147.636,28.204z M256.695,90.797
					L256.695,90.797L256.695,90.797L256.695,90.797z"/>
			</g>
		</g>
	</g>
	<g>
		<g>
			<path style="fill:#FFFFFF;" d="M219.953,218.863v-3.428h-22.655v3.428h9.605v8.521c-0.991,0.099-1.921,0.339-2.81,0.711
				c-1.189,0.496-2.235,1.196-3.123,2.085c-0.896,0.899-1.606,1.945-2.127,3.162c-0.533,1.217-0.792,2.502-0.792,3.879v36.234
				c0,1.371,0.26,2.656,0.792,3.842c0.52,1.193,1.231,2.228,2.127,3.124c0.888,0.899,1.934,1.599,3.123,2.126
				c1.19,0.53,2.468,0.793,3.842,0.793h1.374c1.367,0,2.659-0.263,3.876-0.793c1.217-0.526,2.255-1.227,3.158-2.126
				c0.889-0.896,1.586-1.931,2.092-3.124c0.505-1.186,0.752-2.471,0.752-3.842V262.61h-3.418h-0.15v10.846
				c0,1.787-0.601,3.308-1.818,4.57c-1.21,1.254-2.714,1.886-4.491,1.886h-1.374c-0.868,0-1.709-0.181-2.502-0.519
				c-0.793-0.345-1.49-0.803-2.058-1.367c-0.574-0.571-1.033-1.261-1.374-2.064c-0.342-0.797-0.519-1.637-0.519-2.505v-36.234
				c0-0.916,0.178-1.76,0.519-2.54c0.342-0.783,0.8-1.452,1.374-2.024c0.568-0.581,1.265-1.028,2.058-1.374
				c0.478-0.205,0.97-0.328,1.469-0.413v39.464h3.438v-39.464c0.519,0.078,1.025,0.208,1.504,0.413
				c0.779,0.346,1.449,0.793,2.023,1.374c0.575,0.571,1.032,1.241,1.374,2.024c0.349,0.779,0.526,1.623,0.526,2.54v8.647h3.418
				v-8.647c0-1.378-0.246-2.663-0.752-3.879c-0.506-1.217-1.203-2.263-2.092-3.162c-0.902-0.888-1.941-1.589-3.158-2.085
				c-0.902-0.372-1.86-0.612-2.844-0.711v-8.521H219.953z"/>
		</g>
	</g>
</g>
</svg>
