<?xml version="1.0" encoding="utf-8"?>
<!-- Generator: Adobe Illustrator 16.0.0, SVG Export Plug-In . SVG Version: 6.00 Build 0)  -->
<!DOCTYPE svg PUBLIC "-//W3C//DTD SVG 1.1//EN" "http://www.w3.org/Graphics/SVG/1.1/DTD/svg11.dtd">
<svg version="1.1" id="Layer_1" xmlns="http://www.w3.org/2000/svg" xmlns:xlink="http://www.w3.org/1999/xlink" x="0px" y="0px"
	 width="94.02px" height="49.08px" viewBox="0 0 94.02 49.08" enable-background="new 0 0 94.02 49.08" xml:space="preserve">
<g>
	<path fill="#FFFFFF" d="M18.49,48.31c-0.07,0.91-0.49,0.77-2.31,0.77c-0.91,0-1.33-0.07-1.47-0.77c-0.98-5.46-1.75-9.73-2.8-15.33
		c-0.07-0.28-0.07-0.77-0.49-0.77c-0.35,0-0.35,0.49-0.42,0.7c-0.98,5.32-1.75,9.1-2.94,15.33c-0.14,0.91-0.7,0.84-1.68,0.84
		c-0.91,0-2.38,0.14-2.45-0.77C2.95,35.98,1.48,18.55,0.01,0.91c-0.07-0.56,0.56-0.84,1.96-0.84c2.1,0,2.66,0.07,2.73,0.77
		c0.84,13.02,1.4,21.77,2.17,33.53c0,0.21,0.07,0.7,0.42,0.7c0.42,0,0.49-0.49,0.49-0.77c0.77-6.79,1.33-12.04,1.96-18.06
		c0.07-0.63,0.42-0.84,1.68-0.84c1.4,0,1.75,0.14,1.82,0.84c0.7,6.58,1.12,11.41,1.89,18.34c0,0.21,0.07,0.7,0.42,0.7
		c0.42,0,0.49-0.49,0.49-0.77c0.77-12.39,1.47-23.8,2.1-33.74c0.07-0.7,0.28-0.7,1.89-0.7c1.89,0,2.45-0.14,2.38,0.77
		C21.5,11.83,19.54,35.49,18.49,48.31z"/>
	<path fill="#FFFFFF" d="M37.6,49.07c-2.03,0-2.38,0.14-2.52-0.84c-0.56-3.92-0.98-7.42-1.54-11.27c-0.07-0.7-1.05-0.63-2.17-0.63
		c-1.33,0-2.03-0.07-2.1,0.63c-0.42,3.92-0.77,7.35-1.12,11.41c-0.07,0.77-0.7,0.7-2.94,0.7c-1.05,0-1.96,0-1.89-0.63
		c2.17-18.2,4.06-31.64,6.02-47.4C29.48,0.07,29.83,0,31.37,0c1.75,0,2.31,0.07,2.38,1.26c2.38,17.92,3.64,28.84,6.02,47.12
		C39.84,49.15,39.49,49.07,37.6,49.07z M31.86,16.52c0-0.28-0.07-0.77-0.49-0.77c-0.35,0-0.42,0.49-0.42,0.7
		c-0.42,5.88-0.7,10.78-1.05,15.4c-0.07,0.49,0.56,0.63,1.54,0.63c0.84,0,1.61,0,1.54-0.56C32.49,25.9,32.28,22.05,31.86,16.52z"/>
	<path fill="#FFFFFF" d="M54.4,4.06c-0.84,0-1.82-0.07-3.01,0c-0.56,0-1.12,0-1.47,0.14c-0.63,0.49-0.49,1.68-0.49,2.59
		c0,15.47,0,26.25,0,41.58c0,0.63-1.05,0.7-2.52,0.7c-1.26,0-2.17,0-2.17-0.7c0-15.33,0-26.18,0-41.58c0-0.91,0.14-2.1-0.49-2.59
		c-0.35-0.14-0.91-0.14-1.47-0.14c-0.98,0-1.96,0-2.59,0c-1.05,0-1.26-0.35-1.26-1.89c0-1.54,0.14-2.1,0.98-2.1
		c4.41,0,10.01,0,14.42,0c0.84,0,0.91,0.7,0.91,2.1C55.24,3.78,55.17,4.06,54.4,4.06z"/>
	<path fill="#FFFFFF" d="M65.46,49.07c-5.46,0-8.12-4.41-8.12-8.12c0-10.57,0-21.98,0-32.62c0-3.78,2.66-8.26,8.12-8.26
		c5.81,0,8.12,5.25,8.12,8.26c0,0.91,0,2.1,0,3.15c0,0.7-1.05,0.77-2.31,0.77c-1.4,0-2.38,0.07-2.38-0.77c0-0.98,0-2.31,0-3.29
		c0-1.54-1.33-3.78-3.43-3.78c-2.17,0-3.57,2.1-3.57,3.71c0,9.94,0,22.33,0,32.41c0,1.96,0.98,3.85,3.57,3.85
		c2.38,0,3.43-1.75,3.43-3.64c0-1.33,0-2.8,0-4.13c0-0.56,0.91-0.56,2.17-0.56c1.68,0,2.52-0.14,2.52,0.56c0,1.4,0,2.94,0,4.27
		C73.58,45.3,71.2,49.07,65.46,49.07z"/>
	<path fill="#FFFFFF" d="M91.78,49c-2.1,0-2.31-0.07-2.31-1.4c0-6.65,0-12.46,0-19.11c0-0.84,0.07-2.24-0.42-2.38
		c-0.77-0.42-6.02-0.14-6.3,0.07c-0.63,0.42-0.49,1.61-0.49,2.52c0,6.79,0,12.39,0,19.18c0,1.12-0.42,1.12-2.38,1.12
		c-1.82,0-2.1,0-2.1-0.98c0-17.57,0-29.82,0-46.63c0-0.91,0.28-1.26,2.1-1.26c1.96,0,2.45,0.28,2.45,1.33c0,5.74,0,10.85,0,16.52
		c0,1.19-0.21,2.59,0.84,3.15c0.56,0.21,5.11,0.42,5.81,0c0.63-0.42,0.49-1.89,0.49-2.94c0-5.88,0-11.97,0-17.01
		c0-1.26,0.56-1.05,2.24-1.05c1.96,0,2.31,0,2.31,1.12c0,16.59,0,29.05,0,46.34C94.02,48.86,94.09,49,91.78,49z"/>
</g>
</svg>
